AcariSans-LightItalic.ufo
<glyph name="exclam" format="2">
  <advance width="653"/>
  <unicode hex="0021"/>
  <outline>
    <contour>
      <point x="346" y="381" type="line"/>
      <point x="628" y="1469" type="line"/>
      <point x="470" y="1469" type="line"/>
      <point x="247" y="381" type="line"/>
    </contour>
    <contour>
      <point x="301" y="0" type="line"/>
      <point x="343" y="181" type="line"/>
      <point x="160" y="181" type="line"/>
      <point x="119" y="0" type="line"/>
    </contour>
  </outline>
</glyph>
<glyph name="quotedbl" format="2">
  <advance width="512"/>
  <unicode hex="0022"/>
  <outline>
    <contour>
      <point x="282" y="1035" type="line"/>
      <point x="402" y="1035" type="line"/>
      <point x="497" y="1448" type="line"/>
      <point x="377" y="1448" type="line"/>
    </contour>
    <contour>
      <point x="352" y="1035" type="line"/>
      <point x="472" y="1035" type="line"/>
      <point x="567" y="1448" type="line"/>
      <point x="447" y="1448" type="line"/>
    </contour>
  </outline>
</glyph>
<glyph name="numbersign" format="2">
  <advance width="1410"/>
  <unicode hex="0023"/>
  <outline>
    <contour>
      <point x="715" y="0" type="line"/>
      <point x="916" y="461" type="line"/>
      <point x="1191" y="461" type="line"/>
      <point x="1214" y="555" type="line"/>
      <point x="958" y="555" type="line"/>
      <point x="1115" y="914" type="line"/>
      <point x="1380" y="914" type="line"/>
      <point x="1404" y="1013" type="line"/>
      <point x="1157" y="1013" type="line"/>
      <point x="1357" y="1468" type="line"/>
      <point x="1250" y="1468" type="line"/>
      <point x="1052" y="1020" type="line"/>
      <point x="708" y="1020" type="line"/>
      <point x="907" y="1468" type="line"/>
      <point x="800" y="1468" type="line"/>
      <point x="597" y="1010" type="line"/>
      <point x="321" y="1010" type="line"/>
      <point x="298" y="914" type="line"/>
      <point x="555" y="914" type="line"/>
      <point x="399" y="555" type="line"/>
      <point x="132" y="555" type="line"/>
      <point x="109" y="455" type="line"/>
      <point x="355" y="455" type="line"/>
      <point x="158" y="0" type="line"/>
      <point x="265" y="0" type="line"/>
      <point x="461" y="447" type="line"/>
      <point x="805" y="447" type="line"/>
      <point x="607" y="0" type="line"/>
    </contour>
    <contour>
      <point x="851" y="555" type="line"/>
      <point x="507" y="555" type="line"/>
      <point x="664" y="914" type="line"/>
      <point x="1007" y="914" type="line"/>
    </contour>
  </outline>
</glyph>
<glyph name="dollar" format="2">
  <advance width="1229"/>
  <unicode hex="0024"/>
  <outline>
    <contour>
      <point x="452" y="-253" type="line"/>
      <point x="513" y="-15" type="line"/>
      <point x="824" y="-15"/>
      <point x="1026" y="129"/>
      <point x="1026" y="426" type="curve" smooth="yes"/>
      <point x="1026" y="838"/>
      <point x="478" y="730"/>
      <point x="478" y="1078" type="curve" smooth="yes"/>
      <point x="478" y="1244"/>
      <point x="614" y="1343"/>
      <point x="793" y="1343" type="curve" smooth="yes"/>
      <point x="903" y="1343"/>
      <point x="1002" y="1272"/>
      <point x="1031" y="1175" type="curve"/>
      <point x="1149" y="1236" type="line"/>
      <point x="1108" y="1361"/>
      <point x="984" y="1454"/>
      <point x="842" y="1465" type="curve"/>
      <point x="903" y="1699" type="line"/>
      <point x="816" y="1699" type="line"/>
      <point x="754" y="1464" type="line"/>
      <point x="507" y="1454"/>
      <point x="336" y="1293"/>
      <point x="336" y="1063" type="curve" smooth="yes"/>
      <point x="336" y="648"/>
      <point x="886" y="763"/>
      <point x="886" y="410" type="curve" smooth="yes"/>
      <point x="886" y="198"/>
      <point x="740" y="117"/>
      <point x="500" y="117" type="curve" smooth="yes"/>
      <point x="322" y="117"/>
      <point x="216" y="206"/>
      <point x="216" y="358" type="curve" smooth="yes"/>
      <point x="216" y="373"/>
      <point x="217" y="388"/>
      <point x="219" y="403" type="curve"/>
      <point x="79" y="377" type="line"/>
      <point x="79" y="366" type="line" smooth="yes"/>
      <point x="79" y="147"/>
      <point x="229" y="17"/>
      <point x="425" y="-12" type="curve"/>
      <point x="364" y="-253" type="line"/>
    </contour>
  </outline>
</glyph>
<glyph name="ampersand" format="2">
  <advance width="1402"/>
  <unicode hex="0026"/>
  <outline>
    <contour>
      <point x="1083" y="-51" type="line"/>
      <point x="1179" y="22" type="line"/>
      <point x="1017" y="282" type="line"/>
      <point x="1103" y="392"/>
      <point x="1174" y="527"/>
      <point x="1227" y="686" type="curve"/>
      <point x="1120" y="711" type="line"/>
      <point x="1075" y="578"/>
      <point x="1023" y="471"/>
      <point x="956" y="379" type="curve"/>
      <point x="723" y="754" type="line"/>
      <point x="978" y="898"/>
      <point x="1114" y="1055"/>
      <point x="1114" y="1207" type="curve" smooth="yes"/>
      <point x="1114" y="1366"/>
      <point x="1016" y="1464"/>
      <point x="857" y="1464" type="curve" smooth="yes"/>
      <point x="641" y="1464"/>
      <point x="455" y="1300"/>
      <point x="455" y="1111" type="curve" smooth="yes"/>
      <point x="455" y="1022"/>
      <point x="489" y="929"/>
      <point x="573" y="790" type="curve"/>
      <point x="248" y="609"/>
      <point x="88" y="446"/>
      <point x="88" y="263" type="curve" smooth="yes"/>
      <point x="88" y="95"/>
      <point x="219" y="-22"/>
      <point x="407" y="-22" type="curve" smooth="yes"/>
      <point x="595" y="-22"/>
      <point x="787" y="69"/>
      <point x="935" y="190" type="curve"/>
    </contour>
    <contour>
      <point x="663" y="841" type="curve"/>
      <point x="595" y="951"/>
      <point x="560" y="1040"/>
      <point x="560" y="1103" type="curve" smooth="yes"/>
      <point x="560" y="1234"/>
      <point x="701" y="1354"/>
      <point x="856" y="1354" type="curve" smooth="yes"/>
      <point x="948" y="1354"/>
      <point x="1017" y="1291"/>
      <point x="1017" y="1208" type="curve" smooth="yes"/>
      <point x="1017" y="1097"/>
      <point x="895" y="972"/>
    </contour>
    <contour>
      <point x="422" y="78" type="curve" smooth="yes"/>
      <point x="292" y="78"/>
      <point x="204" y="162"/>
      <point x="204" y="275" type="curve" smooth="yes"/>
      <point x="204" y="416"/>
      <point x="338" y="537"/>
      <point x="622" y="695" type="curve"/>
      <point x="878" y="283" type="line"/>
      <point x="756" y="180"/>
      <point x="594" y="78"/>
    </contour>
  </outline>
</glyph>
<glyph name="quotesingle" format="2">
  <advance width="628"/>
  <unicode hex="0027"/>
  <outline>
    <contour>
      <point x="502" y="1064" type="line"/>
      <point x="597" y="1477" type="line"/>
      <point x="477" y="1477" type="line"/>
      <point x="382" y="1064" type="line"/>
    </contour>
  </outline>
</glyph>
<glyph name="parenleft" format="2">
  <advance width="581"/>
  <unicode hex="0028"/>
  <outline>
    <contour>
      <point x="367" y="-10" type="line"/>
      <point x="292" y="128"/>
      <point x="264" y="276"/>
      <point x="264" y="433" type="curve" smooth="yes"/>
      <point x="264" y="800"/>
      <point x="461" y="1210"/>
      <point x="715" y="1468" type="curve"/>
      <point x="599" y="1468" type="line"/>
      <point x="334" y="1206"/>
      <point x="165" y="834"/>
      <point x="165" y="458" type="curve" smooth="yes"/>
      <point x="165" y="317"/>
      <point x="190" y="111"/>
      <point x="269" y="-10" type="curve"/>
    </contour>
  </outline>
</glyph>
<glyph name="parenright" format="2">
  <advance width="583"/>
  <unicode hex="0029"/>
  <outline>
    <contour>
      <point x="78" y="-10" type="line"/>
      <point x="347" y="228"/>
      <point x="520" y="654"/>
      <point x="520" y="1005" type="curve" smooth="yes"/>
      <point x="520" y="1162"/>
      <point x="493" y="1333"/>
      <point x="410" y="1468" type="curve"/>
      <point x="312" y="1468" type="line"/>
      <point x="382" y="1324"/>
      <point x="413" y="1154"/>
      <point x="413" y="994" type="curve" smooth="yes"/>
      <point x="413" y="633"/>
      <point x="214" y="242"/>
      <point x="-33" y="-10" type="curve"/>
    </contour>
  </outline>
</glyph>
<glyph name="asterisk" format="2">
  <advance width="895"/>
  <unicode hex="002A"/>
  <outline>
    <contour>
      <point x="407" y="876" type="line"/>
      <point x="590" y="1120" type="line"/>
      <point x="664" y="877" type="line"/>
      <point x="753" y="937" type="line"/>
      <point x="618" y="1148" type="line"/>
      <point x="891" y="1192" type="line"/>
      <point x="883" y="1292" type="line"/>
      <point x="617" y="1185" type="line"/>
      <point x="710" y="1447" type="line"/>
      <point x="615" y="1447" type="line"/>
      <point x="586" y="1185" type="line"/>
      <point x="368" y="1292" type="line"/>
      <point x="314" y="1192" type="line"/>
      <point x="565" y="1148" type="line"/>
      <point x="337" y="936" type="line"/>
    </contour>
  </outline>
</glyph>
<glyph name="plus" format="2">
  <advance width="1313"/>
  <unicode hex="002B"/>
  <outline>
    <contour>
      <point x="706" y="109" type="line"/>
      <point x="706" y="592" type="line"/>
      <point x="1175" y="592" type="line"/>
      <point x="1175" y="690" type="line"/>
      <point x="706" y="690" type="line"/>
      <point x="706" y="1169" type="line"/>
      <point x="606" y="1169" type="line"/>
      <point x="606" y="690" type="line"/>
      <point x="138" y="690" type="line"/>
      <point x="138" y="592" type="line"/>
      <point x="606" y="592" type="line"/>
      <point x="606" y="109" type="line"/>
    </contour>
  </outline>
</glyph>
<glyph name="comma" format="2">
  <advance width="614"/>
  <unicode hex="002C"/>
  <outline>
    <contour>
      <point x="52" y="-231" type="line"/>
      <point x="372" y="267" type="line"/>
      <point x="193" y="267" type="line"/>
      <point x="-27" y="-231" type="line"/>
    </contour>
  </outline>
</glyph>
<glyph name="hyphen" format="2">
  <advance width="883"/>
  <unicode hex="002D"/>
  <outline>
    <contour>
      <point x="715" y="594" type="line"/>
      <point x="738" y="693" type="line"/>
      <point x="229" y="693" type="line"/>
      <point x="206" y="594" type="line"/>
    </contour>
  </outline>
</glyph>
<glyph name="period" format="2">
  <advance width="614"/>
  <unicode hex="002E"/>
  <outline>
    <contour>
      <point x="303.104" y="0" type="line"/>
      <point x="345.088" y="181.248" type="line"/>
      <point x="154.624" y="181.248" type="line"/>
      <point x="111.616" y="0" type="line"/>
    </contour>
  </outline>
</glyph>
<glyph name="zero" format="2">
  <advance width="1229"/>
  <unicode hex="0030"/>
  <outline>
    <contour>
      <point x="457" y="-20" type="curve" smooth="yes"/>
      <point x="892" y="-20"/>
      <point x="1161" y="589"/>
      <point x="1161" y="961" type="curve" smooth="yes"/>
      <point x="1161" y="1203"/>
      <point x="1077" y="1470"/>
      <point x="781" y="1470" type="curve" smooth="yes"/>
      <point x="339" y="1470"/>
      <point x="73" y="865"/>
      <point x="73" y="487" type="curve" smooth="yes"/>
      <point x="73" y="228"/>
      <point x="151" y="-20"/>
    </contour>
    <contour>
      <point x="478" y="102" type="curve" smooth="yes"/>
      <point x="257" y="102"/>
      <point x="206" y="293"/>
      <point x="206" y="477" type="curve" smooth="yes"/>
      <point x="206" y="774"/>
      <point x="388" y="1342"/>
      <point x="754" y="1342" type="curve" smooth="yes"/>
      <point x="963" y="1342"/>
      <point x="1016" y="1149"/>
      <point x="1016" y="976" type="curve" smooth="yes"/>
      <point x="1016" y="689"/>
      <point x="835" y="102"/>
    </contour>
  </outline>
</glyph>
<glyph name="one" format="2">
  <advance width="1229"/>
  <unicode hex="0031"/>
  <outline>
    <contour>
      <point x="621.568" y="0" type="line"/>
      <point x="954.368" y="1446.91" type="line"/>
      <point x="829.44" y="1446.91" type="line"/>
      <point x="804.864" y="1327.1"/>
      <point x="718.848" y="1236.99"/>
      <point x="591.872" y="1236.99" type="curve" smooth="yes"/>
      <point x="401.408" y="1236.99" type="line"/>
      <point x="375.808" y="1123.33" type="line"/>
      <point x="741.376" y="1123.33" type="line"/>
      <point x="482.304" y="0" type="line"/>
    </contour>
  </outline>
</glyph>
<glyph name="two" format="2">
  <advance width="1229"/>
  <unicode hex="0032"/>
  <outline>
    <contour>
      <point x="-25.6" y="0" type="line"/>
      <point x="952.32" y="0" type="line"/>
      <point x="977.92" y="114.688" type="line"/>
      <point x="177.152" y="114.688" type="line"/>
      <point x="799.744" y="453.632"/>
      <point x="1178.62" y="841.728"/>
      <point x="1178.62" y="1148.93" type="curve" smooth="yes"/>
      <point x="1178.62" y="1336.32"/>
      <point x="1043.46" y="1468.42"/>
      <point x="821.248" y="1468.42" type="curve" smooth="yes"/>
      <point x="558.08" y="1468.42"/>
      <point x="342.016" y="1285.12"/>
      <point x="272.384" y="1003.52" type="curve"/>
      <point x="400.384" y="982.016" type="line"/>
      <point x="458.752" y="1201.15"/>
      <point x="622.592" y="1345.54"/>
      <point x="813.056" y="1345.54" type="curve" smooth="yes"/>
      <point x="949.248" y="1345.54"/>
      <point x="1034.24" y="1253.38"/>
      <point x="1034.24" y="1135.62" type="curve" smooth="yes"/>
      <point x="1034.24" y="858.112"/>
      <point x="630.784" y="466.944"/>
      <point x="3.072" y="130.048" type="curve"/>
    </contour>
  </outline>
</glyph>
<glyph name="three" format="2">
  <advance width="1229"/>
  <unicode hex="0033"/>
  <outline>
    <contour>
      <point x="453" y="-20" type="curve" smooth="yes"/>
      <point x="785" y="-20"/>
      <point x="1031" y="204"/>
      <point x="1031" y="506" type="curve" smooth="yes"/>
      <point x="1031" y="646"/>
      <point x="972" y="733"/>
      <point x="847" y="775" type="curve"/>
      <point x="1012" y="857"/>
      <point x="1113" y="1013"/>
      <point x="1113" y="1185" type="curve" smooth="yes"/>
      <point x="1113" y="1353"/>
      <point x="977" y="1468"/>
      <point x="780" y="1468" type="curve" smooth="yes"/>
      <point x="545" y="1468"/>
      <point x="351" y="1321"/>
      <point x="299" y="1104" type="curve"/>
      <point x="417" y="1081" type="line"/>
      <point x="454" y="1234"/>
      <point x="602" y="1347"/>
      <point x="765" y="1347" type="curve" smooth="yes"/>
      <point x="891" y="1347"/>
      <point x="982" y="1266"/>
      <point x="982" y="1155" type="curve" smooth="yes"/>
      <point x="982" y="962"/>
      <point x="833" y="829"/>
      <point x="618" y="829" type="curve" smooth="yes"/>
      <point x="575" y="829" type="line"/>
      <point x="547" y="706" type="line"/>
      <point x="652" y="706" type="line" smooth="yes"/>
      <point x="798" y="706"/>
      <point x="907" y="615"/>
      <point x="907" y="492" type="curve" smooth="yes"/>
      <point x="907" y="279"/>
      <point x="705" y="97"/>
      <point x="468" y="97" type="curve" smooth="yes"/>
      <point x="299" y="97"/>
      <point x="184" y="192"/>
      <point x="184" y="332" type="curve" smooth="yes"/>
      <point x="184" y="357"/>
      <point x="187" y="383"/>
      <point x="193" y="407" type="curve"/>
      <point x="68" y="400" type="line"/>
      <point x="58" y="361"/>
      <point x="53" y="325"/>
      <point x="53" y="292" type="curve" smooth="yes"/>
      <point x="53" y="102"/>
      <point x="210" y="-20"/>
    </contour>
  </outline>
</glyph>
<glyph name="four" format="2">
  <advance width="1229"/>
  <unicode hex="0034"/>
  <outline>
    <contour>
      <point x="721" y="0" type="line"/>
      <point x="813" y="401" type="line"/>
      <point x="1042" y="401" type="line"/>
      <point x="1068" y="516" type="line"/>
      <point x="839" y="516" type="line"/>
      <point x="1053" y="1447" type="line"/>
      <point x="925" y="1447" type="line"/>
      <point x="29" y="478" type="line"/>
      <point x="11" y="401" type="line"/>
      <point x="678" y="401" type="line"/>
      <point x="586" y="0" type="line"/>
    </contour>
    <contour>
      <point x="703" y="516" type="line"/>
      <point x="194" y="516" type="line"/>
      <point x="869" y="1238" type="line"/>
    </contour>
  </outline>
</glyph>
<glyph name="five" format="2">
  <advance width="1229"/>
  <unicode hex="0035"/>
  <outline>
    <contour>
      <point x="462" y="-20" type="curve" smooth="yes"/>
      <point x="776" y="-20"/>
      <point x="1060" y="265"/>
      <point x="1060" y="580" type="curve" smooth="yes"/>
      <point x="1060" y="796"/>
      <point x="922" y="934"/>
      <point x="706" y="934" type="curve" smooth="yes"/>
      <point x="584" y="934"/>
      <point x="477" y="894"/>
      <point x="386" y="815" type="curve"/>
      <point x="591" y="1328" type="line"/>
      <point x="1181" y="1328" type="line"/>
      <point x="1208" y="1447" type="line"/>
      <point x="512" y="1447" type="line"/>
      <point x="223" y="725" type="line"/>
      <point x="327" y="655" type="line"/>
      <point x="410" y="754"/>
      <point x="546" y="819"/>
      <point x="673" y="819" type="curve" smooth="yes"/>
      <point x="831" y="819"/>
      <point x="923" y="729"/>
      <point x="923" y="573" type="curve" smooth="yes"/>
      <point x="923" y="325"/>
      <point x="713" y="98"/>
      <point x="485" y="98" type="curve" smooth="yes"/>
      <point x="302" y="98"/>
      <point x="221" y="195"/>
      <point x="221" y="412" type="curve"/>
      <point x="91" y="375" type="line"/>
      <point x="91" y="135"/>
      <point x="237" y="-20"/>
    </contour>
  </outline>
</glyph>
<glyph name="six" format="2">
  <advance width="1229"/>
  <unicode hex="0036"/>
  <outline>
    <contour>
      <point x="468" y="-20" type="curve" smooth="yes"/>
      <point x="768" y="-20"/>
      <point x="1054" y="260"/>
      <point x="1054" y="562" type="curve" smooth="yes"/>
      <point x="1054" y="812"/>
      <point x="869" y="911"/>
      <point x="666" y="911" type="curve" smooth="yes"/>
      <point x="618" y="911"/>
      <point x="555" y="899"/>
      <point x="504" y="873" type="curve"/>
      <point x="972" y="1447" type="line"/>
      <point x="822" y="1447" type="line"/>
      <point x="229" y="709" type="line" smooth="yes"/>
      <point x="147" y="607"/>
      <point x="94" y="482"/>
      <point x="94" y="350" type="curve" smooth="yes"/>
      <point x="94" y="132"/>
      <point x="250" y="-20"/>
    </contour>
    <contour>
      <point x="489" y="102" type="curve" smooth="yes"/>
      <point x="333" y="102"/>
      <point x="228" y="215"/>
      <point x="228" y="369" type="curve" smooth="yes"/>
      <point x="228" y="595"/>
      <point x="432" y="799"/>
      <point x="658" y="799" type="curve" smooth="yes"/>
      <point x="811" y="799"/>
      <point x="921" y="702"/>
      <point x="921" y="545" type="curve" smooth="yes"/>
      <point x="921" y="327"/>
      <point x="710" y="102"/>
    </contour>
  </outline>
</glyph>
<glyph name="seven" format="2">
  <advance width="1229"/>
  <unicode hex="0037"/>
  <outline>
    <contour>
      <point x="317.44" y="0" type="line"/>
      <point x="1256.45" y="1379.33" type="line"/>
      <point x="1270.78" y="1446.91" type="line"/>
      <point x="327.68" y="1446.91" type="line"/>
      <point x="300.032" y="1327.1" type="line"/>
      <point x="1085.44" y="1327.1" type="line"/>
      <point x="161.792" y="0" type="line"/>
    </contour>
  </outline>
</glyph>
<glyph name="eight" format="2">
  <advance width="1229"/>
  <unicode hex="0038"/>
  <outline>
    <contour>
      <point x="471" y="-20" type="curve" smooth="yes"/>
      <point x="770" y="-20"/>
      <point x="1047" y="173"/>
      <point x="1047" y="493" type="curve" smooth="yes"/>
      <point x="1047" y="627"/>
      <point x="984" y="723"/>
      <point x="861" y="777" type="curve"/>
      <point x="1023" y="857"/>
      <point x="1135" y="1002"/>
      <point x="1135" y="1188" type="curve" smooth="yes"/>
      <point x="1135" y="1376"/>
      <point x="977" y="1468"/>
      <point x="805" y="1468" type="curve" smooth="yes"/>
      <point x="553" y="1468"/>
      <point x="312" y="1285"/>
      <point x="312" y="1020" type="curve" smooth="yes"/>
      <point x="312" y="918"/>
      <point x="352" y="837"/>
      <point x="441" y="783" type="curve"/>
      <point x="231" y="701"/>
      <point x="73" y="529"/>
      <point x="73" y="295" type="curve" smooth="yes"/>
      <point x="73" y="69"/>
      <point x="272" y="-20"/>
    </contour>
    <contour>
      <point x="659" y="819" type="curve" smooth="yes"/>
      <point x="536" y="819"/>
      <point x="445" y="883"/>
      <point x="445" y="1014" type="curve" smooth="yes"/>
      <point x="445" y="1198"/>
      <point x="610" y="1350"/>
      <point x="792" y="1350" type="curve" smooth="yes"/>
      <point x="910" y="1350"/>
      <point x="1004" y="1283"/>
      <point x="1004" y="1157" type="curve" smooth="yes"/>
      <point x="1004" y="974"/>
      <point x="841" y="819"/>
    </contour>
    <contour>
      <point x="484" y="92" type="curve" smooth="yes"/>
      <point x="344" y="92"/>
      <point x="210" y="165"/>
      <point x="210" y="321" type="curve" smooth="yes"/>
      <point x="210" y="554"/>
      <point x="417" y="721"/>
      <point x="642" y="721" type="curve" smooth="yes"/>
      <point x="780" y="721"/>
      <point x="912" y="644"/>
      <point x="912" y="492" type="curve" smooth="yes"/>
      <point x="912" y="263"/>
      <point x="705" y="92"/>
    </contour>
  </outline>
</glyph>
<glyph name="nine" format="2">
  <advance width="1230"/>
  <unicode hex="0039"/>
  <outline>
    <contour>
      <point x="804.032" y="1468.48" type="curve" smooth="yes"/>
      <point x="504" y="1468.48"/>
      <point x="218.304" y="1187.9"/>
      <point x="218.304" y="885.824" type="curve" smooth="yes"/>
      <point x="218.304" y="635.968"/>
      <point x="403.648" y="536.64"/>
      <point x="606.4" y="536.64" type="curve" smooth="yes"/>
      <point x="654.528" y="536.64"/>
      <point x="716.992" y="548.928"/>
      <point x="768.192" y="574.528" type="curve"/>
      <point x="300.224" y="1.08792" type="line"/>
      <point x="449.728" y="1.08792" type="line"/>
      <point x="1042.62" y="739.392" type="line" smooth="yes"/>
      <point x="1124.54" y="841.792"/>
      <point x="1177.79" y="965.696"/>
      <point x="1177.79" y="1097.79" type="curve" smooth="yes"/>
      <point x="1177.79" y="1315.9"/>
      <point x="1022.14" y="1468.48"/>
    </contour>
    <contour>
      <point x="782.528" y="1345.6" type="curve" smooth="yes"/>
      <point x="938.176" y="1345.6"/>
      <point x="1043.65" y="1232.96"/>
      <point x="1043.65" y="1079.36" type="curve" smooth="yes"/>
      <point x="1043.65" y="853.056"/>
      <point x="839.872" y="649.28"/>
      <point x="613.568" y="649.28" type="curve" smooth="yes"/>
      <point x="460.992" y="649.28"/>
      <point x="351.424" y="746.56"/>
      <point x="351.424" y="903.232" type="curve" smooth="yes"/>
      <point x="351.424" y="1121.34"/>
      <point x="561.344" y="1345.6"/>
    </contour>
  </outline>
</glyph>
<glyph name="colon" format="2">
  <advance width="614"/>
  <unicode hex="003A"/>
  <outline>
    <contour>
      <point x="463.688" y="794.624" type="line"/>
      <point x="505.672" y="975.872" type="line"/>
      <point x="322.376" y="975.872" type="line"/>
      <point x="280.392" y="794.624" type="line"/>
    </contour>
    <contour>
      <point x="281.416" y="0" type="line"/>
      <point x="323.4" y="181.248" type="line"/>
      <point x="141.128" y="181.248" type="line"/>
      <point x="99.144" y="0" type="line"/>
    </contour>
  </outline>
</glyph>
<glyph name="semicolon" format="2">
  <advance width="614"/>
  <unicode hex="003B"/>
  <outline>
    <contour>
      <point x="464" y="795" type="line"/>
      <point x="506" y="976" type="line"/>
      <point x="323" y="976" type="line"/>
      <point x="280" y="795" type="line"/>
    </contour>
    <contour>
      <point x="42" y="-231" type="line"/>
      <point x="359" y="267" type="line"/>
      <point x="180" y="267" type="line"/>
      <point x="-38" y="-231" type="line"/>
    </contour>
  </outline>
</glyph>
<glyph name="less" format="2">
  <advance width="1251"/>
  <unicode hex="003C"/>
  <outline>
    <contour>
      <point x="1028" y="178" type="line"/>
      <point x="1090" y="283" type="line"/>
      <point x="347" y="690" type="line"/>
      <point x="1090" y="1096" type="line"/>
      <point x="1028" y="1201" type="line"/>
      <point x="128" y="690" type="line"/>
    </contour>
  </outline>
</glyph>
<glyph name="equal" format="2">
  <advance width="1303"/>
  <unicode hex="003D"/>
  <outline>
    <contour>
      <point x="1032" y="799" type="line"/>
      <point x="1032" y="922" type="line"/>
      <point x="270" y="922" type="line"/>
      <point x="270" y="799" type="line"/>
    </contour>
    <contour>
      <point x="1032" y="454" type="line"/>
      <point x="1032" y="575" type="line"/>
      <point x="270" y="575" type="line"/>
      <point x="270" y="454" type="line"/>
    </contour>
  </outline>
</glyph>
<glyph name="greater" format="2">
  <advance width="1249"/>
  <unicode hex="003E"/>
  <outline>
    <contour>
      <point x="222" y="178" type="line"/>
      <point x="1123" y="690" type="line"/>
      <point x="222" y="1201" type="line"/>
      <point x="162" y="1096" type="line"/>
      <point x="903" y="690" type="line"/>
      <point x="162" y="283" type="line"/>
    </contour>
  </outline>
</glyph>
<glyph name="question" format="2">
  <advance width="1064"/>
  <unicode hex="003F"/>
  <outline>
    <contour>
      <point x="555" y="377" type="line"/>
      <point x="584" y="503" type="line" smooth="yes"/>
      <point x="628" y="700"/>
      <point x="661" y="730"/>
      <point x="809" y="799" type="curve" smooth="yes"/>
      <point x="978" y="878"/>
      <point x="1079" y="992"/>
      <point x="1079" y="1185" type="curve" smooth="yes"/>
      <point x="1079" y="1385"/>
      <point x="903" y="1468"/>
      <point x="727" y="1468" type="curve" smooth="yes"/>
      <point x="512" y="1468"/>
      <point x="300" y="1314"/>
      <point x="251" y="1098" type="curve"/>
      <point x="380" y="1098" type="line"/>
      <point x="418" y="1251"/>
      <point x="577" y="1350"/>
      <point x="730" y="1350" type="curve" smooth="yes"/>
      <point x="841" y="1350"/>
      <point x="955" y="1310"/>
      <point x="955" y="1180" type="curve" smooth="yes"/>
      <point x="955" y="1036"/>
      <point x="854" y="938"/>
      <point x="731" y="878" type="curve" smooth="yes"/>
      <point x="553" y="791"/>
      <point x="510" y="733"/>
      <point x="465" y="524" type="curve" smooth="yes"/>
      <point x="433" y="377" type="line"/>
    </contour>
    <contour>
      <point x="502" y="0" type="line"/>
      <point x="544" y="181" type="line"/>
      <point x="360" y="181" type="line"/>
      <point x="318" y="0" type="line"/>
    </contour>
  </outline>
</glyph>
<glyph name="at" format="2">
  <advance width="2123"/>
  <unicode hex="0040"/>
  <outline>
    <contour>
      <point x="863" y="-357" type="curve" smooth="yes"/>
      <point x="969" y="-357"/>
      <point x="1075" y="-340"/>
      <point x="1177" y="-307" type="curve"/>
      <point x="1143" y="-176" type="line"/>
      <point x="1056" y="-204"/>
      <point x="964" y="-217"/>
      <point x="873" y="-217" type="curve" smooth="yes"/>
      <point x="539" y="-217"/>
      <point x="270" y="-37"/>
      <point x="270" y="319" type="curve" smooth="yes"/>
      <point x="270" y="849"/>
      <point x="739" y="1336"/>
      <point x="1274" y="1336" type="curve" smooth="yes"/>
      <point x="1617" y="1336"/>
      <point x="1871" y="1138"/>
      <point x="1871" y="781" type="curve" smooth="yes"/>
      <point x="1871" y="515"/>
      <point x="1721" y="70"/>
      <point x="1403" y="70" type="curve" smooth="yes"/>
      <point x="1333" y="70"/>
      <point x="1291" y="121"/>
      <point x="1291" y="208" type="curve" smooth="yes"/>
      <point x="1291" y="273"/>
      <point x="1304" y="304"/>
      <point x="1348" y="398" type="curve" smooth="yes"/>
      <point x="1626" y="1000" type="line"/>
      <point x="1486" y="1007" type="line"/>
      <point x="1414" y="838" type="line"/>
      <point x="1414" y="982"/>
      <point x="1317" y="1057"/>
      <point x="1179" y="1057" type="curve" smooth="yes"/>
      <point x="863" y="1057"/>
      <point x="569" y="633"/>
      <point x="569" y="339" type="curve" smooth="yes"/>
      <point x="569" y="178"/>
      <point x="651" y="73"/>
      <point x="819" y="73" type="curve" smooth="yes"/>
      <point x="958" y="73"/>
      <point x="1092" y="147"/>
      <point x="1185" y="248" type="curve"/>
      <point x="1140" y="87"/>
      <point x="1235" y="-49"/>
      <point x="1393" y="-49" type="curve" smooth="yes"/>
      <point x="1791" y="-49"/>
      <point x="2003" y="453"/>
      <point x="2003" y="792" type="curve" smooth="yes"/>
      <point x="2003" y="1216"/>
      <point x="1700" y="1466"/>
      <point x="1290" y="1466" type="curve" smooth="yes"/>
      <point x="672" y="1466"/>
      <point x="137" y="926"/>
      <point x="137" y="304" type="curve" smooth="yes"/>
      <point x="137" y="-125"/>
      <point x="456" y="-357"/>
    </contour>
    <contour>
      <point x="849" y="212" type="curve" smooth="yes"/>
      <point x="751" y="212"/>
      <point x="693" y="252"/>
      <point x="693" y="354" type="curve" smooth="yes"/>
      <point x="693" y="587"/>
      <point x="938" y="945"/>
      <point x="1186" y="945" type="curve" smooth="yes"/>
      <point x="1280" y="945"/>
      <point x="1346" y="875"/>
      <point x="1346" y="777" type="curve" smooth="yes"/>
      <point x="1346" y="537"/>
      <point x="1096" y="212"/>
    </contour>
  </outline>
</glyph>
<glyph name="A" format="2">
  <advance width="1331"/>
  <unicode hex="0041"/>
  <anchor x="841" y="1620" name="top"/>
  <anchor x="1135" y="0" name="ogonek"/>
  <anchor x="546" y="-120" name="bottom"/>
  <outline>
    <contour>
      <point x="1135" y="0" type="line"/>
      <point x="936" y="1448" type="line"/>
      <point x="828" y="1448" type="line"/>
      <point x="-42" y="0" type="line"/>
      <point x="113" y="0" type="line"/>
      <point x="841" y="1243" type="line"/>
      <point x="988" y="0" type="line"/>
    </contour>
    <contour>
      <point x="964" y="445" type="line"/>
      <point x="340" y="445" type="line"/>
      <point x="264" y="319" type="line"/>
      <point x="982" y="319" type="line"/>
    </contour>
  </outline>
  <guideline angle="90" name="vertical" x="841" y="0"/>
</glyph>
<glyph name="B" format="2">
  <advance width="1276"/>
  <unicode hex="0042"/>
  <outline>
    <contour>
      <point x="572" y="0" type="line" smooth="yes"/>
      <point x="871" y="0"/>
      <point x="1123" y="154"/>
      <point x="1123" y="478" type="curve" smooth="yes"/>
      <point x="1123" y="613"/>
      <point x="1053" y="700"/>
      <point x="934" y="757" type="curve"/>
      <point x="1098" y="842"/>
      <point x="1214" y="978"/>
      <point x="1214" y="1170" type="curve" smooth="yes"/>
      <point x="1214" y="1403"/>
      <point x="963" y="1448"/>
      <point x="779" y="1448" type="curve" smooth="yes"/>
      <point x="445" y="1448" type="line"/>
      <point x="112" y="0" type="line"/>
    </contour>
    <contour>
      <point x="665" y="798" type="curve" smooth="yes"/>
      <point x="431" y="798" type="line"/>
      <point x="552" y="1323" type="line"/>
      <point x="803" y="1323" type="line" smooth="yes"/>
      <point x="916" y="1323"/>
      <point x="1061" y="1307"/>
      <point x="1061" y="1159" type="curve" smooth="yes"/>
      <point x="1061" y="937"/>
      <point x="876" y="798"/>
    </contour>
    <contour>
      <point x="596" y="128" type="curve" smooth="yes"/>
      <point x="278" y="128" type="line"/>
      <point x="403" y="671" type="line"/>
      <point x="737" y="671" type="line" smooth="yes"/>
      <point x="866" y="671"/>
      <point x="989" y="640"/>
      <point x="989" y="485" type="curve" smooth="yes"/>
      <point x="989" y="251"/>
      <point x="824" y="128"/>
    </contour>
  </outline>
</glyph>
<glyph name="C" format="2">
  <advance width="1459"/>
  <unicode hex="0043"/>
  <anchor x="993" y="1620" name="top"/>
  <anchor x="646" y="0" name="cedilla"/>
  <outline>
    <contour>
      <point x="646" y="-20" type="curve" smooth="yes"/>
      <point x="924" y="-20"/>
      <point x="1150" y="130"/>
      <point x="1303" y="354" type="curve"/>
      <point x="1187" y="419" type="line"/>
      <point x="1069" y="223"/>
      <point x="893" y="116"/>
      <point x="664" y="116" type="curve" smooth="yes"/>
      <point x="409" y="116"/>
      <point x="282" y="249"/>
      <point x="282" y="503" type="curve" smooth="yes"/>
      <point x="282" y="885"/>
      <point x="514" y="1339"/>
      <point x="943" y="1339" type="curve" smooth="yes"/>
      <point x="1139" y="1339"/>
      <point x="1312" y="1256"/>
      <point x="1331" y="1041" type="curve"/>
      <point x="1461" y="1090" type="line"/>
      <point x="1415" y="1349"/>
      <point x="1215" y="1470"/>
      <point x="963" y="1470" type="curve" smooth="yes"/>
      <point x="446" y="1470"/>
      <point x="139" y="961"/>
      <point x="139" y="494" type="curve" smooth="yes"/>
      <point x="139" y="170"/>
      <point x="319" y="-20"/>
    </contour>
  </outline>
  <guideline angle="90" name="vertical" x="993" y="0"/>
</glyph>
<glyph name="D" format="2">
  <advance width="1449"/>
  <unicode hex="0044"/>
  <anchor x="896" y="1620" name="top"/>
  <outline>
    <contour>
      <point x="472.064" y="0" type="line" smooth="yes"/>
      <point x="1030.14" y="0"/>
      <point x="1385.47" y="404.48"/>
      <point x="1385.47" y="937.984" type="curve" smooth="yes"/>
      <point x="1385.47" y="1335.3"/>
      <point x="1099.78" y="1446.91"/>
      <point x="751.616" y="1446.91" type="curve" smooth="yes"/>
      <point x="445.44" y="1446.91" type="line"/>
      <point x="111.616" y="0" type="line"/>
    </contour>
    <contour>
      <point x="466.944" y="126.976" type="curve" smooth="yes"/>
      <point x="281.6" y="126.976" type="line"/>
      <point x="558.08" y="1323.01" type="line"/>
      <point x="775.168" y="1323.01" type="line" smooth="yes"/>
      <point x="1041.41" y="1323.01"/>
      <point x="1247.23" y="1221.63"/>
      <point x="1247.23" y="926.72" type="curve" smooth="yes"/>
      <point x="1247.23" y="484.352"/>
      <point x="924.672" y="126.976"/>
    </contour>
  </outline>
  <guideline angle="90" name="vertical" x="896" y="0"/>
</glyph>
<glyph name="E" format="2">
  <advance width="1278"/>
  <unicode hex="0045"/>
  <anchor x="871" y="1620" name="top"/>
  <anchor x="1043" y="0" name="ogonek"/>
  <anchor x="561" y="-120" name="bottom"/>
  <outline>
    <contour>
      <point x="1043" y="0" type="line"/>
      <point x="1071" y="126" type="line"/>
      <point x="280" y="126" type="line"/>
      <point x="404" y="668" type="line"/>
      <point x="1083" y="668" type="line"/>
      <point x="1110" y="780" type="line"/>
      <point x="433" y="780" type="line"/>
      <point x="558" y="1330" type="line"/>
      <point x="1349" y="1330" type="line"/>
      <point x="1376" y="1448" type="line"/>
      <point x="445" y="1448" type="line"/>
      <point x="112" y="0" type="line"/>
    </contour>
  </outline>
  <guideline angle="90" name="vertical" x="871" y="0"/>
</glyph>
<glyph name="F" format="2">
  <advance width="1228"/>
  <unicode hex="0046"/>
  <outline>
    <contour>
      <point x="252" y="0" type="line"/>
      <point x="404" y="668" type="line"/>
      <point x="1081" y="668" type="line"/>
      <point x="1109" y="780" type="line"/>
      <point x="433" y="780" type="line"/>
      <point x="558" y="1330" type="line"/>
      <point x="1325" y="1330" type="line"/>
      <point x="1353" y="1448" type="line"/>
      <point x="445" y="1448" type="line"/>
      <point x="112" y="0" type="line"/>
    </contour>
  </outline>
</glyph>
<glyph name="G" format="2">
  <advance width="1543"/>
  <unicode hex="0047"/>
  <anchor x="986" y="1620" name="top"/>
  <anchor x="674" y="-120" name="bottom"/>
  <outline>
    <contour>
      <point x="667" y="-20" type="curve" smooth="yes"/>
      <point x="887" y="-20"/>
      <point x="1097" y="89"/>
      <point x="1212" y="280" type="curve"/>
      <point x="1142" y="0" type="line"/>
      <point x="1261" y="0" type="line"/>
      <point x="1426" y="720" type="line"/>
      <point x="865" y="720" type="line"/>
      <point x="840" y="618" type="line"/>
      <point x="1273" y="618" type="line"/>
      <point x="1204" y="333"/>
      <point x="975" y="112"/>
      <point x="674" y="112" type="curve" smooth="yes"/>
      <point x="421" y="112"/>
      <point x="298" y="260"/>
      <point x="298" y="506" type="curve" smooth="yes"/>
      <point x="298" y="893"/>
      <point x="546" y="1335"/>
      <point x="975" y="1335" type="curve" smooth="yes"/>
      <point x="1173" y="1335"/>
      <point x="1305" y="1238"/>
      <point x="1350" y="1042" type="curve"/>
      <point x="1486" y="1086" type="line"/>
      <point x="1429" y="1339"/>
      <point x="1240" y="1470"/>
      <point x="986" y="1470" type="curve" smooth="yes"/>
      <point x="477" y="1470"/>
      <point x="160" y="955"/>
      <point x="160" y="492" type="curve" smooth="yes"/>
      <point x="160" y="167"/>
      <point x="340" y="-20"/>
    </contour>
  </outline>
  <guideline angle="90" name="vertical" x="986" y="0"/>
</glyph>
<glyph name="H" format="2">
  <advance width="1493"/>
  <unicode hex="0048"/>
  <anchor x="942" y="1620" name="top"/>
  <outline>
    <contour>
      <point x="1147" y="0" type="line"/>
      <point x="1481" y="1448" type="line"/>
      <point x="1340" y="1448" type="line"/>
      <point x="1188" y="780" type="line"/>
      <point x="433" y="780" type="line"/>
      <point x="585" y="1448" type="line"/>
      <point x="445" y="1448" type="line"/>
      <point x="112" y="0" type="line"/>
      <point x="252" y="0" type="line"/>
      <point x="404" y="668" type="line"/>
      <point x="1159" y="668" type="line"/>
      <point x="1008" y="0" type="line"/>
    </contour>
  </outline>
  <guideline angle="90" name="vertical" x="942" y="0"/>
</glyph>
<glyph name="I" format="2">
  <advance width="598"/>
  <unicode hex="0049"/>
  <anchor x="522" y="1620" name="top"/>
  <anchor x="254" y="0" name="ogonek"/>
  <outline>
    <contour>
      <point x="252" y="0" type="line"/>
      <point x="585" y="1448" type="line"/>
      <point x="445" y="1448" type="line"/>
      <point x="112" y="0" type="line"/>
    </contour>
  </outline>
  <guideline angle="90" name="vertical" x="522" y="0"/>
</glyph>
<glyph name="J" format="2">
  <advance width="1154"/>
  <unicode hex="004A"/>
  <anchor x="1083" y="1620" name="top"/>
  <outline>
    <contour>
      <point x="426" y="-20" type="curve" smooth="yes"/>
      <point x="792" y="-20"/>
      <point x="897" y="286"/>
      <point x="1002" y="743" type="curve" smooth="yes"/>
      <point x="1164" y="1447" type="line"/>
      <point x="1023" y="1447" type="line"/>
      <point x="804" y="497" type="line" smooth="yes"/>
      <point x="754" y="278"/>
      <point x="650" y="99"/>
      <point x="400" y="99" type="curve" smooth="yes"/>
      <point x="258" y="99"/>
      <point x="195" y="197"/>
      <point x="195" y="330" type="curve" smooth="yes"/>
      <point x="195" y="356"/>
      <point x="197" y="381"/>
      <point x="201" y="407" type="curve"/>
      <point x="65" y="400" type="line"/>
      <point x="60" y="372"/>
      <point x="57" y="346"/>
      <point x="57" y="318" type="curve" smooth="yes"/>
      <point x="57" y="78"/>
      <point x="210" y="-20"/>
    </contour>
  </outline>
  <guideline angle="90" name="vertical" x="1083" y="0"/>
</glyph>
<glyph name="K" format="2">
  <advance width="1486"/>
  <unicode hex="004B"/>
  <anchor x="649" y="-120" name="bottom"/>
  <outline>
    <contour>
      <point x="1258.5" y="0" type="line"/>
      <point x="888.832" y="881.664" type="line"/>
      <point x="1559.55" y="1446.91" type="line"/>
      <point x="1375.23" y="1446.91" type="line"/>
      <point x="357.376" y="579.584" type="line"/>
      <point x="558.08" y="1446.91" type="line"/>
      <point x="417.792" y="1446.91" type="line"/>
      <point x="83.968" y="0" type="line"/>
      <point x="224.256" y="0" type="line"/>
      <point x="318.464" y="403.456" type="line"/>
      <point x="774.144" y="784.384" type="line"/>
      <point x="1097.73" y="0" type="line"/>
    </contour>
  </outline>
</glyph>
<glyph name="L" format="2">
  <advance width="1066"/>
  <unicode hex="004C"/>
  <anchor x="506" y="1620" name="top"/>
  <anchor x="505" y="-120" name="bottom"/>
  <anchor x="833" y="774" name="center"/>
  <outline>
    <contour>
      <point x="871" y="0" type="line"/>
      <point x="899" y="126" type="line"/>
      <point x="280" y="126" type="line"/>
      <point x="585" y="1448" type="line"/>
      <point x="445" y="1448" type="line"/>
      <point x="112" y="0" type="line"/>
    </contour>
  </outline>
  <guideline angle="90" name="vertical" x="506" y="0"/>
</glyph>
<glyph name="M" format="2">
  <advance width="1804"/>
  <unicode hex="004D"/>
  <outline>
    <contour>
      <point x="1435" y="0" type="line"/>
      <point x="1769" y="1447" type="line"/>
      <point x="1533" y="1447" type="line"/>
      <point x="812" y="252" type="line"/>
      <point x="652" y="1447" type="line"/>
      <point x="418" y="1447" type="line"/>
      <point x="84" y="0" type="line"/>
      <point x="225" y="0" type="line"/>
      <point x="536" y="1336" type="line"/>
      <point x="709" y="126" type="line"/>
      <point x="868" y="126" type="line"/>
      <point x="1605" y="1336" type="line"/>
      <point x="1295" y="0" type="line"/>
    </contour>
  </outline>
</glyph>
<glyph name="N" format="2">
  <advance width="1451"/>
  <unicode hex="004E"/>
  <anchor x="940" y="1620" name="top"/>
  <anchor x="631" y="-120" name="bottom"/>
  <outline>
    <contour>
      <point x="1082" y="0" type="line"/>
      <point x="1415" y="1447" type="line"/>
      <point x="1276" y="1447" type="line"/>
      <point x="974" y="144" type="line"/>
      <point x="631" y="1447" type="line"/>
      <point x="418" y="1447" type="line"/>
      <point x="84" y="0" type="line"/>
      <point x="225" y="0" type="line"/>
      <point x="527" y="1305" type="line"/>
      <point x="865" y="0" type="line"/>
    </contour>
  </outline>
  <guideline angle="90" name="vertical" x="940" y="0"/>
</glyph>
<glyph name="O" format="2">
  <advance width="1508"/>
  <unicode hex="004F"/>
  <anchor x="942" y="1620" name="top"/>
  <anchor x="722" y="0" name="ogonek"/>
  <anchor x="1708" y="1447" name="pos"/>
  <outline>
    <contour>
      <point x="643" y="-20" type="curve" smooth="yes"/>
      <point x="1158" y="-20"/>
      <point x="1469" y="481"/>
      <point x="1469" y="949" type="curve" smooth="yes"/>
      <point x="1469" y="1272"/>
      <point x="1291" y="1468"/>
      <point x="964" y="1468" type="curve" smooth="yes"/>
      <point x="451" y="1468"/>
      <point x="138" y="963"/>
      <point x="138" y="497" type="curve" smooth="yes"/>
      <point x="138" y="175"/>
      <point x="315" y="-20"/>
    </contour>
    <contour>
      <point x="660" y="111" type="curve" smooth="yes"/>
      <point x="418" y="111"/>
      <point x="282" y="257"/>
      <point x="282" y="499" type="curve" smooth="yes"/>
      <point x="282" y="886"/>
      <point x="503" y="1335"/>
      <point x="942" y="1335" type="curve" smooth="yes"/>
      <point x="1200" y="1335"/>
      <point x="1328" y="1187"/>
      <point x="1328" y="935" type="curve" smooth="yes"/>
      <point x="1328" y="553"/>
      <point x="1091" y="111"/>
    </contour>
  </outline>
  <guideline angle="90" name="vertical" x="942" y="0"/>
</glyph>
<glyph name="P" format="2">
  <advance width="1184"/>
  <unicode hex="0050"/>
  <outline>
    <contour>
      <point x="252" y="0" type="line"/>
      <point x="404" y="665" type="line"/>
      <point x="598" y="665" type="line" smooth="yes"/>
      <point x="907" y="665"/>
      <point x="1212" y="790"/>
      <point x="1212" y="1147" type="curve" smooth="yes"/>
      <point x="1212" y="1363"/>
      <point x="1024" y="1447"/>
      <point x="835" y="1447" type="curve" smooth="yes"/>
      <point x="445" y="1447" type="line"/>
      <point x="112" y="0" type="line"/>
    </contour>
    <contour>
      <point x="685" y="786" type="curve" smooth="yes"/>
      <point x="432" y="786" type="line"/>
      <point x="558" y="1325" type="line"/>
      <point x="819" y="1325" type="line" smooth="yes"/>
      <point x="945" y="1325"/>
      <point x="1075" y="1288"/>
      <point x="1075" y="1137" type="curve" smooth="yes"/>
      <point x="1075" y="912"/>
      <point x="897" y="786"/>
    </contour>
  </outline>
</glyph>
<glyph name="Q" format="2">
  <advance width="1591"/>
  <unicode hex="0051"/>
  <outline>
    <contour>
      <point x="1238" y="-95" type="line"/>
      <point x="1343" y="-4" type="line"/>
      <point x="1182" y="208" type="line"/>
      <point x="1362" y="388"/>
      <point x="1469" y="697"/>
      <point x="1469" y="949" type="curve" smooth="yes"/>
      <point x="1469" y="1272"/>
      <point x="1291" y="1469"/>
      <point x="964" y="1469" type="curve" smooth="yes"/>
      <point x="456" y="1469"/>
      <point x="138" y="970"/>
      <point x="138" y="497" type="curve" smooth="yes"/>
      <point x="138" y="174"/>
      <point x="315" y="-20"/>
      <point x="643" y="-20" type="curve" smooth="yes"/>
      <point x="804" y="-20"/>
      <point x="951" y="19"/>
      <point x="1079" y="117" type="curve"/>
    </contour>
    <contour>
      <point x="662" y="110" type="curve" smooth="yes"/>
      <point x="416" y="110"/>
      <point x="284" y="256"/>
      <point x="284" y="498" type="curve" smooth="yes"/>
      <point x="284" y="883"/>
      <point x="506" y="1337"/>
      <point x="944" y="1337" type="curve" smooth="yes"/>
      <point x="1201" y="1337"/>
      <point x="1326" y="1187"/>
      <point x="1326" y="938" type="curve" smooth="yes"/>
      <point x="1326" y="730"/>
      <point x="1240" y="473"/>
      <point x="1104" y="314" type="curve"/>
      <point x="956" y="506" type="line"/>
      <point x="855" y="413" type="line"/>
      <point x="1000" y="218" type="line"/>
      <point x="899" y="144"/>
      <point x="786" y="110"/>
    </contour>
  </outline>
</glyph>
<glyph name="R" format="2">
  <advance width="1250"/>
  <unicode hex="0052"/>
  <anchor x="802" y="1620" name="top"/>
  <anchor x="590" y="-120" name="bottom"/>
  <outline>
    <contour>
      <point x="1029" y="-2" type="line"/>
      <point x="802" y="673" type="line"/>
      <point x="1028" y="711"/>
      <point x="1208" y="898"/>
      <point x="1208" y="1134" type="curve" smooth="yes"/>
      <point x="1208" y="1343"/>
      <point x="1031" y="1445"/>
      <point x="841" y="1445" type="curve" smooth="yes"/>
      <point x="444" y="1445" type="line"/>
      <point x="109" y="-2" type="line"/>
      <point x="249" y="-2" type="line"/>
      <point x="402" y="654" type="line"/>
      <point x="669" y="654" type="line"/>
      <point x="879" y="-2" type="line"/>
    </contour>
    <contour>
      <point x="732" y="785" type="curve" smooth="yes"/>
      <point x="433" y="785" type="line"/>
      <point x="557" y="1322" type="line"/>
      <point x="825" y="1322" type="line" smooth="yes"/>
      <point x="949" y="1322"/>
      <point x="1074" y="1271"/>
      <point x="1074" y="1128" type="curve" smooth="yes"/>
      <point x="1074" y="955"/>
      <point x="907" y="785"/>
    </contour>
  </outline>
  <guideline angle="90" name="vertical" x="802" y="0"/>
</glyph>
<glyph name="S" format="2">
  <advance width="1142"/>
  <unicode hex="0053"/>
  <anchor x="742" y="1620" name="top"/>
  <anchor x="510" y="0" name="cedilla"/>
  <anchor x="459" y="-120" name="bottom"/>
  <outline>
    <contour>
      <point x="493.568" y="-16.384" type="curve" smooth="yes"/>
      <point x="755.712" y="-16.384"/>
      <point x="1004.54" y="165.888"/>
      <point x="1004.54" y="443.392" type="curve" smooth="yes"/>
      <point x="1004.54" y="834.56"/>
      <point x="463.872" y="762.88"/>
      <point x="463.872" y="1061.89" type="curve" smooth="yes"/>
      <point x="463.872" y="1233.92"/>
      <point x="626.688" y="1344.51"/>
      <point x="786.432" y="1344.51" type="curve" smooth="yes"/>
      <point x="893.952" y="1344.51"/>
      <point x="984.064" y="1290.24"/>
      <point x="1020.93" y="1186.82" type="curve"/>
      <point x="1134.59" y="1244.16" type="line"/>
      <point x="1080.32" y="1394.69"/>
      <point x="945.152" y="1468.42"/>
      <point x="790.528" y="1468.42" type="curve" smooth="yes"/>
      <point x="549.888" y="1468.42"/>
      <point x="324.608" y="1290.24"/>
      <point x="324.608" y="1039.36" type="curve" smooth="yes"/>
      <point x="324.608" y="669.696"/>
      <point x="865.28" y="733.184"/>
      <point x="865.28" y="416.768" type="curve" smooth="yes"/>
      <point x="865.28" y="212.992"/>
      <point x="680.96" y="112.64"/>
      <point x="497.664" y="112.64" type="curve" smooth="yes"/>
      <point x="316.416" y="112.64"/>
      <point x="199.68" y="215.04"/>
      <point x="199.68" y="394.24" type="curve"/>
      <point x="64.512" y="366.592" type="line"/>
      <point x="64.512" y="116.736"/>
      <point x="260.096" y="-16.384"/>
    </contour>
  </outline>
  <guideline angle="90" name="vertical" x="742" y="0"/>
</glyph>
<glyph name="T" format="2">
  <advance width="1096"/>
  <unicode hex="0054"/>
  <anchor x="683" y="1620" name="top"/>
  <anchor x="327" y="0" name="cedilla"/>
  <anchor x="281" y="-120" name="bottom"/>
  <outline>
    <contour>
      <point x="403" y="0" type="line"/>
      <point x="711" y="1337" type="line"/>
      <point x="1207" y="1337" type="line"/>
      <point x="1233" y="1448" type="line"/>
      <point x="98" y="1448" type="line"/>
      <point x="72" y="1337" type="line"/>
      <point x="569" y="1337" type="line"/>
      <point x="261" y="0" type="line"/>
    </contour>
  </outline>
  <guideline angle="90" name="vertical" x="683" y="0"/>
</glyph>
<glyph name="U" format="2">
  <advance width="1386"/>
  <unicode hex="0055"/>
  <anchor x="869" y="1620" name="top"/>
  <anchor x="661" y="0" name="ogonek"/>
  <anchor x="1650" y="1447" name="pos"/>
  <anchor x="545" y="-120" name="bottom"/>
  <outline>
    <contour>
      <point x="580.608" y="-20.48" type="curve" smooth="yes"/>
      <point x="932.864" y="-20.48"/>
      <point x="1128.45" y="243.712"/>
      <point x="1201.15" y="560.128" type="curve" smooth="yes"/>
      <point x="1404.93" y="1446.91" type="line"/>
      <point x="1264.64" y="1446.91" type="line"/>
      <point x="1063.94" y="578.56" type="line" smooth="yes"/>
      <point x="1006.59" y="328.704"/>
      <point x="879.616" y="109.568"/>
      <point x="587.776" y="109.568" type="curve" smooth="yes"/>
      <point x="408.576" y="109.568"/>
      <point x="326.656" y="194.56"/>
      <point x="326.656" y="373.76" type="curve" smooth="yes"/>
      <point x="326.656" y="448.512"/>
      <point x="368.64" y="638.976"/>
      <point x="399.36" y="770.048" type="curve" smooth="yes"/>
      <point x="556.032" y="1446.91" type="line"/>
      <point x="415.744" y="1446.91" type="line"/>
      <point x="256" y="759.808" type="line" smooth="yes"/>
      <point x="225.28" y="628.736"/>
      <point x="184.32" y="439.296"/>
      <point x="184.32" y="364.544" type="curve" smooth="yes"/>
      <point x="184.32" y="112.64"/>
      <point x="332.8" y="-20.48"/>
    </contour>
  </outline>
  <guideline angle="90" name="vertical" x="869" y="0"/>
</glyph>
<glyph name="V" format="2">
  <advance width="1315"/>
  <unicode hex="0056"/>
  <outline>
    <contour>
      <point x="603.136" y="0" type="line"/>
      <point x="1471.49" y="1446.91" type="line"/>
      <point x="1325.06" y="1446.91" type="line"/>
      <point x="576.512" y="172.032" type="line"/>
      <point x="417.792" y="1446.91" type="line"/>
      <point x="272.384" y="1446.91" type="line"/>
      <point x="476.16" y="0" type="line"/>
    </contour>
  </outline>
</glyph>
<glyph name="W" format="2">
  <advance width="2018"/>
  <unicode hex="0057"/>
  <anchor x="1196" y="1620" name="top"/>
  <outline>
    <contour>
      <point x="1362" y="0" type="line"/>
      <point x="2098" y="1447" type="line"/>
      <point x="1955" y="1447" type="line"/>
      <point x="1308" y="160" type="line"/>
      <point x="1233" y="1447" type="line"/>
      <point x="1119" y="1447" type="line"/>
      <point x="453" y="160" type="line"/>
      <point x="396" y="1447" type="line"/>
      <point x="255" y="1447" type="line"/>
      <point x="322" y="0" type="line"/>
      <point x="488" y="0" type="line"/>
      <point x="1124" y="1217" type="line"/>
      <point x="1196" y="0" type="line"/>
    </contour>
  </outline>
  <guideline angle="90" name="vertical" x="1196" y="0"/>
</glyph>
<glyph name="X" format="2">
  <advance width="1202"/>
  <unicode hex="0058"/>
  <outline>
    <contour>
      <point x="1026" y="0" type="line"/>
      <point x="719" y="724" type="line"/>
      <point x="1361" y="1447" type="line"/>
      <point x="1196" y="1447" type="line"/>
      <point x="667" y="836" type="line"/>
      <point x="425" y="1447" type="line"/>
      <point x="263" y="1447" type="line"/>
      <point x="569" y="724" type="line"/>
      <point x="-76" y="0" type="line"/>
      <point x="93" y="0" type="line"/>
      <point x="619" y="600" type="line"/>
      <point x="869" y="0" type="line"/>
    </contour>
  </outline>
</glyph>
<glyph name="Y" format="2">
  <advance width="1363"/>
  <unicode hex="0059"/>
  <anchor x="848" y="1620" name="top"/>
  <anchor x="534" y="-120" name="bottom"/>
  <outline>
    <contour>
      <point x="633" y="0" type="line"/>
      <point x="765" y="566" type="line"/>
      <point x="1508" y="1447" type="line"/>
      <point x="1346" y="1447" type="line"/>
      <point x="724" y="711" type="line"/>
      <point x="449" y="1447" type="line"/>
      <point x="291" y="1447" type="line"/>
      <point x="630" y="566" type="line"/>
      <point x="499" y="0" type="line"/>
    </contour>
  </outline>
  <guideline angle="90" name="vertical" x="848" y="0"/>
</glyph>
<glyph name="Z" format="2">
  <advance width="1319"/>
  <unicode hex="005A"/>
  <anchor x="876" y="1620" name="top"/>
  <outline>
    <contour>
      <point x="1087.49" y="0" type="line"/>
      <point x="1118.21" y="117.976" type="line"/>
      <point x="189.44" y="117.976" type="line"/>
      <point x="1395.71" y="1327.08" type="line"/>
      <point x="1421.31" y="1447.91" type="line"/>
      <point x="364.544" y="1447.91" type="line"/>
      <point x="336.896" y="1330.15" type="line"/>
      <point x="1221.63" y="1330.15" type="line"/>
      <point x="8.19196" y="104.664" type="line"/>
      <point x="-14.336" y="0" type="line"/>
    </contour>
  </outline>
  <guideline angle="90" name="vertical" x="876" y="0"/>
</glyph>
<glyph name="bracketleft" format="2">
  <advance width="657"/>
  <unicode hex="005B"/>
  <outline>
    <contour>
      <point x="437.248" y="-80.896" type="line"/>
      <point x="455.68" y="-3.072" type="line"/>
      <point x="214.016" y="-3.072" type="line"/>
      <point x="548.864" y="1449.98" type="line"/>
      <point x="790.528" y="1449.98" type="line"/>
      <point x="806.912" y="1525.76" type="line"/>
      <point x="453.632" y="1525.76" type="line"/>
      <point x="82.944" y="-80.896" type="line"/>
    </contour>
  </outline>
</glyph>
<glyph name="backslash" format="2">
  <advance width="961"/>
  <unicode hex="005C"/>
  <outline>
    <contour>
      <point x="710" y="-441" type="line"/>
      <point x="407" y="1552" type="line"/>
      <point x="269" y="1552" type="line"/>
      <point x="578" y="-441" type="line"/>
    </contour>
  </outline>
</glyph>
<glyph name="bracketright" format="2">
  <advance width="657"/>
  <unicode hex="005D"/>
  <outline>
    <contour>
      <point x="300" y="-81" type="line"/>
      <point x="670" y="1526" type="line"/>
      <point x="317" y="1526" type="line"/>
      <point x="300" y="1450" type="line"/>
      <point x="542" y="1450" type="line"/>
      <point x="207" y="-3" type="line"/>
      <point x="-35" y="-3" type="line"/>
      <point x="-53" y="-81" type="line"/>
    </contour>
  </outline>
</glyph>
<glyph name="asciicircum" format="2">
  <advance width="1010"/>
  <unicode hex="005E"/>
  <outline>
    <contour>
      <point x="944.128" y="868.352" type="line"/>
      <point x="715.776" y="1445.89" type="line"/>
      <point x="228.352" y="868.352" type="line"/>
      <point x="372.736" y="868.352" type="line"/>
      <point x="670.72" y="1218.56" type="line"/>
      <point x="805.888" y="868.352" type="line"/>
    </contour>
  </outline>
</glyph>
<glyph name="underscore" format="2">
  <advance width="1274"/>
  <unicode hex="005F"/>
  <outline>
    <contour>
      <point x="887" y="-102" type="line"/>
      <point x="909" y="-3" type="line"/>
      <point x="128" y="-3" type="line"/>
      <point x="104" y="-102" type="line"/>
    </contour>
  </outline>
</glyph>
<glyph name="grave" format="2">
  <advance width="553"/>
  <unicode hex="0060"/>
  <outline>
    <contour>
      <point x="607" y="1192" type="line"/>
      <point x="451" y="1487" type="line"/>
      <point x="282" y="1487" type="line"/>
      <point x="484" y="1192" type="line"/>
    </contour>
  </outline>
</glyph>
<glyph name="a" format="2">
  <advance width="1163"/>
  <unicode hex="0061"/>
  <anchor x="635" y="1192" name="top"/>
  <anchor x="872" y="0" name="ogonek"/>
  <anchor x="405" y="-120" name="bottom"/>
  <outline>
    <contour>
      <point x="442.656" y="97.28" type="curve" smooth="yes"/>
      <point x="278.816" y="97.28"/>
      <point x="215.328" y="209.92"/>
      <point x="215.328" y="360.448" type="curve" smooth="yes"/>
      <point x="215.328" y="613.376"/>
      <point x="372" y="963.584"/>
      <point x="664.864" y="963.584" type="curve" smooth="yes"/>
      <point x="827.68" y="963.584"/>
      <point x="892.192" y="855.04"/>
      <point x="892.192" y="704.512" type="curve" smooth="yes"/>
      <point x="892.192" y="450.56"/>
      <point x="738.592" y="97.28"/>
    </contour>
    <contour>
      <point x="404.768" y="-20.48" type="curve" smooth="yes"/>
      <point x="549.483" y="-20.48"/>
      <point x="703.694" y="50.916"/>
      <point x="788.794" y="168.203" type="curve" name=".sh01"/>
      <point x="756.18" y="0" type="line"/>
      <point x="879.18" y="0" type="line"/>
      <point x="890.58" y="79.5152"/>
      <point x="907.148" y="160.018"/>
      <point x="925.484" y="239.546" type="curve" smooth="yes"/>
      <point x="1115.42" y="1063.94" type="line"/>
      <point x="981.28" y="1063.94" type="line"/>
      <point x="942.368" y="905.216" type="line"/>
      <point x="880.928" y="1033.22"/>
      <point x="773.408" y="1084.42"/>
      <point x="635.168" y="1084.42" type="curve" smooth="yes"/>
      <point x="288.032" y="1084.42"/>
      <point x="83.232" y="660.48"/>
      <point x="83.232" y="358.4" type="curve" smooth="yes"/>
      <point x="83.232" y="151.552"/>
      <point x="178.464" y="-20.48"/>
    </contour>
  </outline>
  <guideline angle="90" name="vertical" x="635" y="0"/>
</glyph>
<glyph name="b" format="2">
  <advance width="1174"/>
  <unicode hex="0062"/>
  <outline>
    <contour>
      <point x="551" y="-20" type="curve" smooth="yes"/>
      <point x="899" y="-20"/>
      <point x="1100" y="407"/>
      <point x="1100" y="707" type="curve" smooth="yes"/>
      <point x="1100" y="915"/>
      <point x="1004" y="1087"/>
      <point x="776" y="1087" type="curve" smooth="yes"/>
      <point x="628" y="1087"/>
      <point x="508" y="1022"/>
      <point x="409" y="914" type="curve"/>
      <point x="549" y="1447" type="line"/>
      <point x="416" y="1447" type="line"/>
      <point x="69" y="0" type="line"/>
      <point x="202" y="0" type="line"/>
      <point x="241" y="160" type="line"/>
      <point x="298" y="25"/>
      <point x="412" y="-20"/>
    </contour>
    <contour>
      <point x="514" y="91" type="curve" smooth="yes"/>
      <point x="350" y="91"/>
      <point x="289" y="207"/>
      <point x="289" y="355" type="curve" smooth="yes"/>
      <point x="289" y="608"/>
      <point x="444" y="974"/>
      <point x="740" y="974" type="curve" smooth="yes"/>
      <point x="907" y="974"/>
      <point x="970" y="848"/>
      <point x="970" y="697" type="curve" smooth="yes"/>
      <point x="970" y="442"/>
      <point x="809" y="91"/>
    </contour>
  </outline>
</glyph>
<glyph name="c" format="2">
  <advance width="1022"/>
  <unicode hex="0063"/>
  <anchor x="666" y="1192" name="top"/>
  <anchor x="451" y="0" name="cedilla"/>
  <outline>
    <contour>
      <point x="442" y="-20" type="curve" smooth="yes"/>
      <point x="630" y="-20"/>
      <point x="791" y="86"/>
      <point x="884" y="247" type="curve"/>
      <point x="779" y="307" type="line"/>
      <point x="719" y="187"/>
      <point x="588" y="95"/>
      <point x="451" y="95" type="curve" smooth="yes"/>
      <point x="280" y="95"/>
      <point x="221" y="215"/>
      <point x="221" y="369" type="curve" smooth="yes"/>
      <point x="221" y="612"/>
      <point x="368" y="964"/>
      <point x="652" y="964" type="curve" smooth="yes"/>
      <point x="775" y="964"/>
      <point x="872" y="886"/>
      <point x="880" y="760" type="curve"/>
      <point x="1012" y="811" type="line"/>
      <point x="970" y="986"/>
      <point x="845" y="1081"/>
      <point x="666" y="1081" type="curve" smooth="yes"/>
      <point x="310" y="1081"/>
      <point x="89" y="692"/>
      <point x="89" y="373" type="curve" smooth="yes"/>
      <point x="89" y="147"/>
      <point x="201" y="-20"/>
    </contour>
  </outline>
  <guideline angle="90" name="vertical" x="666" y="0"/>
</glyph>
<glyph name="d" format="2">
  <advance width="1182"/>
  <unicode hex="0064"/>
  <outline>
    <contour>
      <point x="404.768" y="-20.48" type="curve" smooth="yes"/>
      <point x="553.248" y="-20.48"/>
      <point x="669.984" y="32.768"/>
      <point x="769.312" y="142.336" type="curve"/>
      <point x="738.592" y="0" type="line"/>
      <point x="871.712" y="0" type="line"/>
      <point x="1218.85" y="1446.91" type="line"/>
      <point x="1074.7" y="1446.91" type="line"/>
      <point x="942.368" y="906.24" type="line"/>
      <point x="882.976" y="1034.24"/>
      <point x="771.36" y="1085.44"/>
      <point x="635.168" y="1085.44" type="curve" smooth="yes"/>
      <point x="288.032" y="1085.44"/>
      <point x="83.232" y="661.504"/>
      <point x="83.232" y="358.4" type="curve" smooth="yes"/>
      <point x="83.232" y="151.552"/>
      <point x="175.392" y="-20.4799"/>
    </contour>
    <contour>
      <point x="443.68" y="97.28" type="curve" smooth="yes"/>
      <point x="279.84" y="97.28"/>
      <point x="215.328" y="209.92"/>
      <point x="215.328" y="360.448" type="curve" smooth="yes"/>
      <point x="215.328" y="613.376"/>
      <point x="372" y="964.608"/>
      <point x="664.864" y="964.608" type="curve" smooth="yes"/>
      <point x="827.68" y="964.608"/>
      <point x="893.216" y="855.04"/>
      <point x="893.216" y="704.512" type="curve" smooth="yes"/>
      <point x="893.216" y="452.608"/>
      <point x="737.568" y="97.28"/>
    </contour>
  </outline>
</glyph>
<glyph name="e" format="2">
  <advance width="1084"/>
  <unicode hex="0065"/>
  <anchor x="706" y="1192" name="top"/>
  <anchor x="552" y="0" name="ogonek"/>
  <outline>
    <contour>
      <point x="456.704" y="-20.48" type="curve" smooth="yes"/>
      <point x="612.352" y="-20.48"/>
      <point x="764.928" y="28.672"/>
      <point x="883.712" y="131.072" type="curve"/>
      <point x="802.816" y="208.896" type="line"/>
      <point x="708.608" y="123.904"/>
      <point x="589.824" y="94.208"/>
      <point x="465.92" y="94.208" type="curve" smooth="yes"/>
      <point x="303.104" y="94.208"/>
      <point x="218.112" y="199.68"/>
      <point x="218.112" y="359.424" type="curve" smooth="yes"/>
      <point x="218.112" y="401.408"/>
      <point x="225.28" y="444.416"/>
      <point x="234.496" y="485.376" type="curve"/>
      <point x="975.872" y="485.376" type="line"/>
      <point x="1000.45" y="568.32"/>
      <point x="1016.83" y="644.096"/>
      <point x="1016.83" y="736.256" type="curve" smooth="yes"/>
      <point x="1016.83" y="966.656"/>
      <point x="890.88" y="1084.42"/>
      <point x="664.576" y="1084.42" type="curve" smooth="yes"/>
      <point x="307.2" y="1084.42"/>
      <point x="87.04" y="688.128"/>
      <point x="87.04" y="365.568" type="curve" smooth="yes"/>
      <point x="87.04" y="132.096"/>
      <point x="220.16" y="-20.48"/>
    </contour>
    <contour>
      <point x="878.592" y="598.016" type="curve"/>
      <point x="260.096" y="598.016" type="line"/>
      <point x="309.248" y="785.408"/>
      <point x="442.368" y="965.632"/>
      <point x="650.24" y="965.632" type="curve" smooth="yes"/>
      <point x="798.72" y="965.632"/>
      <point x="902.144" y="898.048"/>
      <point x="902.144" y="737.28" type="curve" smooth="yes"/>
      <point x="902.144" y="689.152"/>
      <point x="890.88" y="643.072"/>
    </contour>
  </outline>
  <guideline angle="90" name="vertical" x="706" y="0"/>
  <guideline angle="136.081" x="884" y="131"/>
</glyph>
<glyph name="f" format="2">
  <advance width="728"/>
  <unicode hex="0066"/>
  <outline>
    <contour>
      <point x="221" y="0" type="line"/>
      <point x="454" y="958" type="line"/>
      <point x="757" y="958" type="line"/>
      <point x="782" y="1064" type="line"/>
      <point x="476" y="1064" type="line"/>
      <point x="493" y="1124" type="line" smooth="yes"/>
      <point x="541" y="1303"/>
      <point x="579" y="1357"/>
      <point x="698" y="1357" type="curve" smooth="yes"/>
      <point x="740" y="1357"/>
      <point x="781" y="1346"/>
      <point x="821" y="1331" type="curve"/>
      <point x="872" y="1428" type="line"/>
      <point x="822" y="1456"/>
      <point x="766" y="1468"/>
      <point x="709" y="1468" type="curve" smooth="yes"/>
      <point x="540" y="1468"/>
      <point x="426" y="1382"/>
      <point x="387" y="1238" type="curve" smooth="yes"/>
      <point x="340" y="1064" type="line"/>
      <point x="135" y="1064" type="line"/>
      <point x="110" y="958" type="line"/>
      <point x="315" y="958" type="line"/>
      <point x="85" y="0" type="line"/>
    </contour>
  </outline>
</glyph>
<glyph name="g" format="2">
  <advance width="1125"/>
  <unicode hex="0067"/>
  <anchor x="411" y="-435" name="m.uni0326"/>
  <anchor x="0" y="42" name="m.uni0328_1"/>
  <anchor x="685" y="1099" name="m.uni0308_2"/>
  <anchor x="0" y="42" name="m.uni031B_3_2"/>
  <outline>
    <contour>
      <point x="412.965" y="-463" type="curve"/>
      <point x="645.446" y="-463"/>
      <point x="923.051" y="-341.364"/>
      <point x="923.051" y="-72.588" type="curve" smooth="yes"/>
      <point x="923.051" y="98.0947"/>
      <point x="785.72" y="164.875"/>
      <point x="633.675" y="162.913" type="curve"/>
      <point x="399.232" y="162.913" type="line" smooth="yes"/>
      <point x="262.882" y="162.913"/>
      <point x="207.873" y="192.264"/>
      <point x="207.873" y="263.873" type="curve" smooth="yes"/>
      <point x="207.873" y="325.672"/>
      <point x="242.282" y="377.661"/>
      <point x="298.195" y="415.918" type="curve"/>
      <point x="354.109" y="369.814"/>
      <point x="436.507" y="344.309"/>
      <point x="531.658" y="344.309" type="curve" smooth="yes"/>
      <point x="775.911" y="344.309"/>
      <point x="990.735" y="517.935"/>
      <point x="990.735" y="770.035" type="curve" smooth="yes"/>
      <point x="990.735" y="820.063"/>
      <point x="980.926" y="866.167"/>
      <point x="961.307" y="908.347" type="curve"/>
      <point x="1151.61" y="1055.49" type="line"/>
      <point x="1084.9" y="1132" type="line"/>
      <point x="901.47" y="989.764" type="line"/>
      <point x="842.614" y="1049.6"/>
      <point x="754.33" y="1083.93"/>
      <point x="643.484" y="1083.93" type="curve" smooth="yes"/>
      <point x="398.251" y="1083.93"/>
      <point x="181.464" y="903.442"/>
      <point x="181.464" y="651.342" type="curve" smooth="yes"/>
      <point x="181.464" y="589.543"/>
      <point x="196.178" y="535.592"/>
      <point x="225.606" y="490.469" type="curve"/>
      <point x="141.246" y="432.593"/>
      <point x="78.2752" y="356.081"/>
      <point x="78.2752" y="252.101" type="curve" smooth="yes"/>
      <point x="78.2752" y="168.722"/>
      <point x="130.455" y="111.828"/>
      <point x="194.216" y="77.4951" type="curve"/>
      <point x="2.93386" y="-35.3124" type="line"/>
      <point x="-11.7802" y="-73.5689"/>
      <point x="-20.6086" y="-112.806"/>
      <point x="-20.6086" y="-154.006" type="curve" smooth="yes"/>
      <point x="-20.6086" y="-377.659"/>
      <point x="225.606" y="-464.962"/>
    </contour>
    <contour>
      <point x="534.601" y="458.212" type="curve" smooth="yes"/>
      <point x="411.003" y="458.212"/>
      <point x="315.966" y="517.935"/>
      <point x="315.966" y="650.361" type="curve" smooth="yes"/>
      <point x="315.966" y="832.815"/>
      <point x="464.954" y="972.974"/>
      <point x="646.427" y="972.974" type="curve" smooth="yes"/>
      <point x="771.987" y="972.974"/>
      <point x="861.137" y="907.366"/>
      <point x="859.176" y="774.94" type="curve"/>
      <point x="859.176" y="592.486"/>
      <point x="716.073" y="458.212"/>
    </contour>
    <contour>
      <point x="415.907" y="-350.097" type="curve" smooth="yes"/>
      <point x="277.596" y="-350.097"/>
      <point x="53.1522" y="-273.68"/>
      <point x="122.799" y="-88.2829" type="curve"/>
      <point x="271.71" y="46.1052" type="line"/>
      <point x="573.838" y="46.1052" type="line" smooth="yes"/>
      <point x="727.845" y="46.1052"/>
      <point x="783.567" y="-0.979706"/>
      <point x="783.567" y="-86.321" type="curve" smooth="yes"/>
      <point x="783.567" y="-276.622"/>
      <point x="574.819" y="-350.097"/>
    </contour>
  </outline>
</glyph>
<glyph name="h" format="2">
  <advance width="1176"/>
  <unicode hex="0068"/>
  <anchor x="473" y="1620" name="top"/>
  <outline>
    <contour>
      <point x="763" y="0" type="line"/>
      <point x="900" y="0" type="line"/>
      <point x="1047" y="653" type="line" smooth="yes"/>
      <point x="1057" y="700"/>
      <point x="1063" y="748"/>
      <point x="1063" y="793" type="curve" smooth="yes"/>
      <point x="1063" y="949"/>
      <point x="992" y="1084"/>
      <point x="785" y="1084" type="curve" smooth="yes"/>
      <point x="646" y="1084"/>
      <point x="511" y="984"/>
      <point x="411" y="876" type="curve"/>
      <point x="350" y="876" type="line"/>
      <point x="285" y="579" type="line"/>
      <point x="333" y="579" type="line"/>
      <point x="382" y="769"/>
      <point x="556" y="960"/>
      <point x="761" y="960" type="curve" smooth="yes"/>
      <point x="879" y="960"/>
      <point x="928" y="891"/>
      <point x="928" y="779" type="curve" smooth="yes"/>
      <point x="928" y="730"/>
      <point x="925" y="691"/>
      <point x="889" y="540" type="curve" smooth="yes"/>
    </contour>
    <contour>
      <point x="62" y="0" type="line"/>
      <point x="194" y="0" type="line"/>
      <point x="541" y="1448" type="line"/>
      <point x="409" y="1448" type="line"/>
    </contour>
  </outline>
  <guideline angle="256.888" x="838" y="322"/>
  <guideline angle="90" name="vertical" x="473" y="0"/>
</glyph>
<glyph name="i" format="2">
  <advance width="496"/>
  <unicode hex="0069"/>
  <anchor x="207" y="0" name="ogonek"/>
  <anchor x="124" y="-120" name="bottom"/>
  <outline>
    <contour>
      <point x="476" y="1260" type="line"/>
      <point x="520" y="1447" type="line"/>
      <point x="387" y="1447" type="line"/>
      <point x="343" y="1260" type="line"/>
    </contour>
    <contour>
      <point x="207" y="0" type="line"/>
      <point x="441" y="1064" type="line"/>
      <point x="308" y="1064" type="line"/>
      <point x="74" y="0" type="line"/>
    </contour>
  </outline>
</glyph>
<glyph name="j" format="2">
  <advance width="531"/>
  <unicode hex="006A"/>
  <outline>
    <contour>
      <point x="503" y="1260" type="line"/>
      <point x="549" y="1453" type="line"/>
      <point x="403" y="1453" type="line"/>
      <point x="358" y="1260" type="line"/>
    </contour>
    <contour>
      <point x="-156" y="-450" type="curve" smooth="yes"/>
      <point x="24" y="-450"/>
      <point x="132" y="-334"/>
      <point x="171" y="-165" type="curve" smooth="yes"/>
      <point x="458" y="1064" type="line"/>
      <point x="313" y="1064" type="line"/>
      <point x="24" y="-177" type="line" smooth="yes"/>
      <point x="5" y="-262"/>
      <point x="-47" y="-323"/>
      <point x="-138" y="-323" type="curve" smooth="yes"/>
      <point x="-178" y="-323"/>
      <point x="-218" y="-318"/>
      <point x="-258" y="-307" type="curve"/>
      <point x="-307" y="-418" type="line"/>
      <point x="-259" y="-437"/>
      <point x="-208" y="-450"/>
    </contour>
  </outline>
</glyph>
<glyph name="k" format="2">
  <advance width="1104"/>
  <unicode hex="006B"/>
  <anchor x="467" y="-120" name="bottom"/>
  <outline>
    <contour>
      <point x="1112.37" y="1063.94" type="line"/>
      <point x="943.408" y="1063.94" type="line"/>
      <point x="294.192" y="466.944" type="line"/>
      <point x="256.304" y="289.792" type="line"/>
    </contour>
    <contour>
      <point x="935.216" y="0" type="line"/>
      <point x="673.072" y="702.464" type="line"/>
      <point x="567.6" y="599.04" type="line"/>
      <point x="776.496" y="0" type="line"/>
    </contour>
    <contour>
      <point x="62" y="0" type="line"/>
      <point x="194" y="0" type="line"/>
      <point x="541" y="1448" type="line"/>
      <point x="409" y="1448" type="line"/>
    </contour>
  </outline>
</glyph>
<glyph name="l" format="2">
  <advance width="535"/>
  <unicode hex="006C"/>
  <anchor x="441" y="1620" name="top"/>
  <anchor x="157" y="-120" name="bottom"/>
  <anchor x="643" y="774" name="center"/>
  <outline>
    <contour>
      <point x="198.656" y="-20.48" type="curve" smooth="yes"/>
      <point x="242.688" y="-20.48"/>
      <point x="285.696" y="-14.336"/>
      <point x="327.68" y="-2.048" type="curve"/>
      <point x="348.16" y="105.472" type="line"/>
      <point x="315.392" y="95.232"/>
      <point x="281.6" y="90.112"/>
      <point x="246.784" y="90.112" type="curve" smooth="yes"/>
      <point x="223.232" y="90.112"/>
      <point x="202.752" y="104.448"/>
      <point x="202.752" y="129.024" type="curve"/>
      <point x="518.144" y="1447.94" type="line"/>
      <point x="379.904" y="1447.94" type="line"/>
      <point x="81.92" y="178.176" type="line" smooth="yes"/>
      <point x="74.752" y="149.504"/>
      <point x="67.584" y="120.832"/>
      <point x="67.584" y="91.1361" type="curve" smooth="yes"/>
      <point x="67.584" y="4.0961"/>
      <point x="119.808" y="-20.4799"/>
    </contour>
  </outline>
  <guideline angle="90" name="vertical" x="441" y="0"/>
</glyph>
<glyph name="m" format="2">
  <advance width="1796"/>
  <unicode hex="006D"/>
  <outline>
    <contour>
      <point x="1522.69" y="0" type="line"/>
      <point x="1666.05" y="640" type="line" smooth="yes"/>
      <point x="1677.31" y="690.176"/>
      <point x="1683.46" y="739.328"/>
      <point x="1683.46" y="787.456" type="curve" smooth="yes"/>
      <point x="1683.46" y="978.944"/>
      <point x="1582.08" y="1084.42"/>
      <point x="1392.64" y="1084.42" type="curve" smooth="yes"/>
      <point x="1223.68" y="1084.42"/>
      <point x="1111.04" y="990.208"/>
      <point x="1020.93" y="856.064" type="curve"/>
      <point x="1010.69" y="999.424"/>
      <point x="905.216" y="1084.42"/>
      <point x="737.28" y="1084.42" type="curve" smooth="yes"/>
      <point x="607.232" y="1084.42"/>
      <point x="538.624" y="1043.46"/>
      <point x="420.864" y="913.408" type="curve"/>
      <point x="411.648" y="913.408" type="line"/>
      <point x="447.488" y="1063.94" type="line"/>
      <point x="310.272" y="1063.94" type="line"/>
      <point x="66.56" y="0" type="line"/>
      <point x="202.752" y="0" type="line"/>
      <point x="342.016" y="608.256" type="line" smooth="yes"/>
      <point x="381.952" y="783.36"/>
      <point x="527.36" y="975.872"/>
      <point x="721.92" y="975.872" type="curve" smooth="yes"/>
      <point x="843.776" y="975.872"/>
      <point x="890.88" y="905.216"/>
      <point x="890.88" y="790.528" type="curve" smooth="yes"/>
      <point x="890.88" y="744.448"/>
      <point x="884.736" y="696.32"/>
      <point x="873.472" y="648.192" type="curve" smooth="yes"/>
      <point x="723.968" y="0" type="line"/>
      <point x="861.184" y="0" type="line"/>
      <point x="1001.47" y="608.256" type="line" smooth="yes"/>
      <point x="1042.43" y="783.36"/>
      <point x="1182.72" y="975.872"/>
      <point x="1377.28" y="975.872" type="curve" smooth="yes"/>
      <point x="1503.23" y="975.872"/>
      <point x="1551.36" y="901.12"/>
      <point x="1551.36" y="782.336" type="curve" smooth="yes"/>
      <point x="1551.36" y="746.496"/>
      <point x="1551.36" y="711.68"/>
      <point x="1522.69" y="589.824" type="curve" smooth="yes"/>
      <point x="1384.45" y="0" type="line"/>
    </contour>
  </outline>
  <guideline angle="256.769" x="1467" y="353"/>
</glyph>
<glyph name="n" format="2">
  <advance width="1179"/>
  <unicode hex="006E"/>
  <anchor x="778" y="1192" name="top"/>
  <anchor x="454" y="-120" name="bottom"/>
  <outline>
    <component base="dotlessi"/>
    <contour>
      <point x="756" y="0" type="line"/>
      <point x="893" y="0" type="line"/>
      <point x="1040" y="653" type="line" smooth="yes"/>
      <point x="1050" y="700"/>
      <point x="1056" y="748"/>
      <point x="1056" y="793" type="curve" smooth="yes"/>
      <point x="1056" y="949"/>
      <point x="985" y="1084"/>
      <point x="778" y="1084" type="curve" smooth="yes"/>
      <point x="639" y="1084"/>
      <point x="504" y="984"/>
      <point x="404" y="876" type="curve"/>
      <point x="343" y="876" type="line"/>
      <point x="278" y="579" type="line"/>
      <point x="326" y="579" type="line"/>
      <point x="375" y="769"/>
      <point x="549" y="960"/>
      <point x="754" y="960" type="curve" smooth="yes"/>
      <point x="872" y="960"/>
      <point x="921" y="891"/>
      <point x="921" y="779" type="curve" smooth="yes"/>
      <point x="921" y="730"/>
      <point x="918" y="691"/>
      <point x="882" y="540" type="curve" smooth="yes"/>
    </contour>
  </outline>
  <guideline angle="257.135" x="310" y="1064"/>
  <guideline angle="77.2698" x="201" y="0"/>
  <guideline angle="257.161" x="916" y="645"/>
  <guideline angle="77.3441" x="903" y="0"/>
  <guideline angle="90" name="vertical" x="778" y="0"/>
</glyph>
<glyph name="o" format="2">
  <advance width="1176"/>
  <unicode hex="006F"/>
  <anchor x="743" y="1192" name="top"/>
  <anchor x="560" y="0" name="ogonek"/>
  <anchor x="1360" y="1064" name="pos"/>
  <anchor x="456" y="-120" name="bottom"/>
  <outline>
    <contour>
      <point x="476" y="-20" type="curve" smooth="yes"/>
      <point x="822" y="-20"/>
      <point x="1096" y="334"/>
      <point x="1096" y="663" type="curve" smooth="yes"/>
      <point x="1096" y="896"/>
      <point x="947" y="1084"/>
      <point x="705" y="1084" type="curve" smooth="yes"/>
      <point x="354" y="1084"/>
      <point x="87" y="719"/>
      <point x="87" y="387" type="curve" smooth="yes"/>
      <point x="87" y="153"/>
      <point x="235" y="-20"/>
    </contour>
    <contour>
      <point x="482" y="100" type="curve" smooth="yes"/>
      <point x="316" y="100"/>
      <point x="223" y="217"/>
      <point x="223" y="377" type="curve" smooth="yes"/>
      <point x="223" y="638"/>
      <point x="410" y="964"/>
      <point x="698" y="964" type="curve" smooth="yes"/>
      <point x="867" y="964"/>
      <point x="958" y="847"/>
      <point x="958" y="683" type="curve" smooth="yes"/>
      <point x="958" y="418"/>
      <point x="777" y="100"/>
    </contour>
  </outline>
  <guideline angle="90" name="vertical" x="743" y="0"/>
</glyph>
<glyph name="p" format="2">
  <advance width="1172"/>
  <unicode hex="0070"/>
  <outline>
    <contour>
      <point x="89" y="-450" type="line"/>
      <point x="238" y="161" type="line"/>
      <point x="295" y="30"/>
      <point x="404" y="-20"/>
      <point x="542" y="-20" type="curve" smooth="yes"/>
      <point x="894" y="-20"/>
      <point x="1098" y="400"/>
      <point x="1098" y="707" type="curve" smooth="yes"/>
      <point x="1098" y="915"/>
      <point x="998" y="1084"/>
      <point x="772" y="1084" type="curve" smooth="yes"/>
      <point x="624" y="1084"/>
      <point x="503" y="1025"/>
      <point x="405" y="915" type="curve"/>
      <point x="442" y="1064" type="line"/>
      <point x="308" y="1064" type="line"/>
      <point x="-46" y="-450" type="line"/>
    </contour>
    <contour>
      <point x="509" y="91" type="curve" smooth="yes"/>
      <point x="343" y="91"/>
      <point x="285" y="212"/>
      <point x="285" y="360" type="curve" smooth="yes"/>
      <point x="285" y="608"/>
      <point x="444" y="971"/>
      <point x="733" y="971" type="curve" smooth="yes"/>
      <point x="900" y="971"/>
      <point x="969" y="852"/>
      <point x="969" y="699" type="curve" smooth="yes"/>
      <point x="969" y="445"/>
      <point x="801" y="91"/>
    </contour>
  </outline>
</glyph>
<glyph name="q" format="2">
  <advance width="1189"/>
  <unicode hex="0071"/>
  <outline>
    <contour>
      <point x="774" y="-450" type="line"/>
      <point x="1127" y="1064" type="line"/>
      <point x="992" y="1064" type="line"/>
      <point x="951" y="906" type="line"/>
      <point x="893" y="1036"/>
      <point x="785" y="1084"/>
      <point x="647" y="1084" type="curve" smooth="yes"/>
      <point x="298" y="1084"/>
      <point x="93" y="665"/>
      <point x="93" y="359" type="curve" smooth="yes"/>
      <point x="93" y="151"/>
      <point x="186" y="-20"/>
      <point x="415" y="-20" type="curve" smooth="yes"/>
      <point x="568" y="-20"/>
      <point x="681" y="40"/>
      <point x="784" y="150" type="curve"/>
      <point x="637" y="-450" type="line"/>
    </contour>
    <contour>
      <point x="451" y="91" type="curve" smooth="yes"/>
      <point x="284" y="91"/>
      <point x="225" y="208"/>
      <point x="225" y="358" type="curve" smooth="yes"/>
      <point x="225" y="612"/>
      <point x="381" y="971"/>
      <point x="677" y="971" type="curve" smooth="yes"/>
      <point x="841" y="971"/>
      <point x="902" y="855"/>
      <point x="902" y="708" type="curve" smooth="yes"/>
      <point x="902" y="454"/>
      <point x="747" y="91"/>
    </contour>
  </outline>
</glyph>
<glyph name="r" format="2">
  <advance width="854"/>
  <unicode hex="0072"/>
  <anchor x="636" y="1192" name="top"/>
  <anchor x="122" y="-120" name="bottom"/>
  <outline>
    <contour>
      <point x="204.8" y="0" type="line"/>
      <point x="335.872" y="549.888" type="line" smooth="yes"/>
      <point x="379.904" y="734.208"/>
      <point x="527.36" y="971.776"/>
      <point x="744.448" y="971.776" type="curve" smooth="yes"/>
      <point x="788.48" y="971.776"/>
      <point x="834.56" y="960.512"/>
      <point x="866.304" y="927.744" type="curve"/>
      <point x="923.648" y="1032.19" type="line"/>
      <point x="878.592" y="1063.94"/>
      <point x="814.08" y="1079.3"/>
      <point x="759.808" y="1079.3" type="curve" smooth="yes"/>
      <point x="598.016" y="1079.3"/>
      <point x="466.944" y="982.016"/>
      <point x="399.36" y="842.752" type="curve"/>
      <point x="450.56" y="1063.94" type="line"/>
      <point x="311.296" y="1063.94" type="line"/>
      <point x="66.56" y="0" type="line"/>
    </contour>
  </outline>
  <guideline angle="90" name="vertical" x="636" y="0"/>
</glyph>
<glyph name="s" format="2">
  <advance width="924"/>
  <unicode hex="0073"/>
  <anchor x="373" y="2" name="m.uni0326"/>
  <anchor x="0" y="2" name="m.uni0328_1"/>
  <anchor x="584" y="1069" name="m.uni0308_2"/>
  <anchor x="0" y="2" name="m.uni031B_3_2"/>
  <outline>
    <contour>
      <point x="383" y="-20" type="curve" smooth="yes"/>
      <point x="573.339" y="-20"/>
      <point x="788" y="120.325"/>
      <point x="788" y="328" type="curve" smooth="yes"/>
      <point x="788" y="508.31"/>
      <point x="659.495" y="562.751"/>
      <point x="507" y="606" type="curve" smooth="yes"/>
      <point x="413.446" y="632.533"/>
      <point x="296.415" y="656.472"/>
      <point x="293" y="776" type="curve"/>
      <point x="293" y="909.542"/>
      <point x="395.051" y="968.891"/>
      <point x="518" y="967" type="curve"/>
      <point x="637" y="967"/>
      <point x="715" y="914"/>
      <point x="744" y="827" type="curve"/>
      <point x="858" y="877" type="line"/>
      <point x="811.646" y="1013.49"/>
      <point x="662.603" y="1085"/>
      <point x="526" y="1085" type="curve" smooth="yes"/>
      <point x="331.64" y="1085"/>
      <point x="171" y="977.122"/>
      <point x="171" y="774" type="curve" smooth="yes"/>
      <point x="171" y="592.921"/>
      <point x="297.327" y="548.346"/>
      <point x="441" y="504" type="curve" smooth="yes"/>
      <point x="536" y="474.677"/>
      <point x="654" y="450.464"/>
      <point x="654" y="326" type="curve" smooth="yes"/>
      <point x="654" y="212"/>
      <point x="544" y="105"/>
      <point x="399" y="105" type="curve" smooth="yes"/>
      <point x="284.021" y="105"/>
      <point x="163.189" y="167.33"/>
      <point x="153" y="293" type="curve"/>
      <point x="27" y="243" type="line"/>
      <point x="47.1005" y="76.714"/>
      <point x="229.124" y="-20"/>
    </contour>
  </outline>
</glyph>
<glyph name="t" format="2">
  <advance width="692"/>
  <unicode hex="0074"/>
  <anchor x="292" y="0" name="cedilla"/>
  <anchor x="293" y="-120" name="bottom"/>
  <outline>
    <contour>
      <point x="352" y="-22" type="curve" smooth="yes"/>
      <point x="393" y="-22"/>
      <point x="433" y="-16"/>
      <point x="473" y="-4" type="curve"/>
      <point x="489" y="109" type="line"/>
      <point x="453" y="96"/>
      <point x="417" y="83"/>
      <point x="379" y="83" type="curve" smooth="yes"/>
      <point x="308" y="83"/>
      <point x="282" y="118"/>
      <point x="282" y="169" type="curve" smooth="yes"/>
      <point x="282" y="216"/>
      <point x="313" y="355"/>
      <point x="331" y="435" type="curve" smooth="yes"/>
      <point x="451" y="958" type="line"/>
      <point x="723" y="958" type="line"/>
      <point x="746" y="1064" type="line"/>
      <point x="475" y="1064" type="line"/>
      <point x="560" y="1382" type="line"/>
      <point x="390" y="1265" type="line"/>
      <point x="337" y="1064" type="line"/>
      <point x="175" y="1064" type="line"/>
      <point x="152" y="958" type="line"/>
      <point x="312" y="958" type="line"/>
      <point x="163" y="288" type="line" smooth="yes"/>
      <point x="155" y="248"/>
      <point x="148" y="209"/>
      <point x="148" y="169" type="curve" smooth="yes"/>
      <point x="148" y="46"/>
      <point x="220" y="-22"/>
    </contour>
  </outline>
</glyph>
<glyph name="u" format="2">
  <advance width="1175"/>
  <unicode hex="0075"/>
  <anchor x="706" y="1192" name="top"/>
  <anchor x="872" y="0" name="ogonek"/>
  <anchor x="1360" y="1064" name="pos"/>
  <outline>
    <contour>
      <point x="408" y="-24" type="curve" smooth="yes"/>
      <point x="552" y="-24"/>
      <point x="710" y="68"/>
      <point x="785" y="189" type="curve"/>
      <point x="739" y="0" type="line"/>
      <point x="872" y="0" type="line"/>
      <point x="1116" y="1064" type="line"/>
      <point x="984" y="1064" type="line"/>
      <point x="815" y="364" type="line" smooth="yes"/>
      <point x="791" y="263"/>
      <point x="615" y="84"/>
      <point x="411" y="84" type="curve" smooth="yes"/>
      <point x="291" y="84"/>
      <point x="250" y="159"/>
      <point x="250" y="269" type="curve" smooth="yes"/>
      <point x="250" y="317"/>
      <point x="257" y="365"/>
      <point x="268" y="413" type="curve" smooth="yes"/>
      <point x="416" y="1064" type="line"/>
      <point x="282" y="1064" type="line"/>
      <point x="142" y="438" type="line" smooth="yes"/>
      <point x="130" y="385"/>
      <point x="123" y="332"/>
      <point x="123" y="275" type="curve" smooth="yes"/>
      <point x="123" y="88"/>
      <point x="215" y="-24"/>
    </contour>
  </outline>
  <guideline angle="257.394" x="282" y="1064"/>
  <guideline angle="90" name="vertical" x="706" y="0"/>
</glyph>
<glyph name="v" format="2">
  <advance width="1008"/>
  <unicode hex="0076"/>
  <outline>
    <contour>
      <point x="445" y="0" type="line"/>
      <point x="1081" y="1064" type="line"/>
      <point x="934" y="1064" type="line"/>
      <point x="420" y="174" type="line"/>
      <point x="324" y="1064" type="line"/>
      <point x="178" y="1064" type="line"/>
      <point x="322" y="0" type="line"/>
    </contour>
  </outline>
</glyph>
<glyph name="w" format="2">
  <advance width="1497"/>
  <unicode hex="0077"/>
  <anchor x="886" y="1192" name="top"/>
  <outline>
    <contour>
      <point x="364.544" y="-1.024" type="line"/>
      <point x="833.536" y="882.688" type="line"/>
      <point x="885.76" y="0" type="line"/>
      <point x="1022.98" y="0" type="line"/>
      <point x="1560.58" y="1063.94" type="line"/>
      <point x="1414.14" y="1063.94" type="line"/>
      <point x="987.136" y="188.416" type="line"/>
      <point x="935.936" y="1063.94" type="line"/>
      <point x="806.912" y="1063.94" type="line"/>
      <point x="348.16" y="186.368" type="line"/>
      <point x="325.632" y="1063.94" type="line"/>
      <point x="188.416" y="1063.94" type="line"/>
      <point x="231.424" y="-1.02405" type="line"/>
    </contour>
  </outline>
  <guideline angle="90" name="vertical" x="886" y="0"/>
</glyph>
<glyph name="x" format="2">
  <advance width="973"/>
  <unicode hex="0078"/>
  <outline>
    <contour>
      <point x="791" y="0" type="line"/>
      <point x="560" y="544" type="line"/>
      <point x="1027" y="1064" type="line"/>
      <point x="863" y="1064" type="line"/>
      <point x="510" y="658" type="line"/>
      <point x="349" y="1064" type="line"/>
      <point x="188" y="1064" type="line"/>
      <point x="417" y="549" type="line"/>
      <point x="-74" y="0" type="line"/>
      <point x="96" y="0" type="line"/>
      <point x="466" y="433" type="line"/>
      <point x="630" y="0" type="line"/>
    </contour>
  </outline>
</glyph>
<glyph name="y" format="2">
  <advance width="1041"/>
  <unicode hex="0079"/>
  <anchor x="625" y="1192" name="top"/>
  <anchor x="530" y="-258" name="bottom"/>
  <outline>
    <contour>
      <point x="197" y="-441" type="line"/>
      <point x="1110" y="1064" type="line"/>
      <point x="961" y="1064" type="line"/>
      <point x="438" y="172" type="line"/>
      <point x="327" y="1064" type="line"/>
      <point x="178" y="1064" type="line"/>
      <point x="340" y="11" type="line"/>
      <point x="52" y="-441" type="line"/>
    </contour>
  </outline>
  <guideline angle="90" name="vertical" x="625" y="0"/>
</glyph>
<glyph name="z" format="2">
  <advance width="987"/>
  <unicode hex="007A"/>
  <anchor x="631" y="1192" name="top"/>
  <outline>
    <contour>
      <point x="773.12" y="0" type="line"/>
      <point x="799.744" y="111.616" type="line"/>
      <point x="149.504" y="111.616" type="line"/>
      <point x="992.256" y="950.272" type="line"/>
      <point x="1016.83" y="1063.94" type="line"/>
      <point x="232.448" y="1063.94" type="line"/>
      <point x="208.896" y="958.464" type="line"/>
      <point x="836.608" y="958.464" type="line"/>
      <point x="-20.48" y="102.4" type="line"/>
      <point x="-43.008" y="0" type="line"/>
    </contour>
  </outline>
  <guideline angle="90" name="vertical" x="631" y="0"/>
</glyph>
<glyph name="braceleft" format="2">
  <advance width="616"/>
  <unicode hex="007B"/>
  <outline>
    <contour>
      <point x="401" y="-117" type="line"/>
      <point x="415" y="-48" type="line"/>
      <point x="357" y="-48" type="line" smooth="yes"/>
      <point x="291" y="-48"/>
      <point x="253" y="-25"/>
      <point x="253" y="19" type="curve" smooth="yes"/>
      <point x="253" y="51"/>
      <point x="257" y="71"/>
      <point x="266" y="115" type="curve" smooth="yes"/>
      <point x="326" y="389" type="line" smooth="yes"/>
      <point x="334" y="426"/>
      <point x="339" y="457"/>
      <point x="339" y="485" type="curve" smooth="yes"/>
      <point x="339" y="562"/>
      <point x="303" y="610"/>
      <point x="193" y="650" type="curve"/>
      <point x="378" y="713"/>
      <point x="419" y="760"/>
      <point x="458" y="942" type="curve" smooth="yes"/>
      <point x="521" y="1242" type="line" smooth="yes"/>
      <point x="556" y="1406"/>
      <point x="600" y="1455"/>
      <point x="712" y="1455" type="curve" smooth="yes"/>
      <point x="731" y="1455" type="line"/>
      <point x="746" y="1526" type="line"/>
      <point x="687" y="1526" type="line" smooth="yes"/>
      <point x="526" y="1526"/>
      <point x="450" y="1467"/>
      <point x="417" y="1319" type="curve" smooth="yes"/>
      <point x="319" y="882" type="line" smooth="yes"/>
      <point x="301" y="800"/>
      <point x="235" y="740"/>
      <point x="140" y="718" type="curve"/>
      <point x="128" y="611" type="line"/>
      <point x="197" y="579"/>
      <point x="217" y="534"/>
      <point x="217" y="480" type="curve" smooth="yes"/>
      <point x="217" y="450"/>
      <point x="211" y="418"/>
      <point x="203" y="384" type="curve" smooth="yes"/>
      <point x="141" y="109" type="line" smooth="yes"/>
      <point x="136" y="84"/>
      <point x="131" y="60"/>
      <point x="131" y="35" type="curve" smooth="yes"/>
      <point x="131" y="-56"/>
      <point x="219" y="-117"/>
      <point x="305" y="-117" type="curve" smooth="yes"/>
    </contour>
  </outline>
  <guideline angle="78.1402" x="623" y="942"/>
  <guideline angle="78.1402" x="458" y="942"/>
  <guideline angle="78.1402" x="458" y="942"/>
</glyph>
<glyph name="bar" format="2">
  <advance width="645"/>
  <unicode hex="007C"/>
  <outline>
    <contour>
      <point x="130.048" y="-525.312" type="line"/>
      <point x="615.424" y="1570.82" type="line"/>
      <point x="520.192" y="1570.82" type="line"/>
      <point x="35.84" y="-525.312" type="line"/>
    </contour>
  </outline>
</glyph>
<glyph name="braceright" format="2">
  <advance width="616"/>
  <unicode hex="007D"/>
  <outline>
    <contour>
      <point x="24.576" y="-116.736" type="line" smooth="yes"/>
      <point x="229.376" y="-116.736"/>
      <point x="277.504" y="31.744"/>
      <point x="294.912" y="111.616" type="curve" smooth="yes"/>
      <point x="374.784" y="474.112" type="line" smooth="yes"/>
      <point x="388.096" y="533.504"/>
      <point x="439.296" y="573.44"/>
      <point x="544.768" y="606.208" type="curve"/>
      <point x="558.08" y="713.728" type="line"/>
      <point x="495.616" y="730.112"/>
      <point x="459.776" y="769.024"/>
      <point x="459.776" y="817.152" type="curve" smooth="yes"/>
      <point x="459.776" y="830.464"/>
      <point x="461.824" y="849.92"/>
      <point x="468.992" y="882.688" type="curve" smooth="yes"/>
      <point x="567.296" y="1309.7" type="line" smooth="yes"/>
      <point x="573.44" y="1337.34"/>
      <point x="576.512" y="1362.94"/>
      <point x="576.512" y="1385.47" type="curve" smooth="yes"/>
      <point x="576.512" y="1473.54"/>
      <point x="529.408" y="1525.76"/>
      <point x="404.48" y="1525.76" type="curve" smooth="yes"/>
      <point x="319.488" y="1525.76" type="line"/>
      <point x="305.152" y="1455.1" type="line"/>
      <point x="375.808" y="1455.1" type="line" smooth="yes"/>
      <point x="431.104" y="1455.1"/>
      <point x="454.656" y="1422.34"/>
      <point x="454.656" y="1372.16" type="curve" smooth="yes"/>
      <point x="454.656" y="1350.66"/>
      <point x="452.608" y="1337.34"/>
      <point x="447.488" y="1316.86" type="curve" smooth="yes"/>
      <point x="359.424" y="949.248" type="line" smooth="yes"/>
      <point x="343.04" y="882.688"/>
      <point x="340.992" y="858.112"/>
      <point x="340.992" y="823.296" type="curve" smooth="yes"/>
      <point x="340.992" y="752.64"/>
      <point x="388.096" y="700.416"/>
      <point x="489.472" y="659.456" type="curve"/>
      <point x="347.136" y="634.88"/>
      <point x="278.528" y="585.728"/>
      <point x="257.024" y="490.496" type="curve" smooth="yes"/>
      <point x="171.008" y="116.736" type="line" smooth="yes"/>
      <point x="147.456" y="13.312"/>
      <point x="84.992" y="-48.128"/>
      <point x="-24.576" y="-48.128" type="curve" smooth="yes"/>
      <point x="-58.368" y="-48.128" type="line"/>
      <point x="-73.728" y="-116.736" type="line"/>
    </contour>
  </outline>
  <guideline angle="0" x="0" y="1640"/>
  <guideline angle="78.1402" x="149" y="942"/>
</glyph>
<glyph name="asciitilde" format="2">
  <advance width="1199"/>
  <unicode hex="007E"/>
  <outline>
    <contour>
      <point x="761.856" y="389.12" type="curve" smooth="yes"/>
      <point x="920.576" y="389.12"/>
      <point x="972.8" y="520.192"/>
      <point x="972.8" y="658.432" type="curve"/>
      <point x="879.616" y="658.432" type="line"/>
      <point x="879.616" y="581.632"/>
      <point x="868.352" y="477.184"/>
      <point x="769.024" y="477.184" type="curve" smooth="yes"/>
      <point x="636.928" y="477.184"/>
      <point x="609.28" y="664.576"/>
      <point x="417.792" y="664.576" type="curve" smooth="yes"/>
      <point x="279.552" y="664.576"/>
      <point x="228.352" y="535.552"/>
      <point x="228.352" y="416.768" type="curve"/>
      <point x="312.32" y="416.768" type="line"/>
      <point x="312.32" y="489.472"/>
      <point x="327.68" y="580.608"/>
      <point x="419.84" y="580.608" type="curve" smooth="yes"/>
      <point x="535.552" y="580.608"/>
      <point x="610.304" y="389.12"/>
    </contour>
  </outline>
</glyph>
<glyph name="exclamdown" format="2">
  <advance width="651"/>
  <unicode hex="00A1"/>
  <outline>
    <contour>
      <point x="491.52" y="841.728" type="line"/>
      <point x="532.48" y="1021.95" type="line"/>
      <point x="350.208" y="1021.95" type="line"/>
      <point x="308.224" y="841.728" type="line"/>
    </contour>
    <contour>
      <point x="181.248" y="-447.488" type="line"/>
      <point x="404.48" y="642.048" type="line"/>
      <point x="305.152" y="642.048" type="line"/>
      <point x="23.552" y="-447.488" type="line"/>
    </contour>
  </outline>
</glyph>
<glyph name="cent" format="2">
  <advance width="1229"/>
  <unicode hex="00A2"/>
  <outline>
    <contour>
      <point x="512.856" y="-210.944" type="line"/>
      <point x="560.984" y="-17.408" type="line"/>
      <point x="734.04" y="-2.04801"/>
      <point x="863.064" y="89.088"/>
      <point x="950.104" y="236.544" type="curve"/>
      <point x="838.488" y="301.056" type="line"/>
      <point x="781.144" y="191.488"/>
      <point x="655.192" y="108.544"/>
      <point x="529.24" y="108.544" type="curve" smooth="yes"/>
      <point x="373.592" y="108.544"/>
      <point x="317.272" y="211.968"/>
      <point x="317.272" y="354.304" type="curve" smooth="yes"/>
      <point x="317.272" y="586.752"/>
      <point x="469.848" y="909.312"/>
      <point x="737.112" y="909.312" type="curve" smooth="yes"/>
      <point x="845.656" y="909.312"/>
      <point x="935.768" y="841.728"/>
      <point x="940.888" y="729.088" type="curve"/>
      <point x="1082.2" y="773.12" type="line"/>
      <point x="1052.5" y="917.504"/>
      <point x="938.84" y="1015.81"/>
      <point x="794.456" y="1035.26" type="curve"/>
      <point x="844.632" y="1227.78" type="line"/>
      <point x="749.4" y="1227.78" type="line"/>
      <point x="699.224" y="1035.26" type="line"/>
      <point x="376.664" y="998.4"/>
      <point x="175.96" y="656.384"/>
      <point x="175.96" y="354.304" type="curve" smooth="yes"/>
      <point x="175.96" y="161.792"/>
      <point x="264.024" y="6.144"/>
      <point x="468.824" y="-15.36" type="curve"/>
      <point x="415.576" y="-210.944" type="line"/>
    </contour>
  </outline>
</glyph>
<glyph name="sterling" format="2">
  <advance width="1285"/>
  <unicode hex="00A3"/>
  <outline>
    <contour>
      <point x="1091.58" y="0" type="line"/>
      <point x="1119.23" y="113.664" type="line"/>
      <point x="264.192" y="113.664" type="line"/>
      <point x="473.088" y="251.904"/>
      <point x="546.816" y="417.792"/>
      <point x="546.816" y="664.576" type="curve"/>
      <point x="1003.52" y="664.576" type="line"/>
      <point x="1030.14" y="776.192" type="line"/>
      <point x="543.744" y="776.192" type="line"/>
      <point x="536.576" y="812.032"/>
      <point x="536.576" y="846.848"/>
      <point x="536.576" y="882.688" type="curve" smooth="yes"/>
      <point x="536.576" y="1093.63"/>
      <point x="646.144" y="1346.56"/>
      <point x="889.856" y="1346.56" type="curve" smooth="yes"/>
      <point x="1013.76" y="1346.56"/>
      <point x="1103.87" y="1266.69"/>
      <point x="1120.26" y="1143.81" type="curve"/>
      <point x="1234.94" y="1173.5" type="line"/>
      <point x="1210.37" y="1344.51"/>
      <point x="1072.13" y="1464.32"/>
      <point x="899.072" y="1464.32" type="curve" smooth="yes"/>
      <point x="594.944" y="1464.32"/>
      <point x="423.936" y="1177.6"/>
      <point x="423.936" y="900.096" type="curve" smooth="yes"/>
      <point x="423.936" y="858.112"/>
      <point x="427.008" y="817.152"/>
      <point x="435.2" y="776.192" type="curve"/>
      <point x="237.568" y="776.192" type="line"/>
      <point x="209.92" y="664.576" type="line"/>
      <point x="435.2" y="664.576" type="line"/>
      <point x="435.2" y="384"/>
      <point x="296.96" y="244.736"/>
      <point x="78.848" y="94.208" type="curve"/>
      <point x="57.344" y="0" type="line"/>
    </contour>
  </outline>
</glyph>
<glyph name="currency" format="2">
  <advance width="1151"/>
  <unicode hex="00A4"/>
  <outline>
    <contour>
      <point x="882.688" y="179.2" type="line"/>
      <point x="986.112" y="269.312" type="line"/>
      <point x="906.24" y="367.616" type="line"/>
      <point x="1001.47" y="465.92"/>
      <point x="1071.1" y="599.04"/>
      <point x="1071.1" y="738.304" type="curve" smooth="yes"/>
      <point x="1071.1" y="799.744"/>
      <point x="1056.77" y="861.184"/>
      <point x="1028.1" y="915.456" type="curve"/>
      <point x="1158.14" y="1024" type="line"/>
      <point x="1089.54" y="1108.99" type="line"/>
      <point x="957.44" y="1000.45" type="line"/>
      <point x="884.736" y="1069.06"/>
      <point x="799.744" y="1098.75"/>
      <point x="701.44" y="1098.75" type="curve" smooth="yes"/>
      <point x="598.016" y="1098.75"/>
      <point x="498.688" y="1063.94"/>
      <point x="412.672" y="1006.59" type="curve"/>
      <point x="332.8" y="1111.04" type="line"/>
      <point x="230.4" y="1018.88" type="line"/>
      <point x="310.272" y="920.576" type="line"/>
      <point x="207.872" y="825.344"/>
      <point x="146.432" y="697.344"/>
      <point x="146.432" y="557.056" type="curve" smooth="yes"/>
      <point x="146.432" y="495.616"/>
      <point x="160.768" y="433.152"/>
      <point x="190.464" y="378.88" type="curve"/>
      <point x="53.248" y="269.312" type="line"/>
      <point x="55.296" y="269.312"/>
      <point x="117.76" y="186.368"/>
      <point x="122.88" y="179.2" type="curve"/>
      <point x="257.024" y="290.816" type="line"/>
      <point x="329.728" y="221.184"/>
      <point x="417.792" y="191.488"/>
      <point x="517.12" y="191.488" type="curve" smooth="yes"/>
      <point x="619.52" y="191.488"/>
      <point x="714.752" y="225.28"/>
      <point x="800.768" y="281.6" type="curve"/>
    </contour>
    <contour>
      <point x="510.976" y="312.32" type="curve" smooth="yes"/>
      <point x="368.64" y="312.32"/>
      <point x="261.12" y="402.432"/>
      <point x="261.12" y="548.864" type="curve" smooth="yes"/>
      <point x="261.12" y="763.904"/>
      <point x="488.448" y="975.872"/>
      <point x="700.416" y="975.872" type="curve" smooth="yes"/>
      <point x="844.8" y="975.872"/>
      <point x="952.32" y="881.664"/>
      <point x="952.32" y="734.208" type="curve" smooth="yes"/>
      <point x="952.32" y="519.168"/>
      <point x="720.896" y="312.32"/>
    </contour>
  </outline>
</glyph>
<glyph name="yen" format="2">
  <advance width="1229"/>
  <unicode hex="00A5"/>
  <outline>
    <contour>
      <point x="562" y="0" type="line"/>
      <point x="635" y="326" type="line"/>
      <point x="945" y="326" type="line"/>
      <point x="968" y="428" type="line"/>
      <point x="659" y="428" type="line"/>
      <point x="689" y="553" type="line"/>
      <point x="998" y="553" type="line"/>
      <point x="1021" y="656" type="line"/>
      <point x="762" y="656" type="line"/>
      <point x="1432" y="1447" type="line"/>
      <point x="1279" y="1447" type="line"/>
      <point x="659" y="720" type="line"/>
      <point x="377" y="1447" type="line"/>
      <point x="230" y="1447" type="line"/>
      <point x="535" y="654" type="line"/>
      <point x="275" y="654" type="line"/>
      <point x="251" y="553" type="line"/>
      <point x="559" y="553" type="line"/>
      <point x="529" y="428" type="line"/>
      <point x="222" y="428" type="line"/>
      <point x="198" y="326" type="line"/>
      <point x="505" y="326" type="line"/>
      <point x="431" y="0" type="line"/>
    </contour>
  </outline>
</glyph>
<glyph name="brokenbar" format="2">
  <advance width="637"/>
  <unicode hex="00A6"/>
  <outline>
    <contour>
      <point x="416.768" y="749.568" type="line"/>
      <point x="592.896" y="1510.4" type="line"/>
      <point x="505.856" y="1510.4" type="line"/>
      <point x="329.728" y="749.568" type="line"/>
    </contour>
    <contour>
      <point x="171.008" y="-315.392" type="line"/>
      <point x="343.04" y="428.032" type="line"/>
      <point x="254.976" y="428.032" type="line"/>
      <point x="83.968" y="-315.392" type="line"/>
    </contour>
  </outline>
</glyph>
<glyph name="section" format="2">
  <advance width="1165"/>
  <unicode hex="00A7"/>
  <outline>
    <contour>
      <point x="519.168" y="-18.432" type="curve" smooth="yes"/>
      <point x="760.832" y="-18.432"/>
      <point x="911.36" y="97.28"/>
      <point x="911.36" y="283.648" type="curve" smooth="yes"/>
      <point x="911.36" y="442.368"/>
      <point x="820.224" y="509.952"/>
      <point x="629.76" y="555.008" type="curve" smooth="yes"/>
      <point x="594.944" y="563.2" type="line" smooth="yes"/>
      <point x="498.688" y="585.728"/>
      <point x="393.216" y="612.352"/>
      <point x="393.216" y="706.56" type="curve" smooth="yes"/>
      <point x="393.216" y="821.248"/>
      <point x="501.76" y="921.6"/>
      <point x="595.968" y="949.248" type="curve"/>
      <point x="497.664" y="1007.62" type="line"/>
      <point x="355.328" y="921.6"/>
      <point x="274.432" y="805.888"/>
      <point x="274.432" y="685.056" type="curve" smooth="yes"/>
      <point x="274.432" y="532.48"/>
      <point x="416.768" y="497.664"/>
      <point x="538.624" y="470.016" type="curve" smooth="yes"/>
      <point x="598.016" y="456.704" type="line" smooth="yes"/>
      <point x="702.464" y="433.152"/>
      <point x="785.408" y="400.384"/>
      <point x="785.408" y="275.456" type="curve" smooth="yes"/>
      <point x="785.408" y="177.152"/>
      <point x="699.392" y="98.304"/>
      <point x="524.288" y="98.304" type="curve" smooth="yes"/>
      <point x="401.408" y="98.304"/>
      <point x="247.808" y="158.72"/>
      <point x="247.808" y="302.08" type="curve"/>
      <point x="121.856" y="273.408" type="line"/>
      <point x="134.144" y="84.992"/>
      <point x="355.328" y="-18.432"/>
    </contour>
    <contour>
      <point x="783.36" y="459.776" type="line"/>
      <point x="924.672" y="518.144"/>
      <point x="1011.71" y="629.76"/>
      <point x="1011.71" y="753.664" type="curve" smooth="yes"/>
      <point x="1011.71" y="868.352"/>
      <point x="957.44" y="936.96"/>
      <point x="845.824" y="963.584" type="curve" smooth="yes"/>
      <point x="713.728" y="995.328" type="line" smooth="yes"/>
      <point x="531.456" y="1039.36"/>
      <point x="492.544" y="1084.42"/>
      <point x="492.544" y="1174.53" type="curve" smooth="yes"/>
      <point x="492.544" y="1288.19"/>
      <point x="611.328" y="1363.97"/>
      <point x="742.4" y="1363.97" type="curve" smooth="yes"/>
      <point x="868.352" y="1363.97"/>
      <point x="955.392" y="1286.14"/>
      <point x="980.992" y="1178.62" type="curve"/>
      <point x="1096.7" y="1229.82" type="line"/>
      <point x="1065.98" y="1375.23"/>
      <point x="948.224" y="1468.42"/>
      <point x="737.28" y="1468.42" type="curve" smooth="yes"/>
      <point x="540.672" y="1468.42"/>
      <point x="376.832" y="1356.8"/>
      <point x="376.832" y="1163.26" type="curve" smooth="yes"/>
      <point x="376.832" y="1030.14"/>
      <point x="502.784" y="946.176"/>
      <point x="624.64" y="917.504" type="curve" smooth="yes"/>
      <point x="791.552" y="877.568" type="line" smooth="yes"/>
      <point x="859.136" y="861.184"/>
      <point x="893.952" y="816.128"/>
      <point x="893.952" y="746.496" type="curve" smooth="yes"/>
      <point x="893.952" y="642.048"/>
      <point x="819.2" y="562.176"/>
      <point x="685.056" y="524.288" type="curve"/>
    </contour>
  </outline>
  <guideline angle="346.464" x="625" y="450"/>
  <guideline angle="346.464" x="625" y="1017"/>
</glyph>
<glyph name="dieresis" format="2">
  <advance width="703"/>
  <unicode hex="00A8"/>
  <outline>
    <contour>
      <point x="498" y="1193" type="line"/>
      <point x="542" y="1380" type="line"/>
      <point x="379" y="1380" type="line"/>
      <point x="336" y="1193" type="line"/>
    </contour>
    <contour>
      <point x="841" y="1193" type="line"/>
      <point x="885" y="1380" type="line"/>
      <point x="722" y="1380" type="line"/>
      <point x="679" y="1193" type="line"/>
    </contour>
  </outline>
</glyph>
<glyph name="copyright" format="2">
  <advance width="1852"/>
  <unicode hex="00A9"/>
  <outline>
    <contour>
      <point x="974" y="-52" type="curve" smooth="yes"/>
      <point x="1393" y="-52"/>
      <point x="1738" y="298"/>
      <point x="1738" y="724" type="curve" smooth="yes"/>
      <point x="1738" y="1146"/>
      <point x="1390" y="1499"/>
      <point x="974" y="1499" type="curve" smooth="yes"/>
      <point x="557" y="1499"/>
      <point x="211" y="1148"/>
      <point x="211" y="724" type="curve" smooth="yes"/>
      <point x="211" y="297"/>
      <point x="555" y="-52"/>
    </contour>
    <contour>
      <point x="974" y="52" type="curve" smooth="yes"/>
      <point x="619" y="52"/>
      <point x="315" y="362"/>
      <point x="315" y="724" type="curve" smooth="yes"/>
      <point x="315" y="1085"/>
      <point x="619" y="1394"/>
      <point x="974" y="1394" type="curve" smooth="yes"/>
      <point x="1327" y="1394"/>
      <point x="1632" y="1082"/>
      <point x="1632" y="724" type="curve" smooth="yes"/>
      <point x="1632" y="362"/>
      <point x="1329" y="52"/>
    </contour>
    <contour>
      <point x="991" y="315" type="curve" smooth="yes"/>
      <point x="1127" y="315"/>
      <point x="1239" y="383"/>
      <point x="1294" y="499" type="curve"/>
      <point x="1197" y="540" type="line"/>
      <point x="1164" y="469"/>
      <point x="1080" y="421"/>
      <point x="989" y="421" type="curve" smooth="yes"/>
      <point x="836" y="421"/>
      <point x="739" y="538"/>
      <point x="739" y="722" type="curve" smooth="yes"/>
      <point x="739" y="904"/>
      <point x="838" y="1023"/>
      <point x="991" y="1023" type="curve" smooth="yes"/>
      <point x="1082" y="1023"/>
      <point x="1159" y="980"/>
      <point x="1199" y="906" type="curve"/>
      <point x="1294" y="946" type="line"/>
      <point x="1239" y="1058"/>
      <point x="1122" y="1127"/>
      <point x="991" y="1127" type="curve" smooth="yes"/>
      <point x="778" y="1127"/>
      <point x="638" y="967"/>
      <point x="638" y="722" type="curve" smooth="yes"/>
      <point x="638" y="473"/>
      <point x="775" y="315"/>
    </contour>
  </outline>
  <guideline angle="0" x="0" y="2002"/>
  <guideline angle="90" x="974" y="0"/>
  <guideline angle="0" x="0" y="724"/>
</glyph>
<glyph name="ordfeminine" format="2">
  <advance width="720"/>
  <unicode hex="00AA"/>
  <anchor x="666.848" y="792" name="ogonek"/>
  <anchor x="573.08" y="1590" name="top"/>
  <anchor x="602.862" y="1719" name="center"/>
  <anchor x="365.53" y="691" name="bottom"/>
  <outline>
    <contour>
      <point x="332.846" y="729" type="curve" smooth="yes" name=".dv01"/>
      <point x="465.102" y="729"/>
      <point x="528.768" y="761.39"/>
      <point x="615.015" y="877" type="curve" name=".sh01"/>
      <point x="589.848" y="742" type="line"/>
      <point x="683.848" y="742" type="line"/>
      <point x="690.314" y="796"/>
      <point x="701.781" y="850"/>
      <point x="714.017" y="903" type="curve" smooth="yes"/>
      <point x="777.737" y="1179" type="line" smooth="yes" name=".dh03"/>
      <point x="816.27" y="1345.9"/>
      <point x="727.009" y="1468"/>
      <point x="566.458" y="1468" type="curve" smooth="yes" name=".dv06"/>
      <point x="429.436" y="1468"/>
      <point x="369.998" y="1442.42"/>
      <point x="267.522" y="1334" type="curve"/>
      <point x="331.515" y="1269" type="line"/>
      <point x="401.933" y="1350.58"/>
      <point x="452.133" y="1376"/>
      <point x="551.218" y="1376" type="curve" smooth="yes" name=".dv05"/>
      <point x="658.851" y="1376"/>
      <point x="705.229" y="1289.42"/>
      <point x="672.811" y="1149" type="curve" name=".av01"/>
      <point x="506.811" y="1149" type="line" smooth="yes" name=".dv04"/>
      <point x="287.396" y="1149"/>
      <point x="182.846" y="1088.51"/>
      <point x="149.021" y="942" type="curve" smooth="yes" name=".dh01"/>
      <point x="121.417" y="822.435"/>
      <point x="202.054" y="729"/>
    </contour>
    <contour>
      <point x="365.394" y="818" type="curve" smooth="yes" name=".dv02"/>
      <point x="287.045" y="818"/>
      <point x="242.019" y="868.357"/>
      <point x="258.098" y="938" type="curve" smooth="yes" name=".dh02"/>
      <point x="280.192" y="1033.7"/>
      <point x="346.812" y="1069"/>
      <point x="505.341" y="1069" type="curve" smooth="yes" name=".dv03"/>
      <point x="654.341" y="1069" type="line" name=".sh02"/>
      <point x="619.497" y="923.013"/>
      <point x="513.292" y="818"/>
    </contour>
  </outline>
</glyph>
<glyph name="guillemotleft" format="2">
  <advance width="1001"/>
  <unicode hex="00AB"/>
  <outline>
    <contour>
      <point x="377" y="199" type="line"/>
      <point x="408" y="350" type="line"/>
      <point x="248" y="524" type="line"/>
      <point x="492" y="696" type="line"/>
      <point x="523" y="847" type="line"/>
      <point x="87" y="523" type="line"/>
    </contour>
    <contour>
      <point x="751" y="198" type="line"/>
      <point x="782" y="350" type="line"/>
      <point x="621" y="524" type="line"/>
      <point x="865" y="696" type="line"/>
      <point x="897" y="847" type="line"/>
      <point x="460" y="523" type="line"/>
    </contour>
  </outline>
</glyph>
<glyph name="logicalnot" format="2">
  <advance width="1324"/>
  <unicode hex="00AC"/>
  <outline>
    <contour>
      <point x="1052" y="298" type="line"/>
      <point x="1052" y="814" type="line"/>
      <point x="169" y="814" type="line"/>
      <point x="169" y="697" type="line"/>
      <point x="930" y="697" type="line"/>
      <point x="930" y="298" type="line"/>
    </contour>
  </outline>
</glyph>
<glyph name="softhyphen" format="2">
  <advance width="1002"/>
  <unicode hex="00AD"/>
  <outline>
    <contour>
      <point x="851" y="608" type="line"/>
      <point x="874" y="707" type="line"/>
      <point x="219" y="707" type="line"/>
      <point x="196" y="608" type="line"/>
    </contour>
  </outline>
  <guideline angle="256.921" x="219" y="707"/>
  <guideline angle="76.9209" x="851" y="608"/>
  <guideline angle="0" x="0" y="608"/>
  <guideline angle="0" x="0" y="707"/>
</glyph>
<glyph name="uni00AD" format="2">
  <advance width="1002"/>
  <unicode hex="00AD"/>
  <outline>
    <contour>
      <point x="846.788" y="590.256" type="line"/>
      <point x="871.956" y="695.56" type="line"/>
      <point x="216.596" y="695.56" type="line"/>
      <point x="191.428" y="590.256" type="line"/>
    </contour>
  </outline>
  <guideline angle="256.921" x="219" y="707"/>
  <guideline angle="76.9209" x="851" y="608"/>
  <guideline angle="0" x="0" y="590"/>
  <guideline angle="0" x="0" y="696"/>
</glyph>
<glyph name="registered" format="2">
  <advance width="1852"/>
  <unicode hex="00AE"/>
  <outline>
    <contour>
      <point x="975.872" y="-50.176" type="curve" smooth="yes"/>
      <point x="1398.78" y="-50.176"/>
      <point x="1739.78" y="307.2"/>
      <point x="1739.78" y="726.016" type="curve" smooth="yes"/>
      <point x="1739.78" y="1143.81"/>
      <point x="1396.74" y="1501.18"/>
      <point x="975.872" y="1501.18" type="curve" smooth="yes"/>
      <point x="553.984" y="1501.18"/>
      <point x="212.992" y="1144.83"/>
      <point x="212.992" y="726.016" type="curve" smooth="yes"/>
      <point x="212.992" y="305.152"/>
      <point x="550.912" y="-50.176"/>
    </contour>
    <contour>
      <point x="975.872" y="46.08" type="curve" smooth="yes"/>
      <point x="608.256" y="46.08"/>
      <point x="308.224" y="362.496"/>
      <point x="308.224" y="726.016" type="curve" smooth="yes"/>
      <point x="308.224" y="1089.54"/>
      <point x="609.28" y="1404.93"/>
      <point x="975.872" y="1404.93" type="curve" smooth="yes"/>
      <point x="1340.42" y="1404.93"/>
      <point x="1642.5" y="1086.46"/>
      <point x="1642.5" y="726.016" type="curve" smooth="yes"/>
      <point x="1642.5" y="361.472"/>
      <point x="1343.49" y="46.08"/>
    </contour>
    <contour>
      <point x="1197.06" y="314.368" type="line"/>
      <point x="1325.06" y="314.368" type="line"/>
      <point x="1117.18" y="668.672" type="line"/>
      <point x="1236.99" y="688.128"/>
      <point x="1293.31" y="770.048"/>
      <point x="1293.31" y="888.832" type="curve" smooth="yes"/>
      <point x="1293.31" y="1057.79"/>
      <point x="1190.91" y="1122.3"/>
      <point x="1032.19" y="1122.3" type="curve" smooth="yes"/>
      <point x="727.04" y="1122.3" type="line"/>
      <point x="727.04" y="314.368" type="line"/>
      <point x="836.608" y="314.368" type="line"/>
      <point x="836.608" y="660.48" type="line"/>
      <point x="1013.76" y="660.48" type="line"/>
    </contour>
    <contour>
      <point x="1032.19" y="756.736" type="curve" smooth="yes"/>
      <point x="826.368" y="756.736" type="line"/>
      <point x="826.368" y="1022.98" type="line"/>
      <point x="1032.19" y="1022.98" type="line" smooth="yes"/>
      <point x="1125.38" y="1022.98"/>
      <point x="1195.01" y="993.28"/>
      <point x="1195.01" y="888.832" type="curve" smooth="yes"/>
      <point x="1195.01" y="786.432"/>
      <point x="1122.3" y="756.736"/>
    </contour>
  </outline>
</glyph>
<glyph name="macron" format="2">
  <advance width="898"/>
  <unicode hex="00AF"/>
  <outline>
    <contour>
      <point x="347" y="1252" type="line"/>
      <point x="895" y="1252" type="line"/>
      <point x="924" y="1374" type="line"/>
      <point x="376" y="1374" type="line"/>
    </contour>
  </outline>
</glyph>
<glyph name="degree" format="2">
  <advance width="779"/>
  <unicode hex="00B0"/>
  <outline>
    <contour>
      <point x="543" y="867" type="curve" smooth="yes"/>
      <point x="712" y="867"/>
      <point x="843" y="1000"/>
      <point x="843" y="1169" type="curve" smooth="yes"/>
      <point x="843" y="1337"/>
      <point x="711" y="1470"/>
      <point x="543" y="1470" type="curve" smooth="yes"/>
      <point x="374" y="1470"/>
      <point x="240" y="1338"/>
      <point x="240" y="1169" type="curve" smooth="yes"/>
      <point x="240" y="996"/>
      <point x="370" y="867"/>
    </contour>
    <contour>
      <point x="543" y="950" type="curve" smooth="yes"/>
      <point x="420" y="950"/>
      <point x="324" y="1046"/>
      <point x="324" y="1169" type="curve" smooth="yes"/>
      <point x="324" y="1288"/>
      <point x="424" y="1388"/>
      <point x="543" y="1388" type="curve" smooth="yes"/>
      <point x="660" y="1388"/>
      <point x="759" y="1287"/>
      <point x="759" y="1169" type="curve" smooth="yes"/>
      <point x="759" y="1049"/>
      <point x="662" y="950"/>
    </contour>
  </outline>
</glyph>
<glyph name="plusminus" format="2">
  <advance width="1360"/>
  <unicode hex="00B1"/>
  <outline>
    <contour>
      <point x="729" y="109" type="line"/>
      <point x="729" y="592" type="line"/>
      <point x="1198" y="592" type="line"/>
      <point x="1198" y="690" type="line"/>
      <point x="729" y="690" type="line"/>
      <point x="729" y="1169" type="line"/>
      <point x="630" y="1169" type="line"/>
      <point x="630" y="690" type="line"/>
      <point x="162" y="690" type="line"/>
      <point x="162" y="592" type="line"/>
      <point x="630" y="592" type="line"/>
      <point x="630" y="109" type="line"/>
    </contour>
    <contour>
      <point x="1197" y="-102" type="line"/>
      <point x="1197" y="-3" type="line"/>
      <point x="162" y="-3" type="line"/>
      <point x="162" y="-102" type="line"/>
    </contour>
  </outline>
</glyph>
<glyph name="twosuperior" format="2">
  <advance width="836"/>
  <unicode hex="00B2"/>
  <outline>
    <contour>
      <point x="631" y="500" type="line"/>
      <point x="649" y="584" type="line"/>
      <point x="115" y="584" type="line"/>
      <point x="335" y="698"/>
      <point x="762" y="993"/>
      <point x="762" y="1281" type="curve" smooth="yes"/>
      <point x="762" y="1420"/>
      <point x="658" y="1482"/>
      <point x="530" y="1482" type="curve" smooth="yes"/>
      <point x="344" y="1482"/>
      <point x="215" y="1341"/>
      <point x="174" y="1168" type="curve"/>
      <point x="261" y="1154" type="line"/>
      <point x="294" y="1277"/>
      <point x="381" y="1392"/>
      <point x="519" y="1392" type="curve" smooth="yes"/>
      <point x="605" y="1392"/>
      <point x="656" y="1349"/>
      <point x="656" y="1262" type="curve" smooth="yes"/>
      <point x="656" y="1009"/>
      <point x="198" y="708"/>
      <point x="-6" y="596" type="curve"/>
      <point x="-26" y="500" type="line"/>
    </contour>
  </outline>
</glyph>
<glyph name="threesuperior" format="2">
  <advance width="773"/>
  <unicode hex="00B3"/>
  <outline>
    <contour>
      <point x="383.272" y="482.304" type="curve" smooth="yes"/>
      <point x="589.096" y="482.304"/>
      <point x="778.536" y="620.544"/>
      <point x="778.536" y="838.656" type="curve" smooth="yes"/>
      <point x="778.536" y="928.768"/>
      <point x="736.552" y="989.184"/>
      <point x="651.56" y="1019.9" type="curve"/>
      <point x="759.08" y="1072.13"/>
      <point x="836.904" y="1172.48"/>
      <point x="836.904" y="1295.36" type="curve" smooth="yes"/>
      <point x="836.904" y="1422.34"/>
      <point x="726.312" y="1485.82"/>
      <point x="610.6" y="1485.82" type="curve" smooth="yes"/>
      <point x="455.976" y="1485.82"/>
      <point x="319.784" y="1391.62"/>
      <point x="280.872" y="1238.02" type="curve"/>
      <point x="361.768" y="1221.63" type="line"/>
      <point x="386.344" y="1324.03"/>
      <point x="493.864" y="1395.71"/>
      <point x="596.264" y="1395.71" type="curve" smooth="yes"/>
      <point x="669.992" y="1395.71"/>
      <point x="740.648" y="1352.7"/>
      <point x="740.648" y="1271.81" type="curve" smooth="yes"/>
      <point x="740.648" y="1128.45"/>
      <point x="624.936" y="1059.84"/>
      <point x="497.96" y="1059.84" type="curve" smooth="yes"/>
      <point x="466.216" y="1059.84" type="line"/>
      <point x="446.76" y="967.68" type="line"/>
      <point x="518.44" y="967.68" type="line" smooth="yes"/>
      <point x="603.432" y="967.68"/>
      <point x="687.4" y="921.6"/>
      <point x="687.4" y="827.392" type="curve" smooth="yes"/>
      <point x="687.4" y="671.744"/>
      <point x="540.968" y="569.344"/>
      <point x="395.56" y="569.344" type="curve" smooth="yes"/>
      <point x="302.376" y="569.344"/>
      <point x="207.144" y="618.496"/>
      <point x="207.144" y="721.92" type="curve" smooth="yes"/>
      <point x="207.144" y="739.328"/>
      <point x="209.192" y="756.736"/>
      <point x="213.288" y="773.12" type="curve"/>
      <point x="120.104" y="769.024" type="line"/>
      <point x="114.984" y="744.448"/>
      <point x="110.888" y="719.872"/>
      <point x="110.888" y="695.296" type="curve" smooth="yes"/>
      <point x="110.888" y="540.672"/>
      <point x="248.104" y="482.304"/>
    </contour>
  </outline>
</glyph>
<glyph name="acute" format="2">
  <advance width="550"/>
  <unicode hex="00B4"/>
  <outline>
    <contour>
      <point x="350" y="1192" type="line"/>
      <point x="692" y="1487" type="line"/>
      <point x="509" y="1487" type="line"/>
      <point x="222" y="1192" type="line"/>
    </contour>
  </outline>
</glyph>
<glyph name="micro" format="2">
  <advance width="1385"/>
  <unicode hex="00B5"/>
  <outline>
    <contour>
      <point x="530" y="-24" type="curve" smooth="yes"/>
      <point x="675" y="-24"/>
      <point x="838" y="73"/>
      <point x="915" y="194" type="curve"/>
      <point x="867" y="0" type="line"/>
      <point x="1017" y="0" type="line"/>
      <point x="1262" y="1064" type="line"/>
      <point x="1112" y="1064" type="line"/>
      <point x="972" y="456" type="line" smooth="yes"/>
      <point x="932" y="284"/>
      <point x="741" y="104"/>
      <point x="559" y="104" type="curve" smooth="yes"/>
      <point x="441" y="104"/>
      <point x="390" y="162"/>
      <point x="390" y="278" type="curve" smooth="yes"/>
      <point x="390" y="326"/>
      <point x="400" y="370"/>
      <point x="410" y="416" type="curve" smooth="yes"/>
      <point x="556" y="1064" type="line"/>
      <point x="409" y="1064" type="line"/>
      <point x="98" y="-273" type="line"/>
      <point x="225" y="-273" type="line"/>
      <point x="328" y="38" type="line"/>
      <point x="388" y="-6"/>
      <point x="456" y="-24"/>
    </contour>
  </outline>
</glyph>
<glyph name="uni00B5" format="2">
  <advance width="1385"/>
  <unicode hex="00B5"/>
  <outline>
    <contour>
      <point x="225.28" y="-273.408" type="line"/>
      <point x="327.68" y="37.888" type="line"/>
      <point x="388.096" y="-6.144"/>
      <point x="456.704" y="-23.552"/>
      <point x="530.432" y="-23.552" type="curve" smooth="yes"/>
      <point x="675.84" y="-23.552"/>
      <point x="838.656" y="72.704"/>
      <point x="915.456" y="193.536" type="curve"/>
      <point x="867.328" y="0" type="line"/>
      <point x="1016.83" y="0" type="line"/>
      <point x="1261.57" y="1063.94" type="line"/>
      <point x="1112.06" y="1063.94" type="line"/>
      <point x="971.776" y="455.68" type="line" smooth="yes"/>
      <point x="931.84" y="283.648"/>
      <point x="741.376" y="104.448"/>
      <point x="559.104" y="104.448" type="curve" smooth="yes"/>
      <point x="441.344" y="104.448"/>
      <point x="390.144" y="161.792"/>
      <point x="390.144" y="277.504" type="curve" smooth="yes"/>
      <point x="390.144" y="325.632"/>
      <point x="399.36" y="369.664"/>
      <point x="409.6" y="415.744" type="curve" smooth="yes"/>
      <point x="556.032" y="1063.94" type="line"/>
      <point x="408.576" y="1063.94" type="line"/>
      <point x="98.304" y="-273.408" type="line"/>
    </contour>
  </outline>
</glyph>
<glyph name="paragraph" format="2">
  <advance width="1413"/>
  <unicode hex="00B6"/>
  <outline>
    <contour>
      <point x="559.104" y="-252.928" type="line"/>
      <point x="951.296" y="1446.91" type="line"/>
      <point x="815.104" y="1446.91" type="line" smooth="yes"/>
      <point x="539.648" y="1446.91"/>
      <point x="256" y="1252.35"/>
      <point x="256" y="956.416" type="curve" smooth="yes"/>
      <point x="256" y="743.424"/>
      <point x="450.56" y="638.976"/>
      <point x="642.048" y="638.976" type="curve"/>
      <point x="430.08" y="-252.928" type="line"/>
    </contour>
    <contour>
      <point x="940.032" y="-252.928" type="line"/>
      <point x="1332.22" y="1446.91" type="line"/>
      <point x="1204.22" y="1446.91" type="line"/>
      <point x="811.008" y="-252.928" type="line"/>
    </contour>
  </outline>
</glyph>
<glyph name="periodcentered" format="2">
  <advance width="675"/>
  <unicode hex="00B7"/>
  <anchor x="416" y="848" name="_center"/>
  <outline>
    <contour>
      <point x="397.312" y="727.04" type="curve" smooth="yes"/>
      <point x="471.04" y="727.04"/>
      <point x="537.6" y="793.6"/>
      <point x="537.6" y="867.328" type="curve" smooth="yes"/>
      <point x="537.6" y="929.792"/>
      <point x="493.568" y="969.728"/>
      <point x="432.128" y="969.728" type="curve" smooth="yes"/>
      <point x="354.304" y="969.728"/>
      <point x="292.864" y="906.24"/>
      <point x="292.864" y="829.44" type="curve" smooth="yes"/>
      <point x="292.864" y="768"/>
      <point x="335.872" y="727.04"/>
    </contour>
  </outline>
</glyph>
<glyph name="cedilla" format="2">
  <advance width="549"/>
  <unicode hex="00B8"/>
  <outline>
    <contour>
      <point x="52.944" y="-514.048" type="curve" smooth="yes"/>
      <point x="201.424" y="-514.048"/>
      <point x="285.392" y="-441.344"/>
      <point x="285.392" y="-294.912" type="curve" smooth="yes"/>
      <point x="285.392" y="-203.776"/>
      <point x="224.976" y="-141.312"/>
      <point x="120.528" y="-125.952" type="curve"/>
      <point x="232.144" y="0" type="line"/>
      <point x="115.408" y="0" type="line"/>
      <point x="-22.832" y="-174.08" type="line"/>
      <point x="-7.472" y="-195.584" type="line"/>
      <point x="48.848" y="-195.584" type="line" smooth="yes"/>
      <point x="121.552" y="-195.584"/>
      <point x="187.088" y="-232.448"/>
      <point x="187.088" y="-296.96" type="curve" smooth="yes"/>
      <point x="187.088" y="-376.832"/>
      <point x="143.056" y="-418.816"/>
      <point x="59.088" y="-418.816" type="curve" smooth="yes"/>
      <point x="11.984" y="-418.816"/>
      <point x="-35.12" y="-386.048"/>
      <point x="-44.336" y="-347.136" type="curve"/>
      <point x="-143.664" y="-384" type="line"/>
      <point x="-124.208" y="-452.608"/>
      <point x="-31.024" y="-514.048"/>
    </contour>
  </outline>
</glyph>
<glyph name="onesuperior" format="2">
  <advance width="921"/>
  <unicode hex="00B9"/>
  <outline>
    <contour>
      <point x="565.232" y="931.712" type="line"/>
      <point x="802.8" y="1900.42" type="line"/>
      <point x="704.496" y="1900.42" type="line"/>
      <point x="682.992" y="1794.94"/>
      <point x="623.6" y="1760.13"/>
      <point x="520.176" y="1760.13" type="curve" smooth="yes"/>
      <point x="410.8" y="1760.13" type="line"/>
      <point x="392.176" y="1677.18" type="line"/>
      <point x="645.104" y="1677.18" type="line"/>
      <point x="463.856" y="931.712" type="line"/>
    </contour>
  </outline>
</glyph>
<glyph name="ordmasculine" format="2">
  <advance width="849"/>
  <unicode hex="00BA"/>
  <anchor x="649.47" y="1490.5" name="top"/>
  <anchor x="534.732" y="691.857" name="ogonek"/>
  <anchor x="1071.57" y="1404.74" name="pos"/>
  <anchor x="459.525" y="611.457" name="bottom"/>
  <outline>
    <contour>
      <point x="483.045" y="728.136" type="curve" smooth="yes"/>
      <point x="716.655" y="728.136"/>
      <point x="904.47" y="958.316"/>
      <point x="904.47" y="1183.18" type="curve" smooth="yes"/>
      <point x="904.47" y="1345.78"/>
      <point x="799.843" y="1468.42"/>
      <point x="634.84" y="1468.42" type="curve" smooth="yes"/>
      <point x="398.829" y="1468.42"/>
      <point x="214.445" y="1231.2"/>
      <point x="214.445" y="1005.14" type="curve" smooth="yes"/>
      <point x="214.445" y="842.54"/>
      <point x="318.901" y="728.136"/>
    </contour>
    <contour>
      <point x="489.735" y="824.872" type="curve" smooth="yes"/>
      <point x="384.421" y="824.872"/>
      <point x="325.418" y="895.539"/>
      <point x="325.418" y="997.936" type="curve" smooth="yes"/>
      <point x="325.418" y="1165.34"/>
      <point x="443.596" y="1371.68"/>
      <point x="627.98" y="1371.68" type="curve" smooth="yes"/>
      <point x="735.351" y="1371.68"/>
      <point x="792.982" y="1299.98"/>
      <point x="792.982" y="1195.18" type="curve" smooth="yes"/>
      <point x="792.982" y="1025.89"/>
      <point x="677.892" y="824.872"/>
    </contour>
  </outline>
  <guideline angle="90" name="vertical" x="643.44" y="0"/>
</glyph>
<glyph name="guillemotright" format="2">
  <advance width="1001"/>
  <unicode hex="00BB"/>
  <outline>
    <contour>
      <point x="105" y="199" type="line"/>
      <point x="541" y="524" type="line"/>
      <point x="252" y="847" type="line"/>
      <point x="221" y="695" type="line"/>
      <point x="381" y="523" type="line"/>
      <point x="136" y="349" type="line"/>
    </contour>
    <contour>
      <point x="477" y="199" type="line"/>
      <point x="915" y="524" type="line"/>
      <point x="624" y="847" type="line"/>
      <point x="593" y="695" type="line"/>
      <point x="753" y="523" type="line"/>
      <point x="509" y="349" type="line"/>
    </contour>
  </outline>
</glyph>
<glyph name="questiondown" format="2">
  <advance width="1064"/>
  <unicode hex="00BF"/>
  <outline>
    <contour>
      <point x="702.464" y="841.728" type="line"/>
      <point x="745.472" y="1021.95" type="line"/>
      <point x="562.176" y="1021.95" type="line"/>
      <point x="520.192" y="841.728" type="line"/>
    </contour>
    <contour>
      <point x="335.872" y="-445.44" type="curve" smooth="yes"/>
      <point x="564.224" y="-445.44"/>
      <point x="757.76" y="-300.032"/>
      <point x="815.104" y="-77.824" type="curve"/>
      <point x="689.152" y="-64.512" type="line"/>
      <point x="645.12" y="-223.232"/>
      <point x="495.616" y="-327.68"/>
      <point x="333.824" y="-327.68" type="curve" smooth="yes"/>
      <point x="223.232" y="-327.68"/>
      <point x="109.568" y="-289.792"/>
      <point x="109.568" y="-159.744" type="curve" smooth="yes"/>
      <point x="109.568" y="2.048"/>
      <point x="210.944" y="86.016"/>
      <point x="348.16" y="151.552" type="curve" smooth="yes"/>
      <point x="529.408" y="236.544"/>
      <point x="552.96" y="294.912"/>
      <point x="595.968" y="489.472" type="curve" smooth="yes"/>
      <point x="630.784" y="646.144" type="line"/>
      <point x="508.928" y="646.144" type="line"/>
      <point x="452.608" y="405.504" type="line" smooth="yes"/>
      <point x="431.104" y="315.392"/>
      <point x="364.544" y="271.36"/>
      <point x="240.64" y="216.064" type="curve" smooth="yes"/>
      <point x="79.872" y="144.384"/>
      <point x="-15.36" y="14.336"/>
      <point x="-15.36" y="-163.84" type="curve" smooth="yes"/>
      <point x="-15.36" y="-366.592"/>
      <point x="156.672" y="-445.44"/>
    </contour>
  </outline>
</glyph>
<glyph name="AE" format="2">
  <advance width="1867"/>
  <unicode hex="00C6"/>
  <anchor x="1331" y="1620" name="top"/>
  <outline>
    <contour>
      <point x="1628.16" y="0" type="line"/>
      <point x="1654.78" y="118.784" type="line"/>
      <point x="887.808" y="118.784" type="line"/>
      <point x="1012.74" y="663.552" type="line"/>
      <point x="1690.62" y="663.552" type="line"/>
      <point x="1717.25" y="782.336" type="line"/>
      <point x="1041.41" y="782.336" type="line"/>
      <point x="1168.38" y="1336.32" type="line"/>
      <point x="1935.36" y="1336.32" type="line"/>
      <point x="1960.96" y="1447.94" type="line"/>
      <point x="829.44" y="1447.94" type="line"/>
      <point x="-35.84" y="0" type="line"/>
      <point x="112.64" y="0" type="line"/>
      <point x="299.008" y="314.368" type="line"/>
      <point x="792.576" y="314.368" type="line"/>
      <point x="720.896" y="0" type="line"/>
    </contour>
    <contour>
      <point x="823.296" y="444.416" type="line"/>
      <point x="370.688" y="444.416" type="line"/>
      <point x="899.072" y="1336.32" type="line"/>
      <point x="1029.12" y="1336.32" type="line"/>
    </contour>
  </outline>
  <guideline angle="90" name="vertical" x="1331" y="0"/>
</glyph>
<glyph name="Ccedilla" format="2">
  <advance width="1459"/>
  <unicode hex="00C7"/>
  <anchor x="993" y="1620" name="top"/>
  <anchor x="646" y="0" name="cedilla"/>
  <outline>
    <contour>
      <point x="534" y="-514" type="curve" smooth="yes"/>
      <point x="682" y="-514"/>
      <point x="766" y="-441"/>
      <point x="766" y="-295" type="curve" smooth="yes"/>
      <point x="766" y="-204"/>
      <point x="706" y="-141"/>
      <point x="602" y="-126" type="curve"/>
      <point x="697" y="-19" type="line"/>
      <point x="952" y="-2"/>
      <point x="1160" y="143"/>
      <point x="1303" y="354" type="curve"/>
      <point x="1187" y="419" type="line"/>
      <point x="1069" y="223"/>
      <point x="893" y="116"/>
      <point x="664" y="116" type="curve" smooth="yes"/>
      <point x="409" y="116"/>
      <point x="282" y="249"/>
      <point x="282" y="503" type="curve" smooth="yes"/>
      <point x="282" y="885"/>
      <point x="514" y="1339"/>
      <point x="943" y="1339" type="curve" smooth="yes"/>
      <point x="1139" y="1339"/>
      <point x="1312" y="1256"/>
      <point x="1331" y="1041" type="curve"/>
      <point x="1461" y="1090" type="line"/>
      <point x="1415" y="1349"/>
      <point x="1215" y="1470"/>
      <point x="963" y="1470" type="curve" smooth="yes"/>
      <point x="446" y="1470"/>
      <point x="139" y="961"/>
      <point x="139" y="494" type="curve" smooth="yes"/>
      <point x="139" y="192"/>
      <point x="296" y="6"/>
      <point x="582" y="-18" type="curve"/>
      <point x="458" y="-174" type="line"/>
      <point x="474" y="-196" type="line"/>
      <point x="530" y="-196" type="line" smooth="yes"/>
      <point x="603" y="-196"/>
      <point x="668" y="-232"/>
      <point x="668" y="-297" type="curve" smooth="yes"/>
      <point x="668" y="-377"/>
      <point x="624" y="-419"/>
      <point x="540" y="-419" type="curve" smooth="yes"/>
      <point x="493" y="-419"/>
      <point x="446" y="-386"/>
      <point x="437" y="-347" type="curve"/>
      <point x="337" y="-384" type="line"/>
      <point x="356" y="-453"/>
      <point x="450" y="-514"/>
    </contour>
  </outline>
  <guideline angle="90" name="vertical" x="993" y="0"/>
</glyph>
<glyph name="Eth" format="2">
  <advance width="1467"/>
  <unicode hex="00D0"/>
  <outline>
    <contour>
      <point x="193.536" y="780.288" type="line"/>
      <point x="167.936" y="678.912" type="line"/>
      <point x="822.272" y="678.912" type="line"/>
      <point x="846.848" y="780.288" type="line"/>
    </contour>
    <contour>
      <point x="488.064" y="0" type="line" smooth="yes"/>
      <point x="1046.14" y="0"/>
      <point x="1401.47" y="404.48"/>
      <point x="1401.47" y="937.984" type="curve" smooth="yes"/>
      <point x="1401.47" y="1335.3"/>
      <point x="1115.78" y="1446.91"/>
      <point x="767.616" y="1446.91" type="curve" smooth="yes"/>
      <point x="461.44" y="1446.91" type="line"/>
      <point x="127.616" y="0" type="line"/>
    </contour>
    <contour>
      <point x="482.944" y="126.976" type="curve" smooth="yes"/>
      <point x="297.6" y="126.976" type="line"/>
      <point x="574.08" y="1323.01" type="line"/>
      <point x="791.168" y="1323.01" type="line" smooth="yes"/>
      <point x="1057.41" y="1323.01"/>
      <point x="1263.23" y="1221.63"/>
      <point x="1263.23" y="926.72" type="curve" smooth="yes"/>
      <point x="1263.23" y="484.352"/>
      <point x="940.672" y="126.976"/>
    </contour>
  </outline>
</glyph>
<glyph name="multiply" format="2">
  <advance width="1146"/>
  <unicode hex="00D7"/>
  <outline>
    <contour>
      <point x="914.432" y="228.352" type="line"/>
      <point x="984.064" y="300.032" type="line"/>
      <point x="645.12" y="640" type="line"/>
      <point x="975.872" y="970.752" type="line"/>
      <point x="905.216" y="1040.38" type="line"/>
      <point x="575.488" y="708.608" type="line"/>
      <point x="233.472" y="1049.6" type="line"/>
      <point x="163.84" y="977.92" type="line"/>
      <point x="503.808" y="640" type="line"/>
      <point x="171.008" y="307.2" type="line"/>
      <point x="242.688" y="237.568" type="line"/>
      <point x="575.488" y="569.344" type="line"/>
    </contour>
  </outline>
</glyph>
<glyph name="Oslash" format="2">
  <advance width="1513"/>
  <unicode hex="00D8"/>
  <anchor x="917" y="1620" name="top"/>
  <outline>
    <contour>
      <point x="642.648" y="-23.552" type="curve" smooth="yes"/>
      <point x="1150.55" y="-23.552"/>
      <point x="1474.14" y="475.136"/>
      <point x="1474.14" y="948.224" type="curve" smooth="yes"/>
      <point x="1474.14" y="1087.49"/>
      <point x="1442.39" y="1227.78"/>
      <point x="1344.09" y="1331.2" type="curve"/>
      <point x="1435.22" y="1446.91" type="line"/>
      <point x="1315.42" y="1446.91" type="line"/>
      <point x="1271.38" y="1390.59" type="line"/>
      <point x="1181.27" y="1452.03"/>
      <point x="1071.7" y="1470.46"/>
      <point x="965.208" y="1470.46" type="curve" smooth="yes"/>
      <point x="459.352" y="1470.46"/>
      <point x="137.816" y="969.728"/>
      <point x="137.816" y="497.664" type="curve" smooth="yes"/>
      <point x="137.816" y="363.52"/>
      <point x="173.656" y="221.184"/>
      <point x="265.816" y="118.784" type="curve"/>
      <point x="171.608" y="0" type="line"/>
      <point x="292.44" y="0" type="line"/>
      <point x="337.496" y="57.344" type="line"/>
      <point x="428.632" y="-3.072"/>
      <point x="536.152" y="-23.552"/>
    </contour>
    <contour>
      <point x="355.928" y="232.448" type="line"/>
      <point x="293.464" y="311.296"/>
      <point x="274.008" y="411.648"/>
      <point x="274.008" y="509.952" type="curve" smooth="yes"/>
      <point x="274.008" y="893.952"/>
      <point x="535.128" y="1334.27"/>
      <point x="955.992" y="1334.27" type="curve" smooth="yes"/>
      <point x="1034.84" y="1334.27"/>
      <point x="1113.69" y="1320.96"/>
      <point x="1182.3" y="1278.98" type="curve"/>
    </contour>
    <contour>
      <point x="649.816" y="111.616" type="curve" smooth="yes"/>
      <point x="571.992" y="111.616"/>
      <point x="492.12" y="124.928"/>
      <point x="426.584" y="168.96" type="curve"/>
      <point x="1253.98" y="1216.51" type="line"/>
      <point x="1319.51" y="1134.59"/>
      <point x="1339.99" y="1038.34"/>
      <point x="1339.99" y="935.936" type="curve" smooth="yes"/>
      <point x="1339.99" y="549.888"/>
      <point x="1074.78" y="111.616"/>
    </contour>
  </outline>
  <guideline angle="90" name="vertical" x="917" y="0"/>
</glyph>
<glyph name="Thorn" format="2">
  <advance width="1183"/>
  <unicode hex="00DE"/>
  <outline>
    <contour>
      <point x="85" y="0" type="line"/>
      <point x="226" y="0" type="line"/>
      <point x="330" y="451" type="line"/>
      <point x="521" y="451" type="line" smooth="yes"/>
      <point x="835" y="451"/>
      <point x="1143" y="586"/>
      <point x="1143" y="938" type="curve" smooth="yes"/>
      <point x="1143" y="1152"/>
      <point x="966" y="1240"/>
      <point x="769" y="1240" type="curve" smooth="yes"/>
      <point x="512" y="1240" type="line"/>
      <point x="559" y="1447" type="line"/>
      <point x="419" y="1447" type="line"/>
    </contour>
    <contour>
      <point x="359" y="582" type="line"/>
      <point x="479" y="1099" type="line"/>
      <point x="740" y="1099" type="line" smooth="yes"/>
      <point x="860" y="1099"/>
      <point x="999" y="1058"/>
      <point x="999" y="913" type="curve" smooth="yes"/>
      <point x="999" y="695"/>
      <point x="817" y="582"/>
      <point x="614" y="582" type="curve" smooth="yes"/>
    </contour>
  </outline>
</glyph>
<glyph name="germandbls" format="2">
  <advance width="1241"/>
  <unicode hex="00DF"/>
  <outline>
    <contour>
      <point x="647.168" y="-18.432" type="curve" smooth="yes"/>
      <point x="858.112" y="-18.432"/>
      <point x="1070.08" y="149.504"/>
      <point x="1070.08" y="370.688" type="curve" smooth="yes"/>
      <point x="1070.08" y="566.272"/>
      <point x="840.704" y="625.664"/>
      <point x="840.704" y="762.88" type="curve" smooth="yes"/>
      <point x="840.704" y="940.032"/>
      <point x="1168.38" y="905.216"/>
      <point x="1168.38" y="1186.82" type="curve" smooth="yes"/>
      <point x="1168.38" y="1367.04"/>
      <point x="988.16" y="1468.42"/>
      <point x="825.344" y="1468.42" type="curve" smooth="yes"/>
      <point x="528.384" y="1468.42"/>
      <point x="380.928" y="1317.89"/>
      <point x="284.672" y="911.36" type="curve" smooth="yes"/>
      <point x="68.608" y="0" type="line"/>
      <point x="202.752" y="0" type="line"/>
      <point x="417.792" y="909.312" type="line" smooth="yes"/>
      <point x="466.944" y="1117.18"/>
      <point x="576.512" y="1345.54"/>
      <point x="823.296" y="1345.54" type="curve" smooth="yes"/>
      <point x="910.336" y="1345.54"/>
      <point x="1034.24" y="1310.72"/>
      <point x="1034.24" y="1204.22" type="curve" smooth="yes"/>
      <point x="1034.24" y="962.56"/>
      <point x="702.464" y="975.872"/>
      <point x="702.464" y="751.616" type="curve" smooth="yes"/>
      <point x="702.464" y="570.368"/>
      <point x="933.888" y="518.144"/>
      <point x="933.888" y="354.304" type="curve" smooth="yes"/>
      <point x="933.888" y="222.208"/>
      <point x="781.312" y="116.736"/>
      <point x="658.432" y="116.736" type="curve" smooth="yes"/>
      <point x="585.728" y="116.736"/>
      <point x="507.904" y="138.24"/>
      <point x="446.464" y="178.176" type="curve"/>
      <point x="367.616" y="55.296" type="line"/>
      <point x="462.848" y="9.216"/>
      <point x="540.672" y="-18.432"/>
    </contour>
  </outline>
  <guideline angle="256.667" x="233" y="692"/>
</glyph>
<glyph name="ae" format="2">
  <advance width="1765"/>
  <unicode hex="00E6"/>
  <anchor x="1022" y="1192" name="top"/>
  <outline>
    <contour>
      <point x="300" y="813" type="line"/>
      <point x="380" y="904"/>
      <point x="504" y="974"/>
      <point x="628" y="974" type="curve" smooth="yes"/>
      <point x="776" y="974"/>
      <point x="843" y="899"/>
      <point x="843" y="753" type="curve" smooth="yes"/>
      <point x="843" y="700"/>
      <point x="835" y="650"/>
      <point x="823" y="600" type="curve"/>
      <point x="480" y="600" type="line" smooth="yes"/>
      <point x="263" y="600"/>
      <point x="31" y="483"/>
      <point x="31" y="239" type="curve" smooth="yes"/>
      <point x="31" y="71"/>
      <point x="142" y="-20"/>
      <point x="305" y="-20" type="curve" smooth="yes"/>
      <point x="536" y="-20"/>
      <point x="727" y="110"/>
      <point x="828" y="320" type="curve"/>
      <point x="789" y="327" type="line"/>
      <point x="789" y="100"/>
      <point x="931" y="-12"/>
      <point x="1138" y="-12" type="curve" smooth="yes"/>
      <point x="1310" y="-12"/>
      <point x="1435" y="34"/>
      <point x="1568" y="140" type="curve"/>
      <point x="1489" y="218" type="line"/>
      <point x="1385" y="131"/>
      <point x="1283" y="103"/>
      <point x="1150" y="103" type="curve" smooth="yes"/>
      <point x="989" y="103"/>
      <point x="903" y="203"/>
      <point x="903" y="361" type="curve" smooth="yes"/>
      <point x="903" y="406"/>
      <point x="908" y="449"/>
      <point x="920" y="489" type="curve"/>
      <point x="1659" y="489" type="line"/>
      <point x="1677" y="536"/>
      <point x="1700" y="685"/>
      <point x="1700" y="736" type="curve" smooth="yes"/>
      <point x="1700" y="966"/>
      <point x="1571" y="1077"/>
      <point x="1347" y="1077" type="curve" smooth="yes"/>
      <point x="1182" y="1077"/>
      <point x="1054" y="999"/>
      <point x="952" y="872" type="curve"/>
      <point x="925" y="1031"/>
      <point x="794" y="1081"/>
      <point x="648" y="1081" type="curve" smooth="yes"/>
      <point x="469" y="1081"/>
      <point x="332" y="1012"/>
      <point x="206" y="889" type="curve"/>
    </contour>
    <contour>
      <point x="945" y="602" type="line"/>
      <point x="991" y="787"/>
      <point x="1127" y="958"/>
      <point x="1333" y="958" type="curve" smooth="yes"/>
      <point x="1489" y="958"/>
      <point x="1578" y="884"/>
      <point x="1578" y="724" type="curve" smooth="yes"/>
      <point x="1578" y="683"/>
      <point x="1573" y="641"/>
      <point x="1563" y="602" type="curve"/>
    </contour>
    <contour>
      <point x="802" y="489" type="line"/>
      <point x="738" y="289"/>
      <point x="591" y="92"/>
      <point x="356" y="92" type="curve" smooth="yes"/>
      <point x="269" y="92"/>
      <point x="170" y="147"/>
      <point x="170" y="245" type="curve" smooth="yes"/>
      <point x="170" y="392"/>
      <point x="325" y="489"/>
      <point x="459" y="489" type="curve" smooth="yes"/>
    </contour>
  </outline>
  <guideline angle="90" name="vertical" x="1022" y="0"/>
</glyph>
<glyph name="ccedilla" format="2">
  <advance width="1022"/>
  <unicode hex="00E7"/>
  <anchor x="666" y="1192" name="top"/>
  <anchor x="451" y="0" name="cedilla"/>
  <outline>
    <contour>
      <point x="338.94" y="-514.04" type="curve" smooth="yes"/>
      <point x="487.42" y="-514.04"/>
      <point x="571.39" y="-441.34"/>
      <point x="571.39" y="-294.91" type="curve" smooth="yes"/>
      <point x="571.39" y="-203.77"/>
      <point x="510.97" y="-141.31"/>
      <point x="406.52" y="-125.95" type="curve"/>
      <point x="503.37" y="-16.66" type="line"/>
      <point x="665.07" y="3.61001"/>
      <point x="800.76" y="103.67"/>
      <point x="883.71" y="246.78" type="curve"/>
      <point x="779.26" y="307.2" type="line"/>
      <point x="718.84" y="187.39"/>
      <point x="587.77" y="95.23"/>
      <point x="450.56" y="95.23" type="curve" smooth="yes"/>
      <point x="279.55" y="95.23"/>
      <point x="221.18" y="215.04"/>
      <point x="221.18" y="368.64" type="curve" smooth="yes"/>
      <point x="221.18" y="611.32"/>
      <point x="368.64" y="963.58"/>
      <point x="652.28" y="963.58" type="curve" smooth="yes"/>
      <point x="775.16" y="963.58"/>
      <point x="871.42" y="885.76"/>
      <point x="879.61" y="759.8" type="curve"/>
      <point x="1011.71" y="811" type="line"/>
      <point x="969.72" y="986.11"/>
      <point x="844.8" y="1081.33"/>
      <point x="665.6" y="1081.33" type="curve" smooth="yes"/>
      <point x="309.24" y="1081.33"/>
      <point x="89.08" y="692.22"/>
      <point x="89.08" y="372.73" type="curve" smooth="yes"/>
      <point x="89.08" y="164.35"/>
      <point x="184.61" y="6.35002"/>
      <point x="387.61" y="-17.36" type="curve"/>
      <point x="263.16" y="-174.08" type="line"/>
      <point x="278.52" y="-195.58" type="line"/>
      <point x="334.84" y="-195.58" type="line" smooth="yes"/>
      <point x="407.55" y="-195.58"/>
      <point x="473.08" y="-232.44"/>
      <point x="473.08" y="-296.95" type="curve" smooth="yes"/>
      <point x="473.08" y="-376.83"/>
      <point x="429.05" y="-418.81"/>
      <point x="345.08" y="-418.81" type="curve" smooth="yes"/>
      <point x="297.98" y="-418.81"/>
      <point x="250.87" y="-386.04"/>
      <point x="241.66" y="-347.13" type="curve"/>
      <point x="142.33" y="-384" type="line"/>
      <point x="161.79" y="-452.6"/>
      <point x="254.97" y="-514.04"/>
    </contour>
  </outline>
  <guideline angle="90" name="vertical" x="666" y="0"/>
</glyph>
<glyph name="eth" format="2">
  <advance width="1219"/>
  <unicode hex="00F0"/>
  <outline>
    <contour>
      <point x="494" y="-16" type="curve" smooth="yes"/>
      <point x="945" y="-16"/>
      <point x="1141" y="475"/>
      <point x="1141" y="863" type="curve" smooth="yes"/>
      <point x="1141" y="1093"/>
      <point x="1067" y="1277"/>
      <point x="884" y="1421" type="curve"/>
      <point x="976" y="1511" type="line"/>
      <point x="890" y="1564" type="line"/>
      <point x="799" y="1475" type="line"/>
      <point x="747" y="1507"/>
      <point x="690" y="1532"/>
      <point x="634" y="1550" type="curve"/>
      <point x="546" y="1462" type="line"/>
      <point x="603" y="1438"/>
      <point x="657" y="1413"/>
      <point x="710" y="1384" type="curve"/>
      <point x="573" y="1251" type="line"/>
      <point x="657" y="1198" type="line"/>
      <point x="792" y="1330" type="line"/>
      <point x="887" y="1257"/>
      <point x="980" y="1095"/>
      <point x="980" y="972" type="curve"/>
      <point x="929" y="1056"/>
      <point x="787" y="1085"/>
      <point x="696" y="1085" type="curve" smooth="yes"/>
      <point x="343" y="1085"/>
      <point x="94" y="735"/>
      <point x="94" y="404" type="curve" smooth="yes"/>
      <point x="94" y="154"/>
      <point x="236" y="-16"/>
    </contour>
    <contour>
      <point x="494" y="110" type="curve" smooth="yes"/>
      <point x="315" y="110"/>
      <point x="242" y="233"/>
      <point x="242" y="397" type="curve" smooth="yes"/>
      <point x="242" y="664"/>
      <point x="421" y="978"/>
      <point x="718" y="978" type="curve" smooth="yes"/>
      <point x="882" y="978"/>
      <point x="970" y="862"/>
      <point x="970" y="705" type="curve" smooth="yes"/>
      <point x="970" y="446"/>
      <point x="785" y="110"/>
    </contour>
  </outline>
</glyph>
<glyph name="divide" format="2">
  <advance width="930"/>
  <unicode hex="00F7"/>
  <outline>
    <contour>
      <point x="550.912" y="940.032" type="line"/>
      <point x="550.912" y="1121.28" type="line"/>
      <point x="368.64" y="1121.28" type="line"/>
      <point x="368.64" y="940.032" type="line"/>
    </contour>
    <contour>
      <point x="825.168" y="592.896" type="line"/>
      <point x="825.168" y="692.224" type="line"/>
      <point x="94.384" y="692.224" type="line"/>
      <point x="94.384" y="592.896" type="line"/>
    </contour>
    <contour>
      <point x="550.912" y="145.408" type="line"/>
      <point x="550.912" y="325.632" type="line"/>
      <point x="368.64" y="325.632" type="line"/>
      <point x="368.64" y="145.408" type="line"/>
    </contour>
  </outline>
</glyph>
<glyph name="oslash" format="2">
  <advance width="1182"/>
  <unicode hex="00F8"/>
  <anchor x="743" y="1192" name="top"/>
  <outline>
    <contour>
      <point x="474.112" y="-20.48" type="curve" smooth="yes"/>
      <point x="822.272" y="-20.48"/>
      <point x="1095.68" y="332.8"/>
      <point x="1095.68" y="664.576" type="curve" smooth="yes"/>
      <point x="1095.68" y="778.24"/>
      <point x="1061.89" y="888.832"/>
      <point x="984.064" y="974.848" type="curve"/>
      <point x="1053.7" y="1062.91" type="line"/>
      <point x="969.728" y="1062.91" type="line"/>
      <point x="931.84" y="1015.81" type="line"/>
      <point x="863.232" y="1059.84"/>
      <point x="787.456" y="1077.25"/>
      <point x="706.56" y="1077.25" type="curve" smooth="yes"/>
      <point x="357.376" y="1077.25"/>
      <point x="86.016" y="722.944"/>
      <point x="86.016" y="391.168" type="curve" smooth="yes"/>
      <point x="86.016" y="276.48"/>
      <point x="117.76" y="166.912"/>
      <point x="196.608" y="80.896" type="curve"/>
      <point x="133.12" y="1.024" type="line"/>
      <point x="218.112" y="1.024" type="line"/>
      <point x="248.832" y="38.912" type="line"/>
      <point x="317.44" y="-5.12"/>
      <point x="393.216" y="-20.48"/>
    </contour>
    <contour>
      <point x="281.6" y="188.416" type="line"/>
      <point x="240.64" y="242.688"/>
      <point x="223.232" y="309.248"/>
      <point x="223.232" y="375.808" type="curve" smooth="yes"/>
      <point x="223.232" y="635.904"/>
      <point x="407.552" y="956.416"/>
      <point x="698.368" y="956.416" type="curve" smooth="yes"/>
      <point x="751.616" y="956.416"/>
      <point x="805.888" y="946.176"/>
      <point x="851.968" y="917.504" type="curve"/>
    </contour>
    <contour>
      <point x="482.304" y="99.328" type="curve" smooth="yes"/>
      <point x="429.056" y="99.328"/>
      <point x="375.808" y="110.592"/>
      <point x="330.752" y="140.288" type="curve"/>
      <point x="903.168" y="870.4" type="line"/>
      <point x="943.104" y="816.128"/>
      <point x="958.464" y="749.568"/>
      <point x="958.464" y="683.008" type="curve" smooth="yes"/>
      <point x="958.464" y="417.792"/>
      <point x="777.216" y="99.328"/>
    </contour>
  </outline>
  <guideline angle="90" name="vertical" x="743" y="0"/>
</glyph>
<glyph name="thorn" format="2">
  <advance width="1212"/>
  <unicode hex="00FE"/>
  <outline>
    <contour>
      <point x="101" y="-450" type="line"/>
      <point x="258" y="184" type="line"/>
      <point x="304" y="37"/>
      <point x="423" y="-20"/>
      <point x="571" y="-20" type="curve" smooth="yes"/>
      <point x="918" y="-20"/>
      <point x="1112" y="419"/>
      <point x="1112" y="717" type="curve" smooth="yes"/>
      <point x="1112" y="919"/>
      <point x="1026" y="1085"/>
      <point x="802" y="1085" type="curve" smooth="yes"/>
      <point x="639" y="1085"/>
      <point x="511" y="1020"/>
      <point x="413" y="892" type="curve"/>
      <point x="557" y="1447" type="line"/>
      <point x="425" y="1447" type="line"/>
      <point x="-31" y="-450" type="line"/>
    </contour>
    <contour>
      <point x="534" y="85" type="curve" smooth="yes"/>
      <point x="362" y="85"/>
      <point x="295" y="200"/>
      <point x="295" y="359" type="curve" smooth="yes"/>
      <point x="295" y="615"/>
      <point x="463" y="979"/>
      <point x="759" y="979" type="curve" smooth="yes"/>
      <point x="926" y="979"/>
      <point x="991" y="860"/>
      <point x="991" y="708" type="curve" smooth="yes"/>
      <point x="991" y="453"/>
      <point x="833" y="85"/>
    </contour>
  </outline>
</glyph>
<glyph name="dcaron" format="2">
  <advance width="1325"/>
  <unicode hex="010F"/>
  <outline>
    <contour>
      <point x="1365" y="1097" type="line"/>
      <point x="1674" y="1447" type="line"/>
      <point x="1457" y="1447" type="line"/>
      <point x="1256" y="1097" type="line"/>
    </contour>
    <contour>
      <point x="417" y="-20" type="curve" smooth="yes"/>
      <point x="565" y="-20"/>
      <point x="682" y="32"/>
      <point x="781" y="142" type="curve"/>
      <point x="751" y="0" type="line"/>
      <point x="884" y="0" type="line"/>
      <point x="1231" y="1447" type="line"/>
      <point x="1097" y="1447" type="line"/>
      <point x="954" y="906" type="line"/>
      <point x="895" y="1034"/>
      <point x="783" y="1085"/>
      <point x="647" y="1085" type="curve" smooth="yes"/>
      <point x="300" y="1085"/>
      <point x="95" y="661"/>
      <point x="95" y="358" type="curve" smooth="yes"/>
      <point x="95" y="151"/>
      <point x="188" y="-20"/>
    </contour>
    <contour>
      <point x="456" y="97" type="curve" smooth="yes"/>
      <point x="292" y="97"/>
      <point x="227" y="209"/>
      <point x="227" y="360" type="curve" smooth="yes"/>
      <point x="227" y="613"/>
      <point x="384" y="965"/>
      <point x="677" y="965" type="curve" smooth="yes"/>
      <point x="840" y="965"/>
      <point x="905" y="856"/>
      <point x="905" y="705" type="curve" smooth="yes"/>
      <point x="905" y="453"/>
      <point x="750" y="97"/>
    </contour>
  </outline>
</glyph>
<glyph name="dcroat" format="2">
  <advance width="1201"/>
  <unicode hex="0111"/>
  <outline>
    <component base="d"/>
    <contour>
      <point x="735.232" y="1319.94" type="line"/>
      <point x="709.632" y="1212.42" type="line"/>
      <point x="1383.42" y="1212.42" type="line"/>
      <point x="1410.05" y="1319.94" type="line"/>
    </contour>
  </outline>
</glyph>
<glyph name="Hbar" format="2">
  <advance width="1493"/>
  <unicode hex="0126"/>
  <outline>
    <contour>
      <point x="267" y="1210" type="line"/>
      <point x="245" y="1104" type="line"/>
      <point x="1519" y="1104" type="line"/>
      <point x="1541" y="1210" type="line"/>
    </contour>
    <contour>
      <point x="1147" y="0" type="line"/>
      <point x="1481" y="1448" type="line"/>
      <point x="1340" y="1448" type="line"/>
      <point x="1188" y="780" type="line"/>
      <point x="433" y="780" type="line"/>
      <point x="585" y="1448" type="line"/>
      <point x="445" y="1448" type="line"/>
      <point x="112" y="0" type="line"/>
      <point x="252" y="0" type="line"/>
      <point x="404" y="668" type="line"/>
      <point x="1159" y="668" type="line"/>
      <point x="1008" y="0" type="line"/>
    </contour>
  </outline>
  <guideline angle="258.408" x="261" y="1182"/>
  <guideline angle="78.4078" x="1519" y="1104"/>
</glyph>
<glyph name="hbar" format="2">
  <advance width="1183"/>
  <unicode hex="0127"/>
  <outline>
    <contour>
      <point x="171" y="1292" type="line"/>
      <point x="145" y="1186" type="line"/>
      <point x="819" y="1186" type="line"/>
      <point x="846" y="1292" type="line"/>
    </contour>
    <contour>
      <point x="763" y="0" type="line"/>
      <point x="900" y="0" type="line"/>
      <point x="1047" y="653" type="line" smooth="yes"/>
      <point x="1057" y="700"/>
      <point x="1063" y="748"/>
      <point x="1063" y="793" type="curve" smooth="yes"/>
      <point x="1063" y="949"/>
      <point x="992" y="1084"/>
      <point x="785" y="1084" type="curve" smooth="yes"/>
      <point x="646" y="1084"/>
      <point x="511" y="984"/>
      <point x="411" y="876" type="curve"/>
      <point x="350" y="876" type="line"/>
      <point x="285" y="579" type="line"/>
      <point x="333" y="579" type="line"/>
      <point x="382" y="769"/>
      <point x="556" y="960"/>
      <point x="761" y="960" type="curve" smooth="yes"/>
      <point x="879" y="960"/>
      <point x="928" y="891"/>
      <point x="928" y="779" type="curve" smooth="yes"/>
      <point x="928" y="730"/>
      <point x="925" y="691"/>
      <point x="889" y="540" type="curve" smooth="yes"/>
    </contour>
    <contour>
      <point x="62" y="0" type="line"/>
      <point x="194" y="0" type="line"/>
      <point x="541" y="1448" type="line"/>
      <point x="409" y="1448" type="line"/>
    </contour>
  </outline>
</glyph>
<glyph name="dotlessi" format="2">
  <advance width="489"/>
  <unicode hex="0131"/>
  <anchor x="389" y="1192" name="top"/>
  <outline>
    <contour>
      <point x="190" y="0" type="line"/>
      <point x="441" y="1064" type="line"/>
      <point x="308" y="1064" type="line"/>
      <point x="57" y="0" type="line"/>
    </contour>
  </outline>
  <guideline angle="90" name="vertical" x="389" y="0"/>
</glyph>
<glyph name="kgreenlandic" format="2">
  <advance width="1102"/>
  <unicode hex="0138"/>
  <outline>
    <contour>
      <point x="905.216" y="0" type="line"/>
      <point x="654.336" y="672.768" type="line"/>
      <point x="1082.37" y="1063.94" type="line"/>
      <point x="913.408" y="1063.94" type="line"/>
      <point x="287.744" y="488.448" type="line"/>
      <point x="420.864" y="1063.94" type="line"/>
      <point x="285.696" y="1063.94" type="line"/>
      <point x="40.9601" y="0" type="line"/>
      <point x="177.152" y="0" type="line"/>
      <point x="249.856" y="310.272" type="line"/>
      <point x="547.84" y="569.344" type="line"/>
      <point x="746.496" y="0" type="line"/>
    </contour>
  </outline>
</glyph>
<glyph name="Lcaron" format="2">
  <advance width="1066"/>
  <unicode hex="013D"/>
  <anchor x="506" y="1620" name="top"/>
  <anchor x="505" y="-120" name="bottom"/>
  <outline>
    <contour>
      <point x="871.424" y="0" type="line"/>
      <point x="899.072" y="125.952" type="line"/>
      <point x="279.552" y="125.952" type="line"/>
      <point x="584.704" y="1447.94" type="line"/>
      <point x="445.44" y="1447.94" type="line"/>
      <point x="111.616" y="0" type="line"/>
    </contour>
    <contour>
      <point x="899" y="1066" type="line"/>
      <point x="1200" y="1448" type="line"/>
      <point x="989" y="1448" type="line"/>
      <point x="793" y="1066" type="line"/>
    </contour>
  </outline>
</glyph>
<glyph name="lcaron" format="2">
  <advance width="649"/>
  <unicode hex="013E"/>
  <outline>
    <contour>
      <point x="690" y="1057" type="line"/>
      <point x="998" y="1448" type="line"/>
      <point x="782" y="1448" type="line"/>
      <point x="582" y="1057" type="line"/>
    </contour>
    <contour>
      <point x="199" y="-20" type="curve" smooth="yes"/>
      <point x="243" y="-20"/>
      <point x="286" y="-14"/>
      <point x="328" y="-2" type="curve"/>
      <point x="348" y="105" type="line"/>
      <point x="315" y="95"/>
      <point x="282" y="90"/>
      <point x="247" y="90" type="curve" smooth="yes"/>
      <point x="223" y="90"/>
      <point x="203" y="104"/>
      <point x="203" y="129" type="curve"/>
      <point x="518" y="1448" type="line"/>
      <point x="380" y="1448" type="line"/>
      <point x="82" y="178" type="line" smooth="yes"/>
      <point x="75" y="149"/>
      <point x="68" y="121"/>
      <point x="68" y="91" type="curve" smooth="yes"/>
      <point x="68" y="4"/>
      <point x="120" y="-20"/>
    </contour>
  </outline>
</glyph>
<glyph name="ldot" format="2">
  <advance width="797"/>
  <unicode hex="0140"/>
  <anchor x="441" y="1620" name="top"/>
  <anchor x="157" y="-120" name="bottom"/>
  <outline>
    <contour>
      <point x="199" y="-20" type="curve" smooth="yes"/>
      <point x="243" y="-20"/>
      <point x="286" y="-14"/>
      <point x="328" y="-2" type="curve"/>
      <point x="348" y="105" type="line"/>
      <point x="315" y="95"/>
      <point x="282" y="90"/>
      <point x="247" y="90" type="curve" smooth="yes"/>
      <point x="223" y="90"/>
      <point x="203" y="104"/>
      <point x="203" y="129" type="curve"/>
      <point x="518" y="1448" type="line"/>
      <point x="380" y="1448" type="line"/>
      <point x="82" y="178" type="line" smooth="yes"/>
      <point x="75" y="149"/>
      <point x="68" y="121"/>
      <point x="68" y="91" type="curve" smooth="yes"/>
      <point x="68" y="4"/>
      <point x="120" y="-20"/>
    </contour>
    <contour>
      <point x="624" y="653" type="curve" smooth="yes"/>
      <point x="698" y="653"/>
      <point x="765" y="719"/>
      <point x="765" y="793" type="curve" smooth="yes"/>
      <point x="765" y="855"/>
      <point x="720" y="896"/>
      <point x="659" y="896" type="curve" smooth="yes"/>
      <point x="581" y="896"/>
      <point x="520" y="832"/>
      <point x="520" y="755" type="curve" smooth="yes"/>
      <point x="520" y="694"/>
      <point x="563" y="653"/>
    </contour>
  </outline>
</glyph>
<glyph name="Lslash" format="2">
  <advance width="1085"/>
  <unicode hex="0141"/>
  <outline>
    <component base="L" xOffset="25"/>
    <contour>
      <point x="78.848" y="576.512" type="line"/>
      <point x="38.912" y="405.504" type="line"/>
      <point x="833.536" y="871.424" type="line"/>
      <point x="871.424" y="1032.19" type="line"/>
    </contour>
  </outline>
  <guideline angle="77" x="829" y="851"/>
  <guideline angle="77" x="59" y="492"/>
  <guideline angle="30" x="878" y="890"/>
  <guideline angle="30" x="878" y="1038"/>
</glyph>
<glyph name="lslash" format="2">
  <advance width="546"/>
  <unicode hex="0142"/>
  <outline>
    <contour>
      <point x="76" y="662" type="line"/>
      <point x="39" y="502" type="line"/>
      <point x="547" y="795" type="line"/>
      <point x="583" y="955" type="line"/>
    </contour>
    <contour>
      <point x="226" y="-20" type="curve" smooth="yes"/>
      <point x="270" y="-20"/>
      <point x="313" y="-14"/>
      <point x="355" y="-2" type="curve"/>
      <point x="375" y="105" type="line"/>
      <point x="342" y="95"/>
      <point x="309" y="90"/>
      <point x="274" y="90" type="curve" smooth="yes"/>
      <point x="250" y="90"/>
      <point x="230" y="104"/>
      <point x="230" y="129" type="curve"/>
      <point x="545" y="1448" type="line"/>
      <point x="407" y="1448" type="line"/>
      <point x="109" y="178" type="line" smooth="yes"/>
      <point x="102" y="149"/>
      <point x="95" y="121"/>
      <point x="95" y="91" type="curve" smooth="yes"/>
      <point x="95" y="4"/>
      <point x="147" y="-20"/>
    </contour>
  </outline>
  <guideline angle="77" x="560" y="851"/>
  <guideline angle="77" x="37" y="492"/>
  <guideline angle="30" x="852" y="971"/>
  <guideline angle="30" x="852" y="1111"/>
</glyph>
<glyph name="Eng" format="2">
  <advance width="1450"/>
  <unicode hex="014A"/>
  <outline>
    <contour>
      <point x="697.344" y="-378.88" type="line" smooth="yes"/>
      <point x="976.896" y="-378.88"/>
      <point x="1044.48" y="-256"/>
      <point x="1101.82" y="-8.192" type="curve" smooth="yes"/>
      <point x="1438.72" y="1447.94" type="line"/>
      <point x="1298.43" y="1447.94" type="line"/>
      <point x="993.28" y="133.12" type="line"/>
      <point x="658.432" y="1447.94" type="line"/>
      <point x="441.344" y="1447.94" type="line"/>
      <point x="106.496" y="0" type="line"/>
      <point x="248.832" y="0" type="line"/>
      <point x="555.008" y="1314.82" type="line"/>
      <point x="915.456" y="-63.488" type="line" smooth="yes"/>
      <point x="918.528" y="-74.752"/>
      <point x="921.6" y="-87.04"/>
      <point x="921.6" y="-99.328" type="curve" smooth="yes"/>
      <point x="921.6" y="-209.92"/>
      <point x="806.912" y="-266.24"/>
      <point x="709.632" y="-266.24" type="curve" smooth="yes"/>
      <point x="687.104" y="-266.24" type="line"/>
      <point x="666.624" y="-378.88" type="line"/>
    </contour>
  </outline>
</glyph>
<glyph name="eng" format="2">
  <advance width="1181"/>
  <unicode hex="014B"/>
  <outline>
    <contour>
      <point x="457.728" y="-378.88" type="line"/>
      <point x="520.192" y="-378.88" type="line" smooth="yes"/>
      <point x="724.992" y="-378.88"/>
      <point x="828.416" y="-297.984"/>
      <point x="876.544" y="-89.088" type="curve" smooth="yes"/>
      <point x="1047.55" y="645.12" type="line" smooth="yes"/>
      <point x="1058.82" y="694.272"/>
      <point x="1065.98" y="742.4"/>
      <point x="1065.98" y="792.576" type="curve" smooth="yes"/>
      <point x="1065.98" y="984.064"/>
      <point x="970.752" y="1084.42"/>
      <point x="779.264" y="1084.42" type="curve" smooth="yes"/>
      <point x="633.856" y="1084.42"/>
      <point x="499.712" y="1004.54"/>
      <point x="406.528" y="894.976" type="curve"/>
      <point x="448.512" y="1063.94" type="line"/>
      <point x="310.272" y="1063.94" type="line"/>
      <point x="66.56" y="0" type="line"/>
      <point x="204.8" y="0" type="line"/>
      <point x="344.064" y="610.304" type="line" smooth="yes"/>
      <point x="385.024" y="791.552"/>
      <point x="579.584" y="953.344"/>
      <point x="765.952" y="953.344" type="curve" smooth="yes"/>
      <point x="880.64" y="953.344"/>
      <point x="931.84" y="890.88"/>
      <point x="931.84" y="779.264" type="curve" smooth="yes"/>
      <point x="931.84" y="735.232"/>
      <point x="924.672" y="693.248"/>
      <point x="914.432" y="649.216" type="curve" smooth="yes"/>
      <point x="748.544" y="-59.392" type="line" smooth="yes"/>
      <point x="721.92" y="-174.08"/>
      <point x="663.552" y="-264.192"/>
      <point x="534.528" y="-264.192" type="curve" smooth="yes"/>
      <point x="486.4" y="-264.192" type="line"/>
    </contour>
  </outline>
</glyph>
<glyph name="OE" format="2">
  <advance width="2353"/>
  <unicode hex="0152"/>
  <outline>
    <contour>
      <point x="696" y="-20" type="curve" smooth="yes"/>
      <point x="928" y="-20"/>
      <point x="1115" y="73"/>
      <point x="1256" y="259" type="curve"/>
      <point x="1195" y="0" type="line"/>
      <point x="2118" y="0" type="line"/>
      <point x="2146" y="126" type="line"/>
      <point x="1363" y="126" type="line"/>
      <point x="1488" y="668" type="line"/>
      <point x="2167" y="668" type="line"/>
      <point x="2193" y="780" type="line"/>
      <point x="1517" y="780" type="line"/>
      <point x="1641" y="1330" type="line"/>
      <point x="2424" y="1330" type="line"/>
      <point x="2451" y="1448" type="line"/>
      <point x="1529" y="1448" type="line"/>
      <point x="1462" y="1166" type="line"/>
      <point x="1396" y="1385"/>
      <point x="1236" y="1468"/>
      <point x="1016" y="1468" type="curve" smooth="yes"/>
      <point x="498" y="1468"/>
      <point x="188" y="966"/>
      <point x="188" y="496" type="curve" smooth="yes"/>
      <point x="188" y="172"/>
      <point x="368" y="-20"/>
    </contour>
    <contour>
      <point x="713" y="110" type="curve" smooth="yes"/>
      <point x="467" y="110"/>
      <point x="334" y="256"/>
      <point x="334" y="498" type="curve" smooth="yes"/>
      <point x="334" y="886"/>
      <point x="554" y="1336"/>
      <point x="994" y="1336" type="curve" smooth="yes"/>
      <point x="1251" y="1336"/>
      <point x="1376" y="1187"/>
      <point x="1376" y="937" type="curve" smooth="yes"/>
      <point x="1376" y="558"/>
      <point x="1141" y="110"/>
    </contour>
  </outline>
</glyph>
<glyph name="Scedilla" format="2">
  <advance width="1142"/>
  <unicode hex="015E"/>
  <anchor x="742" y="1620" name="top"/>
  <anchor x="459" y="-120" name="bottom"/>
  <anchor x="510" y="0" name="cedilla"/>
  <outline>
    <contour>
      <point x="397.94" y="-514.04" type="curve" smooth="yes"/>
      <point x="546.41" y="-514.04"/>
      <point x="630.39" y="-441.34"/>
      <point x="630.39" y="-294.91" type="curve" smooth="yes"/>
      <point x="630.39" y="-203.77"/>
      <point x="569.97" y="-141.31"/>
      <point x="465.52" y="-125.95" type="curve"/>
      <point x="566.86" y="-11.6" type="line"/>
      <point x="800.24" y="18.72"/>
      <point x="1004.54" y="191.94"/>
      <point x="1004.54" y="443.39" type="curve" smooth="yes"/>
      <point x="1004.54" y="834.56"/>
      <point x="463.87" y="762.88"/>
      <point x="463.87" y="1061.88" type="curve" smooth="yes"/>
      <point x="463.87" y="1233.92"/>
      <point x="626.67" y="1344.51"/>
      <point x="786.43" y="1344.51" type="curve" smooth="yes"/>
      <point x="893.95" y="1344.51"/>
      <point x="984.06" y="1290.24"/>
      <point x="1020.92" y="1186.81" type="curve"/>
      <point x="1134.58" y="1244.16" type="line"/>
      <point x="1080.32" y="1394.68"/>
      <point x="945.15" y="1468.41"/>
      <point x="790.52" y="1468.41" type="curve" smooth="yes"/>
      <point x="549.88" y="1468.41"/>
      <point x="324.6" y="1290.24"/>
      <point x="324.6" y="1039.35" type="curve" smooth="yes"/>
      <point x="324.6" y="669.69"/>
      <point x="865.28" y="733.18"/>
      <point x="865.28" y="416.76" type="curve" smooth="yes"/>
      <point x="865.28" y="212.99"/>
      <point x="680.96" y="112.64"/>
      <point x="497.66" y="112.64" type="curve" smooth="yes"/>
      <point x="316.41" y="112.64"/>
      <point x="199.68" y="215.04"/>
      <point x="199.68" y="394.24" type="curve"/>
      <point x="64.51" y="366.59" type="line"/>
      <point x="64.51" y="132.91"/>
      <point x="235.59" y="1.36"/>
      <point x="448.73" y="-14.7" type="curve"/>
      <point x="322.16" y="-174.08" type="line"/>
      <point x="337.52" y="-195.58" type="line"/>
      <point x="393.84" y="-195.58" type="line" smooth="yes"/>
      <point x="466.55" y="-195.58"/>
      <point x="532.08" y="-232.44"/>
      <point x="532.08" y="-296.95" type="curve" smooth="yes"/>
      <point x="532.08" y="-376.83"/>
      <point x="488.05" y="-418.81"/>
      <point x="404.08" y="-418.81" type="curve" smooth="yes"/>
      <point x="356.98" y="-418.81"/>
      <point x="309.87" y="-386.04"/>
      <point x="300.66" y="-347.13" type="curve"/>
      <point x="201.33" y="-384" type="line"/>
      <point x="220.79" y="-452.6"/>
      <point x="313.97" y="-514.04"/>
    </contour>
  </outline>
  <guideline angle="90" name="vertical" x="742" y="0"/>
</glyph>
<glyph name="scedilla" format="2">
  <advance width="913"/>
  <unicode hex="015F"/>
  <anchor x="524" y="1192" name="top"/>
  <anchor x="376" y="-120" name="bottom"/>
  <outline>
    <contour>
      <point x="32.38" y="221" type="line"/>
      <point x="91.15" y="99.3"/>
      <point x="206.27" y="11.62"/>
      <point x="332.61" y="-13.59" type="curve"/>
      <point x="205.16" y="-174.08" type="line"/>
      <point x="220.52" y="-195.58" type="line"/>
      <point x="276.83" y="-195.58" type="line" smooth="yes"/>
      <point x="349.55" y="-195.58"/>
      <point x="415.08" y="-232.44"/>
      <point x="415.08" y="-296.95" type="curve" smooth="yes"/>
      <point x="415.08" y="-376.83"/>
      <point x="371.05" y="-418.81"/>
      <point x="287.08" y="-418.81" type="curve" smooth="yes"/>
      <point x="239.98" y="-418.81"/>
      <point x="192.87" y="-386.04"/>
      <point x="183.66" y="-347.13" type="curve"/>
      <point x="84.33" y="-384" type="line"/>
      <point x="103.79" y="-452.6"/>
      <point x="196.97" y="-514.04"/>
      <point x="280.94" y="-514.04" type="curve" smooth="yes"/>
      <point x="429.42" y="-514.04"/>
      <point x="513.39" y="-441.34"/>
      <point x="513.39" y="-294.91" type="curve" smooth="yes"/>
      <point x="513.39" y="-203.77"/>
      <point x="452.97" y="-141.31"/>
      <point x="348.52" y="-125.95" type="curve"/>
      <point x="443.11" y="-19.22" type="line"/>
      <point x="613.46" y="-2.48001"/>
      <point x="766.75" y="129.87"/>
      <point x="766.75" y="301.62" type="curve" smooth="yes"/>
      <point x="766.75" y="450.77"/>
      <point x="651.15" y="507.56"/>
      <point x="540.2" y="567.6" type="curve" smooth="yes"/>
      <point x="371.82" y="658.71" type="line" smooth="yes"/>
      <point x="328.53" y="682.14"/>
      <point x="308.23" y="728.89"/>
      <point x="308.23" y="780.75" type="curve" smooth="yes"/>
      <point x="308.23" y="886.88"/>
      <point x="393.3" y="959"/>
      <point x="510.78" y="959" type="curve" smooth="yes"/>
      <point x="605.51" y="959"/>
      <point x="694.09" y="900.17"/>
      <point x="732.22" y="811.92" type="curve"/>
      <point x="848.28" y="874.91" type="line"/>
      <point x="798.73" y="999.75"/>
      <point x="664.15" y="1082.98"/>
      <point x="518.07" y="1082.98" type="curve" smooth="yes"/>
      <point x="329.29" y="1082.98"/>
      <point x="171.45" y="943.97"/>
      <point x="171.45" y="765.46" type="curve" smooth="yes"/>
      <point x="171.45" y="626.32"/>
      <point x="267.35" y="567.14"/>
      <point x="369.4" y="513.15" type="curve" smooth="yes"/>
      <point x="551.46" y="416.83" type="line" smooth="yes"/>
      <point x="601.8" y="390.19"/>
      <point x="628.32" y="339.39"/>
      <point x="628.32" y="285.17" type="curve" smooth="yes"/>
      <point x="628.32" y="170.68"/>
      <point x="510.14" y="95.77"/>
      <point x="403.12" y="95.77" type="curve" smooth="yes"/>
      <point x="290.05" y="95.77"/>
      <point x="186.16" y="173.46"/>
      <point x="143.38" y="290" type="curve"/>
    </contour>
  </outline>
</glyph>
<glyph name="Tcedilla" format="2">
  <advance width="1096"/>
  <unicode hex="0162"/>
  <anchor x="683" y="1620" name="top"/>
  <anchor x="281" y="-120" name="bottom"/>
  <anchor x="327" y="0" name="cedilla"/>
  <outline>
    <contour>
      <point x="503" y="0" type="line"/>
      <point x="811" y="1330" type="line"/>
      <point x="1307" y="1330" type="line"/>
      <point x="1333" y="1448" type="line"/>
      <point x="198" y="1448" type="line"/>
      <point x="172" y="1330" type="line"/>
      <point x="669" y="1330" type="line"/>
      <point x="361" y="0" type="line"/>
      <point x="377" y="0" type="line"/>
      <point x="239" y="-174" type="line"/>
      <point x="255" y="-196" type="line"/>
      <point x="311" y="-196" type="line" smooth="yes"/>
      <point x="384" y="-196"/>
      <point x="449" y="-232"/>
      <point x="449" y="-297" type="curve" smooth="yes"/>
      <point x="449" y="-377"/>
      <point x="405" y="-419"/>
      <point x="321" y="-419" type="curve" smooth="yes"/>
      <point x="274" y="-419"/>
      <point x="227" y="-386"/>
      <point x="218" y="-347" type="curve"/>
      <point x="118" y="-384" type="line"/>
      <point x="137" y="-453"/>
      <point x="231" y="-514"/>
      <point x="315" y="-514" type="curve" smooth="yes"/>
      <point x="463" y="-514"/>
      <point x="547" y="-441"/>
      <point x="547" y="-295" type="curve" smooth="yes"/>
      <point x="547" y="-204"/>
      <point x="487" y="-141"/>
      <point x="383" y="-126" type="curve"/>
      <point x="494" y="0" type="line"/>
    </contour>
  </outline>
  <guideline angle="90" name="vertical" x="683" y="0"/>
</glyph>
<glyph name="tcedilla" format="2">
  <advance width="692"/>
  <unicode hex="0163"/>
  <anchor x="293" y="-120" name="bottom"/>
  <anchor x="292" y="0" name="cedilla"/>
  <outline>
    <contour>
      <point x="179.94" y="-514.04" type="curve" smooth="yes"/>
      <point x="328.42" y="-514.04"/>
      <point x="412.39" y="-441.34"/>
      <point x="412.39" y="-294.91" type="curve" smooth="yes"/>
      <point x="412.39" y="-203.77"/>
      <point x="351.97" y="-141.31"/>
      <point x="247.52" y="-125.95" type="curve"/>
      <point x="340.26" y="-21.31" type="line"/>
      <point x="384.969" y="-22.7852"/>
      <point x="430.298" y="-17.2577"/>
      <point x="473.08" y="-4.09001" type="curve"/>
      <point x="489.47" y="108.54" type="line"/>
      <point x="453.63" y="95.23"/>
      <point x="416.76" y="82.94"/>
      <point x="378.88" y="82.94" type="curve" smooth="yes"/>
      <point x="308.22" y="82.94"/>
      <point x="281.6" y="117.76"/>
      <point x="281.6" y="168.96" type="curve" smooth="yes"/>
      <point x="281.6" y="216.06"/>
      <point x="312.32" y="355.32"/>
      <point x="330.75" y="435.2" type="curve" smooth="yes"/>
      <point x="450.56" y="958.46" type="line"/>
      <point x="722.94" y="958.46" type="line"/>
      <point x="746.49" y="1063.93" type="line"/>
      <point x="475.13" y="1063.93" type="line"/>
      <point x="560.12" y="1382.4" type="line"/>
      <point x="390.14" y="1264.64" type="line"/>
      <point x="336.89" y="1063.93" type="line"/>
      <point x="175.1" y="1063.93" type="line"/>
      <point x="151.55" y="958.46" type="line"/>
      <point x="312.31" y="958.46" type="line"/>
      <point x="162.81" y="287.74" type="line" smooth="yes"/>
      <point x="154.62" y="247.8"/>
      <point x="148.47" y="208.89"/>
      <point x="148.47" y="168.96" type="curve" smooth="yes"/>
      <point x="148.47" y="86.34"/>
      <point x="180.89" y="28.73"/>
      <point x="242.27" y="-0.159993" type="curve"/>
      <point x="104.16" y="-174.08" type="line"/>
      <point x="119.52" y="-195.58" type="line"/>
      <point x="175.84" y="-195.58" type="line" smooth="yes"/>
      <point x="248.55" y="-195.58"/>
      <point x="314.08" y="-232.44"/>
      <point x="314.08" y="-296.95" type="curve" smooth="yes"/>
      <point x="314.08" y="-376.83"/>
      <point x="270.05" y="-418.81"/>
      <point x="186.08" y="-418.81" type="curve" smooth="yes"/>
      <point x="138.97" y="-418.81"/>
      <point x="91.87" y="-386.04"/>
      <point x="82.66" y="-347.13" type="curve"/>
      <point x="-16.66" y="-384" type="line"/>
      <point x="2.79001" y="-452.6"/>
      <point x="95.97" y="-514.04"/>
    </contour>
  </outline>
</glyph>
<glyph name="tcaron" format="2">
  <advance width="703"/>
  <unicode hex="0165"/>
  <outline>
    <component base="t"/>
    <contour>
      <point x="711.68" y="1135.62" type="line"/>
      <point x="1028.1" y="1479.68" type="line"/>
      <point x="818.176" y="1479.68" type="line"/>
      <point x="611.328" y="1135.62" type="line"/>
    </contour>
  </outline>
</glyph>
<glyph name="Tbar" format="2">
  <advance width="1293"/>
  <unicode hex="0166"/>
  <outline>
    <contour>
      <point x="600" y="0" type="line"/>
      <point x="754" y="669" type="line"/>
      <point x="1012" y="669" type="line"/>
      <point x="1036" y="775" type="line"/>
      <point x="779" y="775" type="line"/>
      <point x="908" y="1336" type="line"/>
      <point x="1404" y="1336" type="line"/>
      <point x="1430" y="1447" type="line"/>
      <point x="295" y="1447" type="line"/>
      <point x="269" y="1336" type="line"/>
      <point x="766" y="1336" type="line"/>
      <point x="637" y="775" type="line"/>
      <point x="389" y="775" type="line"/>
      <point x="364" y="669" type="line"/>
      <point x="612" y="669" type="line"/>
      <point x="458" y="0" type="line"/>
    </contour>
  </outline>
</glyph>
<glyph name="tbar" format="2">
  <advance width="699"/>
  <unicode hex="0167"/>
  <outline>
    <component base="t"/>
    <contour>
      <point x="7.168" y="584.704" type="line"/>
      <point x="-18.432" y="478.208" type="line"/>
      <point x="650.24" y="478.208" type="line"/>
      <point x="676.864" y="584.704" type="line"/>
    </contour>
  </outline>
</glyph>
<glyph name="longs" format="2">
  <advance width="734"/>
  <unicode hex="017F"/>
  <outline>
    <contour>
      <point x="114" y="0" type="line"/>
      <point x="248" y="0" type="line"/>
      <point x="520" y="1132" type="line" smooth="yes"/>
      <point x="562" y="1305"/>
      <point x="632" y="1362"/>
      <point x="731" y="1362" type="curve" smooth="yes"/>
      <point x="773" y="1362"/>
      <point x="813" y="1354"/>
      <point x="852" y="1338" type="curve"/>
      <point x="900" y="1428" type="line"/>
      <point x="848" y="1455"/>
      <point x="793" y="1468"/>
      <point x="732" y="1468" type="curve" smooth="yes"/>
      <point x="471" y="1468"/>
      <point x="422" y="1312"/>
      <point x="371" y="1107" type="curve" smooth="yes"/>
      <point x="359" y="1062" type="line"/>
      <point x="164" y="1062" type="line"/>
      <point x="139" y="958" type="line"/>
      <point x="335" y="958" type="line"/>
    </contour>
  </outline>
</glyph>
<glyph name="florin" format="2">
  <advance width="1138"/>
  <unicode hex="0192"/>
  <outline>
    <contour>
      <point x="-88.064" y="-468.992" type="line"/>
      <point x="211.968" y="-468.992"/>
      <point x="429.056" y="-300.032"/>
      <point x="497.664" y="-7.168" type="curve" smooth="yes"/>
      <point x="720.896" y="946.176" type="line"/>
      <point x="1046.53" y="946.176" type="line"/>
      <point x="1075.2" y="1063.94" type="line"/>
      <point x="748.544" y="1063.94" type="line"/>
      <point x="765.952" y="1123.33" type="line" smooth="yes"/>
      <point x="801.792" y="1244.16"/>
      <point x="860.16" y="1366.02"/>
      <point x="993.28" y="1366.02" type="curve" smooth="yes"/>
      <point x="1027.07" y="1366.02"/>
      <point x="1068.03" y="1354.75"/>
      <point x="1093.63" y="1333.25" type="curve"/>
      <point x="1188.86" y="1413.12" type="line"/>
      <point x="1136.64" y="1458.18"/>
      <point x="1071.1" y="1486.85"/>
      <point x="1001.47" y="1486.85" type="curve" smooth="yes"/>
      <point x="772.096" y="1486.85"/>
      <point x="694.272" y="1315.84"/>
      <point x="643.072" y="1130.5" type="curve" smooth="yes"/>
      <point x="624.64" y="1063.94" type="line"/>
      <point x="434.176" y="1063.94" type="line"/>
      <point x="405.504" y="946.176" type="line"/>
      <point x="594.944" y="946.176" type="line"/>
      <point x="377.856" y="3.072" type="line" smooth="yes"/>
      <point x="321.536" y="-238.592"/>
      <point x="174.08" y="-348.16"/>
      <point x="-71.68" y="-348.16" type="curve"/>
    </contour>
  </outline>
</glyph>
<glyph name="eturned" format="2">
  <advance width="1081"/>
  <unicode hex="01DD"/>
  <outline>
    <contour>
      <point x="636" y="1085" type="curve" smooth="yes"/>
      <point x="480" y="1085"/>
      <point x="328" y="1036"/>
      <point x="209" y="934" type="curve"/>
      <point x="290" y="856" type="line"/>
      <point x="384" y="941"/>
      <point x="503" y="971"/>
      <point x="627" y="971" type="curve" smooth="yes"/>
      <point x="790" y="971"/>
      <point x="875" y="866"/>
      <point x="875" y="706" type="curve" smooth="yes"/>
      <point x="875" y="664"/>
      <point x="868" y="621"/>
      <point x="859" y="580" type="curve"/>
      <point x="117" y="580" type="line"/>
      <point x="92" y="497"/>
      <point x="76" y="421"/>
      <point x="76" y="329" type="curve" smooth="yes"/>
      <point x="76" y="99"/>
      <point x="202" y="-19"/>
      <point x="428" y="-19" type="curve" smooth="yes"/>
      <point x="785" y="-19"/>
      <point x="1006" y="376"/>
      <point x="1006" y="699" type="curve" smooth="yes"/>
      <point x="1006" y="932"/>
      <point x="873" y="1085"/>
    </contour>
    <contour>
      <point x="214" y="467" type="curve"/>
      <point x="833" y="467" type="line"/>
      <point x="784" y="280"/>
      <point x="651" y="99"/>
      <point x="443" y="99" type="curve" smooth="yes"/>
      <point x="295" y="99"/>
      <point x="191" y="167"/>
      <point x="191" y="328" type="curve" smooth="yes"/>
      <point x="191" y="376"/>
      <point x="202" y="422"/>
    </contour>
  </outline>
</glyph>
<glyph name="dotlessj" format="2">
  <advance width="532"/>
  <unicode hex="0237"/>
  <anchor x="384" y="1192" name="top"/>
  <outline>
    <contour>
      <point x="-156" y="-450" type="curve" smooth="yes"/>
      <point x="27" y="-450"/>
      <point x="131" y="-335"/>
      <point x="171" y="-165" type="curve" smooth="yes"/>
      <point x="458" y="1064" type="line"/>
      <point x="313" y="1064" type="line"/>
      <point x="24" y="-177" type="line" smooth="yes"/>
      <point x="5" y="-262"/>
      <point x="-47" y="-323"/>
      <point x="-138" y="-323" type="curve" smooth="yes"/>
      <point x="-178" y="-323"/>
      <point x="-218" y="-318"/>
      <point x="-258" y="-307" type="curve"/>
      <point x="-307" y="-418" type="line"/>
      <point x="-259" y="-437"/>
      <point x="-208" y="-450"/>
    </contour>
  </outline>
  <guideline angle="90" name="vertical" x="384" y="0"/>
</glyph>
<glyph name="uni0237" format="2">
  <advance width="532"/>
  <unicode hex="0237"/>
  <anchor x="384" y="1192" name="top"/>
  <outline>
    <contour>
      <point x="-155.648" y="-449.536" type="curve" smooth="yes"/>
      <point x="27.648" y="-449.536"/>
      <point x="131.072" y="-334.848"/>
      <point x="171.008" y="-164.864" type="curve" smooth="yes"/>
      <point x="457.728" y="1063.94" type="line"/>
      <point x="313.344" y="1063.94" type="line"/>
      <point x="23.552" y="-177.152" type="line" smooth="yes"/>
      <point x="4.096" y="-262.144"/>
      <point x="-47.104" y="-322.56"/>
      <point x="-138.24" y="-322.56" type="curve" smooth="yes"/>
      <point x="-178.176" y="-322.56"/>
      <point x="-218.112" y="-318.464"/>
      <point x="-258.048" y="-307.2" type="curve"/>
      <point x="-307.2" y="-417.792" type="line"/>
      <point x="-259.072" y="-437.248"/>
      <point x="-207.872" y="-449.536"/>
    </contour>
  </outline>
  <guideline angle="90" name="vertical" x="384" y="0"/>
</glyph>
<glyph name="aturned" format="2">
  <advance width="1163"/>
  <unicode hex="0250"/>
  <anchor x="778" y="1192" name="top"/>
  <anchor x="1015" y="0" name="ogonek"/>
  <anchor x="548" y="-120" name="bottom"/>
  <outline>
    <contour>
      <point x="729.344" y="966.72" type="curve" smooth="yes"/>
      <point x="893.184" y="966.72"/>
      <point x="956.672" y="854.08"/>
      <point x="956.672" y="703.552" type="curve" smooth="yes"/>
      <point x="956.672" y="450.624"/>
      <point x="800" y="100.416"/>
      <point x="507.136" y="100.416" type="curve" smooth="yes"/>
      <point x="344.32" y="100.416"/>
      <point x="279.808" y="208.96"/>
      <point x="279.808" y="359.488" type="curve" smooth="yes"/>
      <point x="279.808" y="613.44"/>
      <point x="433.408" y="966.72"/>
    </contour>
    <contour>
      <point x="767.232" y="1084.48" type="curve" smooth="yes"/>
      <point x="622.517" y="1084.48"/>
      <point x="468.306" y="1013.08"/>
      <point x="383.206" y="895.797" type="curve" name=".sh01"/>
      <point x="415.82" y="1064" type="line"/>
      <point x="292.82" y="1064" type="line"/>
      <point x="281.42" y="984.485"/>
      <point x="264.852" y="903.982"/>
      <point x="246.516" y="824.454" type="curve" smooth="yes"/>
      <point x="56.576" y="0.0639648" type="line"/>
      <point x="190.72" y="0.0639648" type="line"/>
      <point x="229.632" y="158.784" type="line"/>
      <point x="291.072" y="30.784"/>
      <point x="398.592" y="-20.416"/>
      <point x="536.832" y="-20.416" type="curve" smooth="yes"/>
      <point x="883.968" y="-20.416"/>
      <point x="1088.77" y="403.52"/>
      <point x="1088.77" y="705.6" type="curve" smooth="yes"/>
      <point x="1088.77" y="912.448"/>
      <point x="993.536" y="1084.48"/>
    </contour>
  </outline>
  <guideline angle="90" name="vertical" x="537" y="0"/>
</glyph>
<glyph name="uni0250" format="2">
  <advance width="1166"/>
  <unicode hex="0250"/>
  <outline>
    <contour>
      <point x="770.232" y="1084.48" type="curve" smooth="yes"/>
      <point x="631.992" y="1084.48"/>
      <point x="499.896" y="1023.04"/>
      <point x="405.688" y="921.664" type="curve"/>
      <point x="436.408" y="1064" type="line"/>
      <point x="303.288" y="1064" type="line"/>
      <point x="59.576" y="0.0639648" type="line"/>
      <point x="193.72" y="0.0639648" type="line"/>
      <point x="232.632" y="158.784" type="line"/>
      <point x="294.072" y="30.784"/>
      <point x="401.592" y="-20.416"/>
      <point x="539.832" y="-20.416" type="curve" smooth="yes"/>
      <point x="886.968" y="-20.416"/>
      <point x="1091.77" y="403.52"/>
      <point x="1091.77" y="705.6" type="curve" smooth="yes"/>
      <point x="1091.77" y="912.448"/>
      <point x="996.536" y="1084.48"/>
    </contour>
    <contour>
      <point x="732.344" y="966.72" type="curve" smooth="yes"/>
      <point x="896.184" y="966.72"/>
      <point x="959.672" y="854.08"/>
      <point x="959.672" y="703.552" type="curve" smooth="yes"/>
      <point x="959.672" y="450.624"/>
      <point x="803" y="100.416"/>
      <point x="510.136" y="100.416" type="curve" smooth="yes"/>
      <point x="347.32" y="100.416"/>
      <point x="282.808" y="208.96"/>
      <point x="282.808" y="359.488" type="curve" smooth="yes"/>
      <point x="282.808" y="613.44"/>
      <point x="436.408" y="966.72"/>
    </contour>
  </outline>
</glyph>
<glyph name="oopen" format="2">
  <advance width="1022"/>
  <unicode hex="0254"/>
  <outline>
    <contour>
      <point x="589" y="1081" type="curve" smooth="yes"/>
      <point x="400" y="1081"/>
      <point x="240" y="975"/>
      <point x="147" y="814" type="curve"/>
      <point x="252" y="754" type="line"/>
      <point x="312" y="874"/>
      <point x="443" y="966"/>
      <point x="580" y="966" type="curve" smooth="yes"/>
      <point x="751" y="966"/>
      <point x="810" y="846"/>
      <point x="810" y="692" type="curve" smooth="yes"/>
      <point x="810" y="450"/>
      <point x="662" y="97"/>
      <point x="379" y="97" type="curve" smooth="yes"/>
      <point x="256" y="97"/>
      <point x="160" y="175"/>
      <point x="151" y="301" type="curve"/>
      <point x="19" y="250" type="line"/>
      <point x="61" y="75"/>
      <point x="186" y="-20"/>
      <point x="365" y="-20" type="curve" smooth="yes"/>
      <point x="722" y="-20"/>
      <point x="942" y="369"/>
      <point x="942" y="688" type="curve" smooth="yes"/>
      <point x="942" y="915"/>
      <point x="829" y="1081"/>
    </contour>
  </outline>
</glyph>
<glyph name="ereversed-ipa" format="2">
  <advance width="1111"/>
  <unicode hex="0258"/>
  <outline>
    <contour>
      <point x="422" y="-20" type="curve" smooth="yes"/>
      <point x="797" y="-20"/>
      <point x="1032" y="337"/>
      <point x="1032" y="686" type="curve" smooth="yes"/>
      <point x="1032" y="919"/>
      <point x="909" y="1084"/>
      <point x="666" y="1084" type="curve" smooth="yes"/>
      <point x="339" y="1084"/>
      <point x="131" y="789"/>
      <point x="100" y="489" type="curve"/>
      <point x="841" y="489" type="line"/>
      <point x="792" y="292"/>
      <point x="653" y="113"/>
      <point x="435" y="113" type="curve" smooth="yes"/>
      <point x="327" y="113"/>
      <point x="233" y="131"/>
      <point x="168" y="226" type="curve"/>
      <point x="48" y="146" type="line"/>
      <point x="143" y="20"/>
      <point x="269" y="-20"/>
    </contour>
    <contour>
      <point x="274" y="602" type="line"/>
      <point x="317" y="795"/>
      <point x="454" y="948"/>
      <point x="661" y="948" type="curve" smooth="yes"/>
      <point x="812" y="948"/>
      <point x="882" y="859"/>
      <point x="882" y="712" type="curve" smooth="yes"/>
      <point x="882" y="680"/>
      <point x="879" y="634"/>
      <point x="872" y="602" type="curve"/>
    </contour>
  </outline>
</glyph>
